<?xml version="1.0" encoding="UTF-8" standalone="no"?>
<!DOCTYPE svg PUBLIC "-//W3C//DTD SVG 1.1//EN"
 "http://www.w3.org/Graphics/SVG/1.1/DTD/svg11.dtd">
<!-- Generated by graphviz version 2.50.0 (20211204.2007)
 -->
<!-- Pages: 1 -->
<svg width="191pt" height="745pt"
 viewBox="0.00 0.00 191.30 744.80" xmlns="http://www.w3.org/2000/svg" xmlns:xlink="http://www.w3.org/1999/xlink">
<g id="graph0" class="graph" transform="scale(1 1) rotate(0) translate(14.4 730.4)">
<polygon fill="white" stroke="transparent" points="-14.4,14.4 -14.4,-730.4 176.9,-730.4 176.9,14.4 -14.4,14.4"/>
<!-- ((9, (3,)), 1) -->
<g id="node1" class="node">
<title>((9, (3,)), 1)</title>
<ellipse fill="white" stroke="black" cx="70" cy="-694.5" rx="21.5" ry="21.5"/>
<text text-anchor="middle" x="70" y="-690.7" font-family="Times,serif" font-size="16.00">9</text>
</g>
<!-- ((9, (3,)), (9, 3), 1) -->
<g id="node2" class="node">
<title>((9, (3,)), (9, 3), 1)</title>
<polygon fill="#bfbfbf" stroke="black" points="70,-651 52,-633 70,-615 88,-633 70,-651"/>
<text text-anchor="middle" x="70" y="-629.3" font-family="Times,serif" font-size="14.00">→→→</text>
</g>
<!-- ((9, (3,)), 1)&#45;&gt;((9, (3,)), (9, 3), 1) -->
<g id="edge1" class="edge">
<title>((9, (3,)), 1)&#45;&gt;((9, (3,)), (9, 3), 1)</title>
<path fill="none" stroke="black" d="M70,-672.69C70,-669.1 70,-665.31 70,-661.57"/>
<polygon fill="black" stroke="black" points="73.5,-661.35 70,-651.35 66.5,-661.35 73.5,-661.35"/>
</g>
<!-- ((3, (2,)), 2) -->
<g id="node3" class="node">
<title>((3, (2,)), 2)</title>
<ellipse fill="white" stroke="black" cx="70" cy="-571.5" rx="21.5" ry="21.5"/>
<text text-anchor="middle" x="70" y="-567.7" font-family="Times,serif" font-size="16.00">3</text>
</g>
<!-- ((9, (3,)), (9, 3), 1)&#45;&gt;((3, (2,)), 2) -->
<g id="edge2" class="edge">
<title>((9, (3,)), (9, 3), 1)&#45;&gt;((3, (2,)), 2)</title>
<path fill="none" stroke="black" d="M70,-614.79C70,-611.22 70,-607.35 70,-603.45"/>
<polygon fill="black" stroke="black" points="73.5,-603.26 70,-593.26 66.5,-603.26 73.5,-603.26"/>
</g>
<!-- ((3, (2,)), (3, 2), 2) -->
<g id="node4" class="node">
<title>((3, (2,)), (3, 2), 2)</title>
<polygon fill="#bfbfbf" stroke="black" points="70,-528 52,-510 70,-492 88,-510 70,-528"/>
<text text-anchor="middle" x="70" y="-506.3" font-family="Times,serif" font-size="14.00">↓↓</text>
</g>
<!-- ((3, (2,)), 2)&#45;&gt;((3, (2,)), (3, 2), 2) -->
<g id="edge3" class="edge">
<title>((3, (2,)), 2)&#45;&gt;((3, (2,)), (3, 2), 2)</title>
<path fill="none" stroke="black" d="M70,-549.69C70,-546.1 70,-542.31 70,-538.57"/>
<polygon fill="black" stroke="black" points="73.5,-538.35 70,-528.35 66.5,-538.35 73.5,-538.35"/>
</g>
<!-- ((5, (&#45;1, &#45;2, &#45;3, &#45;4)), 3) -->
<g id="node5" class="node">
<title>((5, (&#45;1, &#45;2, &#45;3, &#45;4)), 3)</title>
<ellipse fill="white" stroke="black" cx="70" cy="-448.5" rx="21.5" ry="21.5"/>
<text text-anchor="middle" x="70" y="-444.7" font-family="Times,serif" font-size="16.00">5</text>
</g>
<!-- ((3, (2,)), (3, 2), 2)&#45;&gt;((5, (&#45;1, &#45;2, &#45;3, &#45;4)), 3) -->
<g id="edge4" class="edge">
<title>((3, (2,)), (3, 2), 2)&#45;&gt;((5, (&#45;1, &#45;2, &#45;3, &#45;4)), 3)</title>
<path fill="none" stroke="black" d="M70,-491.79C70,-488.22 70,-484.35 70,-480.45"/>
<polygon fill="black" stroke="black" points="73.5,-480.26 70,-470.26 66.5,-480.26 73.5,-480.26"/>
</g>
<!-- ((5, (&#45;1, &#45;2, &#45;3, &#45;4)), (5, &#45;1), 3) -->
<g id="node6" class="node">
<title>((5, (&#45;1, &#45;2, &#45;3, &#45;4)), (5, &#45;1), 3)</title>
<polygon fill="#bfbfbf" stroke="black" points="18,-405 0,-387 18,-369 36,-387 18,-405"/>
<text text-anchor="middle" x="18" y="-383.3" font-family="Times,serif" font-size="14.00">←</text>
</g>
<!-- ((5, (&#45;1, &#45;2, &#45;3, &#45;4)), 3)&#45;&gt;((5, (&#45;1, &#45;2, &#45;3, &#45;4)), (5, &#45;1), 3) -->
<g id="edge5" class="edge">
<title>((5, (&#45;1, &#45;2, &#45;3, &#45;4)), 3)&#45;&gt;((5, (&#45;1, &#45;2, &#45;3, &#45;4)), (5, &#45;1), 3)</title>
<path fill="none" stroke="black" d="M56.34,-431.87C49.12,-423.6 40.24,-413.45 32.85,-404.99"/>
<polygon fill="black" stroke="black" points="35.28,-402.46 26.07,-397.23 30.01,-407.06 35.28,-402.46"/>
</g>
<!-- ((5, (&#45;1, &#45;2, &#45;3, &#45;4)), (5, &#45;2), 3) -->
<g id="node18" class="node">
<title>((5, (&#45;1, &#45;2, &#45;3, &#45;4)), (5, &#45;2), 3)</title>
<polygon fill="#bfbfbf" stroke="black" points="70,-405 52,-387 70,-369 88,-387 70,-405"/>
<text text-anchor="middle" x="70" y="-383.3" font-family="Times,serif" font-size="14.00">←←</text>
</g>
<!-- ((5, (&#45;1, &#45;2, &#45;3, &#45;4)), 3)&#45;&gt;((5, (&#45;1, &#45;2, &#45;3, &#45;4)), (5, &#45;2), 3) -->
<g id="edge19" class="edge">
<title>((5, (&#45;1, &#45;2, &#45;3, &#45;4)), 3)&#45;&gt;((5, (&#45;1, &#45;2, &#45;3, &#45;4)), (5, &#45;2), 3)</title>
<path fill="none" stroke="black" d="M70,-426.69C70,-423.1 70,-419.31 70,-415.57"/>
<polygon fill="black" stroke="black" points="73.5,-415.35 70,-405.35 66.5,-415.35 73.5,-415.35"/>
</g>
<!-- ((5, (&#45;1, &#45;2, &#45;3, &#45;4)), (5, &#45;3), 3) -->
<g id="node19" class="node">
<title>((5, (&#45;1, &#45;2, &#45;3, &#45;4)), (5, &#45;3), 3)</title>
<polygon fill="#bfbfbf" stroke="black" points="133,-405 115,-387 133,-369 151,-387 133,-405"/>
<text text-anchor="middle" x="133" y="-383.3" font-family="Times,serif" font-size="14.00">←←←</text>
</g>
<!-- ((5, (&#45;1, &#45;2, &#45;3, &#45;4)), 3)&#45;&gt;((5, (&#45;1, &#45;2, &#45;3, &#45;4)), (5, &#45;3), 3) -->
<g id="edge21" class="edge">
<title>((5, (&#45;1, &#45;2, &#45;3, &#45;4)), 3)&#45;&gt;((5, (&#45;1, &#45;2, &#45;3, &#45;4)), (5, &#45;3), 3)</title>
<path fill="none" stroke="black" d="M85.25,-433.1C94.7,-424.18 106.83,-412.72 116.5,-403.59"/>
<polygon fill="black" stroke="black" points="119.06,-405.98 123.93,-396.57 114.25,-400.89 119.06,-405.98"/>
</g>
<!-- ((1, (&#45;2, &#45;3, &#45;4)), 4) -->
<g id="node7" class="node">
<title>((1, (&#45;2, &#45;3, &#45;4)), 4)</title>
<ellipse fill="white" stroke="black" cx="70" cy="-325.5" rx="21.5" ry="21.5"/>
<text text-anchor="middle" x="70" y="-321.7" font-family="Times,serif" font-size="16.00">1</text>
</g>
<!-- ((5, (&#45;1, &#45;2, &#45;3, &#45;4)), (5, &#45;1), 3)&#45;&gt;((1, (&#45;2, &#45;3, &#45;4)), 4) -->
<g id="edge6" class="edge">
<title>((5, (&#45;1, &#45;2, &#45;3, &#45;4)), (5, &#45;1), 3)&#45;&gt;((1, (&#45;2, &#45;3, &#45;4)), 4)</title>
<path fill="none" stroke="black" d="M26.12,-376.7C32.37,-369.55 41.29,-359.35 49.46,-350.01"/>
<polygon fill="black" stroke="black" points="52.12,-352.28 56.06,-342.44 46.85,-347.67 52.12,-352.28"/>
</g>
<!-- ((1, (&#45;2, &#45;3, &#45;4)), (1, &#45;2), 4) -->
<g id="node8" class="node">
<title>((1, (&#45;2, &#45;3, &#45;4)), (1, &#45;2), 4)</title>
<polygon fill="#bfbfbf" stroke="black" points="22,-282 4,-264 22,-246 40,-264 22,-282"/>
<text text-anchor="middle" x="22" y="-260.3" font-family="Times,serif" font-size="14.00">↑↑</text>
</g>
<!-- ((1, (&#45;2, &#45;3, &#45;4)), 4)&#45;&gt;((1, (&#45;2, &#45;3, &#45;4)), (1, &#45;2), 4) -->
<g id="edge7" class="edge">
<title>((1, (&#45;2, &#45;3, &#45;4)), 4)&#45;&gt;((1, (&#45;2, &#45;3, &#45;4)), (1, &#45;2), 4)</title>
<path fill="none" stroke="black" d="M56.88,-308.24C50.46,-300.27 42.71,-290.67 36.15,-282.54"/>
<polygon fill="black" stroke="black" points="38.85,-280.31 29.85,-274.73 33.4,-284.71 38.85,-280.31"/>
</g>
<!-- ((1, (&#45;2, &#45;3, &#45;4)), (1, &#45;3), 4) -->
<g id="node14" class="node">
<title>((1, (&#45;2, &#45;3, &#45;4)), (1, &#45;3), 4)</title>
<polygon fill="#bfbfbf" stroke="black" points="70,-282 52,-264 70,-246 88,-264 70,-282"/>
<text text-anchor="middle" x="70" y="-260.3" font-family="Times,serif" font-size="14.00">↑↑↑</text>
</g>
<!-- ((1, (&#45;2, &#45;3, &#45;4)), 4)&#45;&gt;((1, (&#45;2, &#45;3, &#45;4)), (1, &#45;3), 4) -->
<g id="edge13" class="edge">
<title>((1, (&#45;2, &#45;3, &#45;4)), 4)&#45;&gt;((1, (&#45;2, &#45;3, &#45;4)), (1, &#45;3), 4)</title>
<path fill="none" stroke="black" d="M70,-303.69C70,-300.1 70,-296.31 70,-292.57"/>
<polygon fill="black" stroke="black" points="73.5,-292.35 70,-282.35 66.5,-292.35 73.5,-292.35"/>
</g>
<!-- ((1, (&#45;2, &#45;3, &#45;4)), (1, &#45;4), 4) -->
<g id="node15" class="node">
<title>((1, (&#45;2, &#45;3, &#45;4)), (1, &#45;4), 4)</title>
<polygon fill="#bfbfbf" stroke="black" points="122,-282 104,-264 122,-246 140,-264 122,-282"/>
<text text-anchor="middle" x="122" y="-260.3" font-family="Times,serif" font-size="14.00">↑↑↑↑</text>
</g>
<!-- ((1, (&#45;2, &#45;3, &#45;4)), 4)&#45;&gt;((1, (&#45;2, &#45;3, &#45;4)), (1, &#45;4), 4) -->
<g id="edge15" class="edge">
<title>((1, (&#45;2, &#45;3, &#45;4)), 4)&#45;&gt;((1, (&#45;2, &#45;3, &#45;4)), (1, &#45;4), 4)</title>
<path fill="none" stroke="black" d="M83.66,-308.87C90.88,-300.6 99.76,-290.45 107.15,-281.99"/>
<polygon fill="black" stroke="black" points="109.99,-284.06 113.93,-274.23 104.72,-279.46 109.99,-284.06"/>
</g>
<!-- ((2, (&#45;1, 2, &#45;2)), 5) -->
<g id="node9" class="node">
<title>((2, (&#45;1, 2, &#45;2)), 5)</title>
<ellipse fill="white" stroke="black" cx="69" cy="-202.5" rx="21.5" ry="21.5"/>
<text text-anchor="middle" x="69" y="-198.7" font-family="Times,serif" font-size="16.00">2</text>
</g>
<!-- ((1, (&#45;2, &#45;3, &#45;4)), (1, &#45;2), 4)&#45;&gt;((2, (&#45;1, 2, &#45;2)), 5) -->
<g id="edge8" class="edge">
<title>((1, (&#45;2, &#45;3, &#45;4)), (1, &#45;2), 4)&#45;&gt;((2, (&#45;1, 2, &#45;2)), 5)</title>
<path fill="none" stroke="black" d="M29.55,-253.44C35.03,-246.5 42.71,-236.78 49.84,-227.76"/>
<polygon fill="black" stroke="black" points="52.7,-229.79 56.15,-219.77 47.2,-225.45 52.7,-229.79"/>
</g>
<!-- ((2, (&#45;1, 2, &#45;2)), (2, &#45;1), 5) -->
<g id="node10" class="node">
<title>((2, (&#45;1, 2, &#45;2)), (2, &#45;1), 5)</title>
<polygon fill="lime" stroke="black" points="18,-159 0,-141 18,-123 36,-141 18,-159"/>
<text text-anchor="middle" x="18" y="-137.3" font-family="Times,serif" font-size="14.00">←</text>
</g>
<!-- ((2, (&#45;1, 2, &#45;2)), 5)&#45;&gt;((2, (&#45;1, 2, &#45;2)), (2, &#45;1), 5) -->
<g id="edge9" class="edge">
<title>((2, (&#45;1, 2, &#45;2)), 5)&#45;&gt;((2, (&#45;1, 2, &#45;2)), (2, &#45;1), 5)</title>
<path fill="none" stroke="black" d="M55.33,-185.56C48.34,-177.4 39.82,-167.46 32.69,-159.14"/>
<polygon fill="black" stroke="black" points="35.29,-156.79 26.13,-151.48 29.98,-161.35 35.29,-156.79"/>
</g>
<!-- ((2, (&#45;1, 2, &#45;2)), (2, 2), 5) -->
<g id="node11" class="node">
<title>((2, (&#45;1, 2, &#45;2)), (2, 2), 5)</title>
<polygon fill="#bfbfbf" stroke="black" points="70,-159 52,-141 70,-123 88,-141 70,-159"/>
<text text-anchor="middle" x="70" y="-137.3" font-family="Times,serif" font-size="14.00">→→</text>
</g>
<!-- ((2, (&#45;1, 2, &#45;2)), 5)&#45;&gt;((2, (&#45;1, 2, &#45;2)), (2, 2), 5) -->
<g id="edge10" class="edge">
<title>((2, (&#45;1, 2, &#45;2)), 5)&#45;&gt;((2, (&#45;1, 2, &#45;2)), (2, 2), 5)</title>
<path fill="none" stroke="black" d="M69.35,-180.69C69.41,-176.92 69.48,-172.93 69.55,-169.01"/>
<polygon fill="black" stroke="black" points="73.05,-169.02 69.71,-158.97 66.05,-168.91 73.05,-169.02"/>
</g>
<!-- ((3, (&#45;1,)), 6) -->
<g id="node12" class="node">
<title>((3, (&#45;1,)), 6)</title>
<ellipse fill="white" stroke="black" cx="70" cy="-79.5" rx="21.5" ry="21.5"/>
<text text-anchor="middle" x="70" y="-75.7" font-family="Times,serif" font-size="16.00">3</text>
</g>
<!-- ((2, (&#45;1, 2, &#45;2)), (2, 2), 5)&#45;&gt;((3, (&#45;1,)), 6) -->
<g id="edge11" class="edge">
<title>((2, (&#45;1, 2, &#45;2)), (2, 2), 5)&#45;&gt;((3, (&#45;1,)), 6)</title>
<path fill="none" stroke="black" d="M70,-122.79C70,-119.22 70,-115.35 70,-111.45"/>
<polygon fill="black" stroke="black" points="73.5,-111.26 70,-101.26 66.5,-111.26 73.5,-111.26"/>
</g>
<!-- ((3, (&#45;1,)), (3, &#45;1), 6) -->
<g id="node13" class="node">
<title>((3, (&#45;1,)), (3, &#45;1), 6)</title>
<polygon fill="lime" stroke="black" points="70,-36 52,-18 70,0 88,-18 70,-36"/>
<text text-anchor="middle" x="70" y="-14.3" font-family="Times,serif" font-size="14.00">↑</text>
</g>
<!-- ((3, (&#45;1,)), 6)&#45;&gt;((3, (&#45;1,)), (3, &#45;1), 6) -->
<g id="edge12" class="edge">
<title>((3, (&#45;1,)), 6)&#45;&gt;((3, (&#45;1,)), (3, &#45;1), 6)</title>
<path fill="none" stroke="black" d="M70,-57.69C70,-54.1 70,-50.31 70,-46.57"/>
<polygon fill="black" stroke="black" points="73.5,-46.35 70,-36.35 66.5,-46.35 73.5,-46.35"/>
</g>
<!-- ((1, (&#45;2, &#45;3, &#45;4)), (1, &#45;3), 4)&#45;&gt;((2, (&#45;1, 2, &#45;2)), 5) -->
<g id="edge14" class="edge">
<title>((1, (&#45;2, &#45;3, &#45;4)), (1, &#45;3), 4)&#45;&gt;((2, (&#45;1, 2, &#45;2)), 5)</title>
<path fill="none" stroke="black" d="M69.72,-246.11C69.65,-242.35 69.58,-238.25 69.51,-234.13"/>
<polygon fill="black" stroke="black" points="73.01,-233.97 69.35,-224.03 66.01,-234.09 73.01,-233.97"/>
</g>
<!-- ((1, (&#45;2, &#45;3, &#45;4)), (1, &#45;4), 4)&#45;&gt;((2, (&#45;1, 2, &#45;2)), 5) -->
<g id="edge16" class="edge">
<title>((1, (&#45;2, &#45;3, &#45;4)), (1, &#45;4), 4)&#45;&gt;((2, (&#45;1, 2, &#45;2)), 5)</title>
<path fill="none" stroke="black" d="M113.95,-253.96C107.53,-246.75 98.23,-236.31 89.75,-226.8"/>
<polygon fill="black" stroke="black" points="92.17,-224.26 82.91,-219.12 86.95,-228.91 92.17,-224.26"/>
</g>
<!-- ((7, (1,)), 5) -->
<g id="node16" class="node">
<title>((7, (1,)), 5)</title>
<ellipse fill="white" stroke="black" cx="123" cy="-202.5" rx="21.5" ry="21.5"/>
<text text-anchor="middle" x="123" y="-198.7" font-family="Times,serif" font-size="16.00">7</text>
</g>
<!-- ((1, (&#45;2, &#45;3, &#45;4)), (1, &#45;4), 4)&#45;&gt;((7, (1,)), 5) -->
<g id="edge17" class="edge">
<title>((1, (&#45;2, &#45;3, &#45;4)), (1, &#45;4), 4)&#45;&gt;((7, (1,)), 5)</title>
<path fill="none" stroke="black" d="M122.28,-246.11C122.35,-242.35 122.42,-238.25 122.49,-234.13"/>
<polygon fill="black" stroke="black" points="125.99,-234.09 122.65,-224.03 118.99,-233.97 125.99,-234.09"/>
</g>
<!-- ((7, (1,)), (7, 1), 5) -->
<g id="node17" class="node">
<title>((7, (1,)), (7, 1), 5)</title>
<polygon fill="lime" stroke="black" points="123,-159 105,-141 123,-123 141,-141 123,-159"/>
<text text-anchor="middle" x="123" y="-137.3" font-family="Times,serif" font-size="14.00">→</text>
</g>
<!-- ((7, (1,)), 5)&#45;&gt;((7, (1,)), (7, 1), 5) -->
<g id="edge18" class="edge">
<title>((7, (1,)), 5)&#45;&gt;((7, (1,)), (7, 1), 5)</title>
<path fill="none" stroke="black" d="M123,-180.69C123,-177.1 123,-173.31 123,-169.57"/>
<polygon fill="black" stroke="black" points="126.5,-169.35 123,-159.35 119.5,-169.35 126.5,-169.35"/>
</g>
<!-- ((5, (&#45;1, &#45;2, &#45;3, &#45;4)), (5, &#45;2), 3)&#45;&gt;((1, (&#45;2, &#45;3, &#45;4)), 4) -->
<g id="edge20" class="edge">
<title>((5, (&#45;1, &#45;2, &#45;3, &#45;4)), (5, &#45;2), 3)&#45;&gt;((1, (&#45;2, &#45;3, &#45;4)), 4)</title>
<path fill="none" stroke="black" d="M70,-368.79C70,-365.22 70,-361.35 70,-357.45"/>
<polygon fill="black" stroke="black" points="73.5,-357.26 70,-347.26 66.5,-357.26 73.5,-357.26"/>
</g>
<!-- ((5, (&#45;1, &#45;2, &#45;3, &#45;4)), (5, &#45;3), 3)&#45;&gt;((1, (&#45;2, &#45;3, &#45;4)), 4) -->
<g id="edge22" class="edge">
<title>((5, (&#45;1, &#45;2, &#45;3, &#45;4)), (5, &#45;3), 3)&#45;&gt;((1, (&#45;2, &#45;3, &#45;4)), 4)</title>
<path fill="none" stroke="black" d="M124.24,-377.73C116.19,-370.12 103.89,-358.51 93.04,-348.26"/>
<polygon fill="black" stroke="black" points="95.15,-345.43 85.47,-341.11 90.34,-350.52 95.15,-345.43"/>
</g>
</g>
</svg>
