<?xml version="1.0" encoding="utf-8"?>
<svg xmlns="http://www.w3.org/2000/svg" xmlns:xlink="http://www.w3.org/1999/xlink" width="750" height="250" viewBox="0 0 3000 1000">
<defs>
  <clipPath id="clip870">
    <rect x="0" y="0" width="3000" height="1000"/>
  </clipPath>
</defs>
<path clip-path="url(#clip870)" d="M0 1000 L3000 1000 L3000 0 L0 0  Z" fill="#ffffff" fill-rule="evenodd" fill-opacity="1"/>
<defs>
  <clipPath id="clip871">
    <rect x="600" y="0" width="2101" height="1000"/>
  </clipPath>
</defs>
<path clip-path="url(#clip870)" d="M288.98 36.8673 L2937.01 36.8673 L2937.01 31.4961 L288.98 31.4961  Z" fill="#ffffff" fill-rule="evenodd" fill-opacity="1"/>
<defs>
  <clipPath id="clip872">
    <rect x="288" y="31" width="2649" height="6"/>
  </clipPath>
</defs>
<path clip-path="url(#clip870)" d="M977.332 161.275 L2248.66 161.275 L2248.66 31.6751 L977.332 31.6751  Z" fill="#000000" fill-rule="evenodd" fill-opacity="0"/>
<polyline clip-path="url(#clip870)" style="stroke:#000000; stroke-linecap:round; stroke-linejoin:round; stroke-width:4; stroke-opacity:0; fill:none" points="977.332,161.275 2248.66,161.275 2248.66,31.6751 977.332,31.6751 977.332,161.275 "/>
<polyline clip-path="url(#clip870)" style="stroke:#009af9; stroke-linecap:round; stroke-linejoin:round; stroke-width:25; stroke-opacity:1; fill:none" points="1006.75,96.4751 1183.29,96.4751 "/>
<path clip-path="url(#clip870)" d="M1212.71 74.8751 L1218.61 74.8751 L1227.7 111.391 L1236.76 74.8751 L1243.33 74.8751 L1252.41 111.391 L1261.47 74.8751 L1267.4 74.8751 L1256.55 118.075 L1249.2 118.075 L1240.08 80.5753 L1230.88 118.075 L1223.53 118.075 L1212.71 74.8751 Z" fill="#000000" fill-rule="evenodd" fill-opacity="1" /><path clip-path="url(#clip870)" d="M1284.01 89.4005 Q1279.73 89.4005 1277.24 92.757 Q1274.75 96.0845 1274.75 101.9 Q1274.75 107.716 1277.21 111.073 Q1279.7 114.4 1284.01 114.4 Q1288.26 114.4 1290.75 111.044 Q1293.24 107.687 1293.24 101.9 Q1293.24 96.1424 1290.75 92.7859 Q1288.26 89.4005 1284.01 89.4005 M1284.01 84.8866 Q1290.95 84.8866 1294.92 89.4005 Q1298.88 93.9144 1298.88 101.9 Q1298.88 109.858 1294.92 114.4 Q1290.95 118.914 1284.01 118.914 Q1277.03 118.914 1273.07 114.4 Q1269.14 109.858 1269.14 101.9 Q1269.14 93.9144 1273.07 89.4005 Q1277.03 84.8866 1284.01 84.8866 Z" fill="#000000" fill-rule="evenodd" fill-opacity="1" /><path clip-path="url(#clip870)" d="M1326.48 90.6447 Q1325.59 90.1239 1324.52 89.8924 Q1323.48 89.632 1322.2 89.632 Q1317.69 89.632 1315.26 92.5833 Q1312.86 95.5058 1312.86 101.003 L1312.86 118.075 L1307.5 118.075 L1307.5 85.6679 L1312.86 85.6679 L1312.86 90.7026 Q1314.53 87.7512 1317.23 86.3334 Q1319.92 84.8866 1323.76 84.8866 Q1324.31 84.8866 1324.98 84.9734 Q1325.65 85.0313 1326.46 85.176 L1326.48 90.6447 Z" fill="#000000" fill-rule="evenodd" fill-opacity="1" /><path clip-path="url(#clip870)" d="M1352.73 86.6227 L1352.73 91.6574 Q1350.47 90.5 1348.04 89.9213 Q1345.61 89.3426 1343.01 89.3426 Q1339.04 89.3426 1337.05 90.5579 Q1335.08 91.7732 1335.08 94.2037 Q1335.08 96.0555 1336.5 97.1261 Q1337.91 98.1678 1342.2 99.1227 L1344.02 99.5278 Q1349.69 100.743 1352.06 102.971 Q1354.46 105.17 1354.46 109.134 Q1354.46 113.648 1350.88 116.281 Q1347.32 118.914 1341.07 118.914 Q1338.46 118.914 1335.63 118.393 Q1332.82 117.901 1329.7 116.889 L1329.7 111.391 Q1332.65 112.925 1335.51 113.706 Q1338.38 114.458 1341.18 114.458 Q1344.95 114.458 1346.97 113.185 Q1349 111.883 1349 109.539 Q1349 107.369 1347.52 106.212 Q1346.07 105.054 1341.13 103.984 L1339.27 103.55 Q1334.33 102.508 1332.13 100.367 Q1329.93 98.1967 1329.93 94.4352 Q1329.93 89.8635 1333.17 87.375 Q1336.41 84.8866 1342.37 84.8866 Q1345.32 84.8866 1347.93 85.3207 Q1350.53 85.7547 1352.73 86.6227 Z" fill="#000000" fill-rule="evenodd" fill-opacity="1" /><path clip-path="url(#clip870)" d="M1390.66 100.54 L1390.66 103.145 L1366.18 103.145 Q1366.53 108.642 1369.48 111.536 Q1372.46 114.4 1377.76 114.4 Q1380.82 114.4 1383.69 113.648 Q1386.58 112.896 1389.42 111.391 L1389.42 116.426 Q1386.55 117.641 1383.54 118.278 Q1380.54 118.914 1377.44 118.914 Q1369.68 118.914 1365.14 114.4 Q1360.63 109.886 1360.63 102.19 Q1360.63 94.2326 1364.91 89.5741 Q1369.22 84.8866 1376.51 84.8866 Q1383.05 84.8866 1386.84 89.1111 Q1390.66 93.3067 1390.66 100.54 M1385.34 98.978 Q1385.28 94.6088 1382.88 92.0046 Q1380.51 89.4005 1376.57 89.4005 Q1372.12 89.4005 1369.42 91.9178 Q1366.76 94.4352 1366.36 99.0069 L1385.34 98.978 Z" fill="#000000" fill-rule="evenodd" fill-opacity="1" /><polyline clip-path="url(#clip870)" style="stroke:#e26f46; stroke-linecap:round; stroke-linejoin:round; stroke-width:25; stroke-opacity:1; fill:none" points="1420.72,96.4751 1597.26,96.4751 "/>
<path clip-path="url(#clip870)" d="M1654.49 76.2929 L1654.49 81.9931 Q1651.16 80.4017 1648.21 79.6204 Q1645.26 78.8392 1642.51 78.8392 Q1637.73 78.8392 1635.13 80.691 Q1632.55 82.5429 1632.55 85.9572 Q1632.55 88.8218 1634.26 90.2975 Q1636 91.7442 1640.8 92.6412 L1644.33 93.3646 Q1650.87 94.6088 1653.96 97.7627 Q1657.09 100.888 1657.09 106.154 Q1657.09 112.433 1652.87 115.673 Q1648.67 118.914 1640.54 118.914 Q1637.47 118.914 1634 118.22 Q1630.56 117.525 1626.85 116.165 L1626.85 110.147 Q1630.41 112.143 1633.83 113.156 Q1637.24 114.169 1640.54 114.169 Q1645.54 114.169 1648.26 112.201 Q1650.98 110.234 1650.98 106.588 Q1650.98 103.405 1649.02 101.611 Q1647.08 99.8171 1642.62 98.9201 L1639.06 98.2257 Q1632.52 96.9236 1629.6 94.1458 Q1626.68 91.3681 1626.68 86.4202 Q1626.68 80.691 1630.7 77.3925 Q1634.75 74.0939 1641.84 74.0939 Q1644.88 74.0939 1648.03 74.6436 Q1651.19 75.1934 1654.49 76.2929 Z" fill="#000000" fill-rule="evenodd" fill-opacity="1" /><path clip-path="url(#clip870)" d="M1680.7 101.785 Q1674.25 101.785 1671.76 103.26 Q1669.27 104.736 1669.27 108.295 Q1669.27 111.131 1671.12 112.809 Q1673 114.458 1676.22 114.458 Q1680.64 114.458 1683.31 111.333 Q1686 108.179 1686 102.971 L1686 101.785 L1680.7 101.785 M1691.32 99.5856 L1691.32 118.075 L1686 118.075 L1686 113.156 Q1684.17 116.108 1681.45 117.525 Q1678.73 118.914 1674.8 118.914 Q1669.82 118.914 1666.87 116.136 Q1663.95 113.33 1663.95 108.642 Q1663.95 103.174 1667.59 100.396 Q1671.27 97.618 1678.53 97.618 L1686 97.618 L1686 97.0972 Q1686 93.4225 1683.57 91.4259 Q1681.16 89.4005 1676.79 89.4005 Q1674.02 89.4005 1671.38 90.066 Q1668.75 90.7315 1666.32 92.0625 L1666.32 87.1436 Q1669.24 86.0151 1671.99 85.4653 Q1674.74 84.8866 1677.34 84.8866 Q1684.38 84.8866 1687.85 88.5324 Q1691.32 92.1783 1691.32 99.5856 Z" fill="#000000" fill-rule="evenodd" fill-opacity="1" /><path clip-path="url(#clip870)" d="M1727.52 91.8889 Q1729.51 88.301 1732.29 86.5938 Q1735.07 84.8866 1738.83 84.8866 Q1743.9 84.8866 1746.64 88.4456 Q1749.39 91.9757 1749.39 98.515 L1749.39 118.075 L1744.04 118.075 L1744.04 98.6886 Q1744.04 94.0301 1742.39 91.7732 Q1740.74 89.5162 1737.36 89.5162 Q1733.22 89.5162 1730.82 92.2651 Q1728.41 95.0139 1728.41 99.7592 L1728.41 118.075 L1723.06 118.075 L1723.06 98.6886 Q1723.06 94.0012 1721.41 91.7732 Q1719.76 89.5162 1716.32 89.5162 Q1712.24 89.5162 1709.84 92.294 Q1707.44 95.0428 1707.44 99.7592 L1707.44 118.075 L1702.08 118.075 L1702.08 85.6679 L1707.44 85.6679 L1707.44 90.7026 Q1709.26 87.7223 1711.81 86.3044 Q1714.35 84.8866 1717.85 84.8866 Q1721.38 84.8866 1723.84 86.6806 Q1726.33 88.4746 1727.52 91.8889 Z" fill="#000000" fill-rule="evenodd" fill-opacity="1" /><path clip-path="url(#clip870)" d="M1787.73 100.54 L1787.73 103.145 L1763.25 103.145 Q1763.6 108.642 1766.55 111.536 Q1769.53 114.4 1774.83 114.4 Q1777.89 114.4 1780.76 113.648 Q1783.65 112.896 1786.49 111.391 L1786.49 116.426 Q1783.62 117.641 1780.61 118.278 Q1777.6 118.914 1774.51 118.914 Q1766.75 118.914 1762.21 114.4 Q1757.7 109.886 1757.7 102.19 Q1757.7 94.2326 1761.98 89.5741 Q1766.29 84.8866 1773.58 84.8866 Q1780.12 84.8866 1783.91 89.1111 Q1787.73 93.3067 1787.73 100.54 M1782.41 98.978 Q1782.35 94.6088 1779.95 92.0046 Q1777.58 89.4005 1773.64 89.4005 Q1769.18 89.4005 1766.49 91.9178 Q1763.83 94.4352 1763.43 99.0069 L1782.41 98.978 Z" fill="#000000" fill-rule="evenodd" fill-opacity="1" /><polyline clip-path="url(#clip870)" style="stroke:#3da44d; stroke-linecap:round; stroke-linejoin:round; stroke-width:25; stroke-opacity:1; fill:none" points="1834.69,96.4751 2011.22,96.4751 "/>
<path clip-path="url(#clip870)" d="M2046.49 97.4444 L2046.49 113.272 L2055.87 113.272 Q2060.58 113.272 2062.84 111.333 Q2065.13 109.366 2065.13 105.344 Q2065.13 101.293 2062.84 99.3831 Q2060.58 97.4444 2055.87 97.4444 L2046.49 97.4444 M2046.49 79.6783 L2046.49 92.6991 L2055.14 92.6991 Q2059.43 92.6991 2061.51 91.1077 Q2063.62 89.4873 2063.62 86.1887 Q2063.62 82.919 2061.51 81.2987 Q2059.43 79.6783 2055.14 79.6783 L2046.49 79.6783 M2040.65 74.8751 L2055.58 74.8751 Q2062.26 74.8751 2065.88 77.6529 Q2069.49 80.4306 2069.49 85.5521 Q2069.49 89.5162 2067.64 91.86 Q2065.79 94.2037 2062.2 94.7824 Q2066.51 95.7083 2068.89 98.6597 Q2071.29 101.582 2071.29 105.98 Q2071.29 111.767 2067.35 114.921 Q2063.42 118.075 2056.16 118.075 L2040.65 118.075 L2040.65 74.8751 Z" fill="#000000" fill-rule="evenodd" fill-opacity="1" /><path clip-path="url(#clip870)" d="M2108.79 100.54 L2108.79 103.145 L2084.31 103.145 Q2084.66 108.642 2087.61 111.536 Q2090.59 114.4 2095.88 114.4 Q2098.95 114.4 2101.82 113.648 Q2104.71 112.896 2107.54 111.391 L2107.54 116.426 Q2104.68 117.641 2101.67 118.278 Q2098.66 118.914 2095.57 118.914 Q2087.81 118.914 2083.27 114.4 Q2078.75 109.886 2078.75 102.19 Q2078.75 94.2326 2083.04 89.5741 Q2087.35 84.8866 2094.64 84.8866 Q2101.18 84.8866 2104.97 89.1111 Q2108.79 93.3067 2108.79 100.54 M2103.46 98.978 Q2103.41 94.6088 2101.01 92.0046 Q2098.63 89.4005 2094.7 89.4005 Q2090.24 89.4005 2087.55 91.9178 Q2084.89 94.4352 2084.48 99.0069 L2103.46 98.978 Z" fill="#000000" fill-rule="evenodd" fill-opacity="1" /><path clip-path="url(#clip870)" d="M2122.79 76.4665 L2122.79 85.6679 L2133.76 85.6679 L2133.76 89.8056 L2122.79 89.8056 L2122.79 107.398 Q2122.79 111.362 2123.86 112.491 Q2124.96 113.619 2128.29 113.619 L2133.76 113.619 L2133.76 118.075 L2128.29 118.075 Q2122.13 118.075 2119.78 115.789 Q2117.44 113.474 2117.44 107.398 L2117.44 89.8056 L2113.53 89.8056 L2113.53 85.6679 L2117.44 85.6679 L2117.44 76.4665 L2122.79 76.4665 Z" fill="#000000" fill-rule="evenodd" fill-opacity="1" /><path clip-path="url(#clip870)" d="M2146.03 76.4665 L2146.03 85.6679 L2156.99 85.6679 L2156.99 89.8056 L2146.03 89.8056 L2146.03 107.398 Q2146.03 111.362 2147.1 112.491 Q2148.2 113.619 2151.53 113.619 L2156.99 113.619 L2156.99 118.075 L2151.53 118.075 Q2145.36 118.075 2143.02 115.789 Q2140.67 113.474 2140.67 107.398 L2140.67 89.8056 L2136.77 89.8056 L2136.77 85.6679 L2140.67 85.6679 L2140.67 76.4665 L2146.03 76.4665 Z" fill="#000000" fill-rule="evenodd" fill-opacity="1" /><path clip-path="url(#clip870)" d="M2191.72 100.54 L2191.72 103.145 L2167.24 103.145 Q2167.58 108.642 2170.54 111.536 Q2173.52 114.4 2178.81 114.4 Q2181.88 114.4 2184.74 113.648 Q2187.64 112.896 2190.47 111.391 L2190.47 116.426 Q2187.61 117.641 2184.6 118.278 Q2181.59 118.914 2178.49 118.914 Q2170.74 118.914 2166.2 114.4 Q2161.68 109.886 2161.68 102.19 Q2161.68 94.2326 2165.96 89.5741 Q2170.28 84.8866 2177.57 84.8866 Q2184.11 84.8866 2187.9 89.1111 Q2191.72 93.3067 2191.72 100.54 M2186.39 98.978 Q2186.33 94.6088 2183.93 92.0046 Q2181.56 89.4005 2177.62 89.4005 Q2173.17 89.4005 2170.48 91.9178 Q2167.82 94.4352 2167.41 99.0069 L2186.39 98.978 Z" fill="#000000" fill-rule="evenodd" fill-opacity="1" /><path clip-path="url(#clip870)" d="M2219.23 90.6447 Q2218.34 90.1239 2217.27 89.8924 Q2216.22 89.632 2214.95 89.632 Q2210.44 89.632 2208.01 92.5833 Q2205.61 95.5058 2205.61 101.003 L2205.61 118.075 L2200.25 118.075 L2200.25 85.6679 L2205.61 85.6679 L2205.61 90.7026 Q2207.28 87.7512 2209.97 86.3334 Q2212.67 84.8866 2216.51 84.8866 Q2217.06 84.8866 2217.73 84.9734 Q2218.39 85.0313 2219.2 85.176 L2219.23 90.6447 Z" fill="#000000" fill-rule="evenodd" fill-opacity="1" /><path clip-path="url(#clip870)" d="M288.98 795.049 L1108.66 795.049 L1108.66 263.296 L288.98 263.296  Z" fill="#ffffff" fill-rule="evenodd" fill-opacity="1"/>
<defs>
  <clipPath id="clip873">
    <rect x="288" y="263" width="821" height="533"/>
  </clipPath>
</defs>
<polyline clip-path="url(#clip870)" style="stroke:#000000; stroke-linecap:round; stroke-linejoin:round; stroke-width:4; stroke-opacity:1; fill:none" points="1108.66,795.049 288.98,795.049 "/>
<polyline clip-path="url(#clip870)" style="stroke:#000000; stroke-linecap:round; stroke-linejoin:round; stroke-width:4; stroke-opacity:1; fill:none" points="1108.66,795.049 1108.66,813.947 "/>
<polyline clip-path="url(#clip870)" style="stroke:#000000; stroke-linecap:round; stroke-linejoin:round; stroke-width:4; stroke-opacity:1; fill:none" points="835.436,795.049 835.436,813.947 "/>
<polyline clip-path="url(#clip870)" style="stroke:#000000; stroke-linecap:round; stroke-linejoin:round; stroke-width:4; stroke-opacity:1; fill:none" points="562.208,795.049 562.208,813.947 "/>
<polyline clip-path="url(#clip870)" style="stroke:#000000; stroke-linecap:round; stroke-linejoin:round; stroke-width:4; stroke-opacity:1; fill:none" points="288.98,795.049 288.98,813.947 "/>
<path clip-path="url(#clip870)" d="M1108.66 845.698 Q1104.15 845.698 1101.86 850.154 Q1099.61 854.581 1099.61 863.493 Q1099.61 872.376 1101.86 876.832 Q1104.15 881.259 1108.66 881.259 Q1113.21 881.259 1115.46 876.832 Q1117.75 872.376 1117.75 863.493 Q1117.75 854.581 1115.46 850.154 Q1113.21 845.698 1108.66 845.698 M1108.66 841.068 Q1115.93 841.068 1119.75 846.826 Q1123.59 852.555 1123.59 863.493 Q1123.59 874.401 1119.75 880.159 Q1115.93 885.888 1108.66 885.888 Q1101.4 885.888 1097.55 880.159 Q1093.73 874.401 1093.73 863.493 Q1093.73 852.555 1097.55 846.826 Q1101.4 841.068 1108.66 841.068 Z" fill="#000000" fill-rule="evenodd" fill-opacity="1" /><path clip-path="url(#clip870)" d="M823.283 841.849 L846.229 841.849 L846.229 846.768 L828.636 846.768 L828.636 857.359 Q829.909 856.925 831.182 856.722 Q832.456 856.49 833.729 856.49 Q840.962 856.49 845.187 860.455 Q849.411 864.419 849.411 871.189 Q849.411 878.163 845.071 882.04 Q840.731 885.888 832.832 885.888 Q830.112 885.888 827.276 885.426 Q824.469 884.963 821.46 884.037 L821.46 878.163 Q824.064 879.581 826.842 880.275 Q829.62 880.97 832.716 880.97 Q837.722 880.97 840.644 878.336 Q843.567 875.703 843.567 871.189 Q843.567 866.676 840.644 864.043 Q837.722 861.409 832.716 861.409 Q830.372 861.409 828.028 861.93 Q825.714 862.451 823.283 863.551 L823.283 841.849 Z" fill="#000000" fill-rule="evenodd" fill-opacity="1" /><path clip-path="url(#clip870)" d="M530.567 880.13 L540.116 880.13 L540.116 847.173 L529.728 849.257 L529.728 843.933 L540.058 841.849 L545.903 841.849 L545.903 880.13 L555.452 880.13 L555.452 885.049 L530.567 885.049 L530.567 880.13 Z" fill="#000000" fill-rule="evenodd" fill-opacity="1" /><path clip-path="url(#clip870)" d="M579.757 845.698 Q575.243 845.698 572.957 850.154 Q570.7 854.581 570.7 863.493 Q570.7 872.376 572.957 876.832 Q575.243 881.259 579.757 881.259 Q584.3 881.259 586.557 876.832 Q588.843 872.376 588.843 863.493 Q588.843 854.581 586.557 850.154 Q584.3 845.698 579.757 845.698 M579.757 841.068 Q587.02 841.068 590.839 846.826 Q594.687 852.555 594.687 863.493 Q594.687 874.401 590.839 880.159 Q587.02 885.888 579.757 885.888 Q572.494 885.888 568.646 880.159 Q564.826 874.401 564.826 863.493 Q564.826 852.555 568.646 846.826 Q572.494 841.068 579.757 841.068 Z" fill="#000000" fill-rule="evenodd" fill-opacity="1" /><path clip-path="url(#clip870)" d="M257.962 880.13 L267.51 880.13 L267.51 847.173 L257.122 849.257 L257.122 843.933 L267.452 841.849 L273.297 841.849 L273.297 880.13 L282.846 880.13 L282.846 885.049 L257.962 885.049 L257.962 880.13 Z" fill="#000000" fill-rule="evenodd" fill-opacity="1" /><path clip-path="url(#clip870)" d="M294.709 841.849 L317.655 841.849 L317.655 846.768 L300.062 846.768 L300.062 857.359 Q301.335 856.925 302.608 856.722 Q303.881 856.49 305.155 856.49 Q312.388 856.49 316.613 860.455 Q320.837 864.419 320.837 871.189 Q320.837 878.163 316.497 882.04 Q312.157 885.888 304.258 885.888 Q301.538 885.888 298.702 885.426 Q295.895 884.963 292.886 884.037 L292.886 878.163 Q295.49 879.581 298.268 880.275 Q301.046 880.97 304.142 880.97 Q309.148 880.97 312.07 878.336 Q314.993 875.703 314.993 871.189 Q314.993 866.676 312.07 864.043 Q309.148 861.409 304.142 861.409 Q301.798 861.409 299.454 861.93 Q297.14 862.451 294.709 863.551 L294.709 841.849 Z" fill="#000000" fill-rule="evenodd" fill-opacity="1" /><path clip-path="url(#clip870)" d="M655.982 895.715 L643.89 944.246 Q643.398 946.419 643.398 948.263 Q643.398 952.116 645.898 952.116 Q647.128 952.116 648.112 951.338 Q649.096 950.559 649.874 948.919 Q650.653 947.28 651.145 945.763 Q651.637 944.205 652.293 941.746 Q652.498 940.762 652.662 940.516 Q652.867 940.23 653.44 940.23 Q654.465 940.23 654.465 941.049 Q653.358 946.337 651.924 949.37 Q649.628 954.002 645.734 954.002 Q642.783 954.002 640.693 952.198 Q638.602 950.395 638.11 947.69 Q632.741 954.002 627.166 954.002 Q622.248 954.002 619.132 950.272 Q616.017 946.501 616.017 940.557 Q616.017 934.573 618.968 928.834 Q621.961 923.096 626.674 919.53 Q631.388 915.964 636.225 915.964 Q641.349 915.964 643.972 921.333 L649.014 901.413 L649.259 899.773 Q649.259 899.281 649.055 899.035 Q648.891 898.748 647.907 898.543 Q646.964 898.338 645.079 898.338 Q644.3 898.338 643.931 898.297 Q643.603 898.256 643.316 898.052 Q643.029 897.806 643.029 897.314 Q643.029 895.879 644.218 895.715 Q652.088 894.813 654.875 894.813 Q655.367 894.813 655.654 895.059 Q655.941 895.264 655.941 895.51 L655.982 895.715 M642.947 925.186 Q642.947 924.818 642.66 923.793 Q642.373 922.768 641.717 921.333 Q641.062 919.899 639.627 918.874 Q638.233 917.808 636.348 917.808 Q633.807 917.808 631.142 919.981 Q628.519 922.153 626.592 925.842 Q625.117 928.794 623.518 934.983 Q621.961 941.172 621.961 944.246 Q621.961 946.132 622.37 947.813 Q622.821 949.452 624.092 950.805 Q625.363 952.116 627.33 952.116 Q632.126 952.116 636.84 946.173 Q637.741 945.148 637.946 944.738 Q638.192 944.287 638.52 943.058 L642.701 926.621 Q642.947 925.391 642.947 925.186 Z" fill="#000000" fill-rule="evenodd" fill-opacity="1" /><path clip-path="url(#clip870)" d="M664.547 982.877 Q664.547 980.983 665.982 979.348 Q667.445 977.712 669.97 976.995 Q667.388 975.359 667.388 971.773 Q667.388 969.018 669.196 966.895 Q666.441 964.6 666.441 960.841 Q666.441 957.369 669.196 954.816 Q671.95 952.262 675.967 952.262 Q679.496 952.262 682.193 954.385 Q685.005 951.631 688.42 951.602 Q689.94 951.602 690.658 952.549 Q691.404 953.496 691.404 954.5 Q691.404 955.389 690.83 955.82 Q690.285 956.25 689.711 956.25 Q688.993 956.25 688.477 955.791 Q687.989 955.303 687.989 954.557 Q687.989 953.324 688.936 952.951 Q688.764 952.893 688.362 952.893 Q685.493 952.893 683.054 955.189 Q685.464 957.427 685.464 960.898 Q685.464 964.37 682.71 966.924 Q679.955 969.477 675.967 969.477 Q672.667 969.477 670.143 967.641 Q669.138 968.818 669.138 970.424 Q669.138 971.888 670.028 973.035 Q670.917 974.183 672.266 974.355 Q672.667 974.413 676.656 974.413 Q679.008 974.413 680.3 974.47 Q681.591 974.527 683.427 974.929 Q685.292 975.302 686.755 976.048 Q690.572 978.171 690.6 982.762 Q690.6 986.119 686.727 988.214 Q682.882 990.337 677.545 990.337 Q672.151 990.337 668.335 988.185 Q664.547 986.062 664.547 982.877 M667.618 982.877 Q667.618 985.287 670.458 987.123 Q673.299 988.988 677.603 988.988 Q681.82 988.988 684.661 987.152 Q687.53 985.344 687.53 982.877 Q687.53 981.127 686.526 980.008 Q685.522 978.889 683.456 978.43 Q681.419 977.999 679.984 977.913 Q678.549 977.827 675.91 977.827 L672.438 977.827 Q670.429 977.942 669.024 979.405 Q667.618 980.868 667.618 982.877 M670.831 960.898 Q670.831 968.129 675.967 968.129 Q678.549 968.129 680.127 965.776 Q681.074 964.198 681.074 960.841 Q681.074 953.611 675.967 953.611 Q673.385 953.611 671.778 955.963 Q670.831 957.541 670.831 960.898 Z" fill="#000000" fill-rule="evenodd" fill-opacity="1" /><path clip-path="url(#clip870)" d="M702.461 975.073 Q698.587 971.228 698.587 965.661 Q698.587 960.066 702.375 955.992 Q706.191 951.889 711.642 951.889 Q716.979 951.889 720.795 955.963 Q724.64 960.009 724.64 965.661 Q724.64 971.199 720.767 975.044 Q716.922 978.889 711.585 978.889 Q706.363 978.889 702.461 975.073 M703.465 965.174 Q703.465 970.883 704.957 973.466 Q707.252 977.397 711.642 977.397 Q713.823 977.397 715.631 976.22 Q717.467 975.044 718.471 973.064 Q719.762 970.482 719.762 965.174 Q719.762 959.521 718.213 957.025 Q715.918 953.209 711.585 953.209 Q709.691 953.209 707.826 954.213 Q705.99 955.189 704.871 957.14 Q703.465 959.722 703.465 965.174 Z" fill="#000000" fill-rule="evenodd" fill-opacity="1" /><path clip-path="url(#clip870)" d="M727.688 972.634 Q727.688 967.641 733.57 965.001 Q737.099 963.309 744.387 962.878 L744.387 960.726 Q744.387 957.082 742.464 955.16 Q740.571 953.209 738.161 953.209 Q733.857 953.209 731.791 955.906 Q733.541 955.963 734.172 956.853 Q734.804 957.714 734.804 958.603 Q734.804 959.779 734.058 960.554 Q733.34 961.3 732.106 961.3 Q730.93 961.3 730.155 960.583 Q729.381 959.837 729.381 958.546 Q729.381 955.676 731.963 953.783 Q734.574 951.889 738.275 951.889 Q743.096 951.889 746.309 955.131 Q747.314 956.135 747.801 957.427 Q748.318 958.718 748.375 959.579 Q748.433 960.411 748.433 962.075 L748.433 973.81 Q748.433 974.154 748.547 974.728 Q748.662 975.302 749.179 976.048 Q749.724 976.765 750.613 976.765 Q752.736 976.765 752.708 973.007 L752.708 969.707 L754.2 969.707 L754.2 973.007 Q754.2 976.134 752.536 977.368 Q750.9 978.573 749.379 978.573 Q747.428 978.573 746.195 977.138 Q744.961 975.704 744.789 973.753 Q743.899 975.991 741.862 977.454 Q739.853 978.889 737.099 978.889 Q734.976 978.889 732.967 978.343 Q730.987 977.827 729.323 976.364 Q727.688 974.872 727.688 972.634 M732.221 972.576 Q732.221 974.757 733.771 976.163 Q735.32 977.569 737.501 977.569 Q739.968 977.569 742.178 975.675 Q744.387 973.753 744.387 969.994 L744.387 964.112 Q737.874 964.342 735.033 966.953 Q732.221 969.535 732.221 972.576 Z" fill="#000000" fill-rule="evenodd" fill-opacity="1" /><path clip-path="url(#clip870)" d="M756.553 978.229 L756.553 976.421 Q759.681 976.421 760.398 976.048 Q761.115 975.646 761.115 973.753 L761.115 943.195 Q761.115 941.015 760.341 940.469 Q759.595 939.924 756.553 939.924 L756.553 938.088 L764.989 937.457 L764.989 973.753 Q764.989 975.646 765.735 976.048 Q766.481 976.421 769.58 976.421 L769.58 978.229 Q768.862 978.229 767.37 978.171 Q765.878 978.114 764.788 978.085 Q763.698 978.057 763.066 978.057 Q762.378 978.057 756.553 978.229 Z" fill="#000000" fill-rule="evenodd" fill-opacity="1" /><polyline clip-path="url(#clip870)" style="stroke:#000000; stroke-linecap:round; stroke-linejoin:round; stroke-width:4; stroke-opacity:1; fill:none" points="288.98,795.049 288.98,263.296 "/>
<polyline clip-path="url(#clip870)" style="stroke:#000000; stroke-linecap:round; stroke-linejoin:round; stroke-width:4; stroke-opacity:1; fill:none" points="288.98,795.049 270.082,795.049 "/>
<polyline clip-path="url(#clip870)" style="stroke:#000000; stroke-linecap:round; stroke-linejoin:round; stroke-width:4; stroke-opacity:1; fill:none" points="288.98,688.699 270.082,688.699 "/>
<polyline clip-path="url(#clip870)" style="stroke:#000000; stroke-linecap:round; stroke-linejoin:round; stroke-width:4; stroke-opacity:1; fill:none" points="288.98,582.348 270.082,582.348 "/>
<polyline clip-path="url(#clip870)" style="stroke:#000000; stroke-linecap:round; stroke-linejoin:round; stroke-width:4; stroke-opacity:1; fill:none" points="288.98,475.997 270.082,475.997 "/>
<polyline clip-path="url(#clip870)" style="stroke:#000000; stroke-linecap:round; stroke-linejoin:round; stroke-width:4; stroke-opacity:1; fill:none" points="288.98,369.646 270.082,369.646 "/>
<polyline clip-path="url(#clip870)" style="stroke:#000000; stroke-linecap:round; stroke-linejoin:round; stroke-width:4; stroke-opacity:1; fill:none" points="288.98,263.296 270.082,263.296 "/>
<path clip-path="url(#clip870)" d="M150.01 777.298 Q145.497 777.298 143.211 781.754 Q140.954 786.181 140.954 795.093 Q140.954 803.976 143.211 808.432 Q145.497 812.859 150.01 812.859 Q154.553 812.859 156.81 808.432 Q159.096 803.976 159.096 795.093 Q159.096 786.181 156.81 781.754 Q154.553 777.298 150.01 777.298 M150.01 772.668 Q157.273 772.668 161.093 778.426 Q164.941 784.155 164.941 795.093 Q164.941 806.001 161.093 811.759 Q157.273 817.488 150.01 817.488 Q142.748 817.488 138.899 811.759 Q135.08 806.001 135.08 795.093 Q135.08 784.155 138.899 778.426 Q142.748 772.668 150.01 772.668 Z" fill="#000000" fill-rule="evenodd" fill-opacity="1" /><path clip-path="url(#clip870)" d="M175.213 809.3 L181.318 809.3 L181.318 816.649 L175.213 816.649 L175.213 809.3 Z" fill="#000000" fill-rule="evenodd" fill-opacity="1" /><path clip-path="url(#clip870)" d="M206.549 777.298 Q202.036 777.298 199.75 781.754 Q197.493 786.181 197.493 795.093 Q197.493 803.976 199.75 808.432 Q202.036 812.859 206.549 812.859 Q211.092 812.859 213.349 808.432 Q215.635 803.976 215.635 795.093 Q215.635 786.181 213.349 781.754 Q211.092 777.298 206.549 777.298 M206.549 772.668 Q213.812 772.668 217.632 778.426 Q221.48 784.155 221.48 795.093 Q221.48 806.001 217.632 811.759 Q213.812 817.488 206.549 817.488 Q199.287 817.488 195.438 811.759 Q191.619 806.001 191.619 795.093 Q191.619 784.155 195.438 778.426 Q199.287 772.668 206.549 772.668 Z" fill="#000000" fill-rule="evenodd" fill-opacity="1" /><path clip-path="url(#clip870)" d="M152.007 670.947 Q147.493 670.947 145.207 675.403 Q142.95 679.83 142.95 688.742 Q142.95 697.625 145.207 702.081 Q147.493 706.508 152.007 706.508 Q156.55 706.508 158.807 702.081 Q161.093 697.625 161.093 688.742 Q161.093 679.83 158.807 675.403 Q156.55 670.947 152.007 670.947 M152.007 666.317 Q159.27 666.317 163.089 672.075 Q166.937 677.805 166.937 688.742 Q166.937 699.651 163.089 705.409 Q159.27 711.138 152.007 711.138 Q144.744 711.138 140.896 705.409 Q137.076 699.651 137.076 688.742 Q137.076 677.805 140.896 672.075 Q144.744 666.317 152.007 666.317 Z" fill="#000000" fill-rule="evenodd" fill-opacity="1" /><path clip-path="url(#clip870)" d="M177.209 702.949 L183.315 702.949 L183.315 710.299 L177.209 710.299 L177.209 702.949 Z" fill="#000000" fill-rule="evenodd" fill-opacity="1" /><path clip-path="url(#clip870)" d="M201.081 705.38 L221.48 705.38 L221.48 710.299 L194.05 710.299 L194.05 705.38 Q197.377 701.936 203.106 696.149 Q208.864 690.333 210.34 688.655 Q213.147 685.501 214.246 683.331 Q215.375 681.132 215.375 679.02 Q215.375 675.577 212.944 673.406 Q210.542 671.236 206.665 671.236 Q203.916 671.236 200.849 672.191 Q197.811 673.146 194.339 675.085 L194.339 669.182 Q197.869 667.764 200.936 667.041 Q204.003 666.317 206.549 666.317 Q213.262 666.317 217.255 669.674 Q221.248 673.03 221.248 678.644 Q221.248 681.306 220.236 683.707 Q219.252 686.08 216.619 689.321 Q215.895 690.16 212.018 694.182 Q208.141 698.175 201.081 705.38 Z" fill="#000000" fill-rule="evenodd" fill-opacity="1" /><path clip-path="url(#clip870)" d="M149.403 564.596 Q144.889 564.596 142.603 569.052 Q140.346 573.479 140.346 582.391 Q140.346 591.274 142.603 595.73 Q144.889 600.157 149.403 600.157 Q153.946 600.157 156.202 595.73 Q158.488 591.274 158.488 582.391 Q158.488 573.479 156.202 569.052 Q153.946 564.596 149.403 564.596 M149.403 559.967 Q156.665 559.967 160.485 565.725 Q164.333 571.454 164.333 582.391 Q164.333 593.3 160.485 599.058 Q156.665 604.787 149.403 604.787 Q142.14 604.787 138.292 599.058 Q134.472 593.3 134.472 582.391 Q134.472 571.454 138.292 565.725 Q142.14 559.967 149.403 559.967 Z" fill="#000000" fill-rule="evenodd" fill-opacity="1" /><path clip-path="url(#clip870)" d="M174.605 596.598 L180.71 596.598 L180.71 603.948 L174.605 603.948 L174.605 596.598 Z" fill="#000000" fill-rule="evenodd" fill-opacity="1" /><path clip-path="url(#clip870)" d="M209.501 565.84 L194.744 588.902 L209.501 588.902 L209.501 565.84 M207.967 560.748 L215.317 560.748 L215.317 588.902 L221.48 588.902 L221.48 593.763 L215.317 593.763 L215.317 603.948 L209.501 603.948 L209.501 593.763 L189.999 593.763 L189.999 588.12 L207.967 560.748 Z" fill="#000000" fill-rule="evenodd" fill-opacity="1" /><path clip-path="url(#clip870)" d="M149.808 458.245 Q145.294 458.245 143.008 462.701 Q140.751 467.129 140.751 476.041 Q140.751 484.924 143.008 489.38 Q145.294 493.807 149.808 493.807 Q154.351 493.807 156.608 489.38 Q158.893 484.924 158.893 476.041 Q158.893 467.129 156.608 462.701 Q154.351 458.245 149.808 458.245 M149.808 453.616 Q157.071 453.616 160.89 459.374 Q164.738 465.103 164.738 476.041 Q164.738 486.949 160.89 492.707 Q157.071 498.436 149.808 498.436 Q142.545 498.436 138.697 492.707 Q134.877 486.949 134.877 476.041 Q134.877 465.103 138.697 459.374 Q142.545 453.616 149.808 453.616 Z" fill="#000000" fill-rule="evenodd" fill-opacity="1" /><path clip-path="url(#clip870)" d="M175.01 490.248 L181.116 490.248 L181.116 497.597 L175.01 497.597 L175.01 490.248 Z" fill="#000000" fill-rule="evenodd" fill-opacity="1" /><path clip-path="url(#clip870)" d="M207.07 473.668 Q203.135 473.668 200.82 476.359 Q198.534 479.05 198.534 483.737 Q198.534 488.396 200.82 491.116 Q203.135 493.807 207.07 493.807 Q211.005 493.807 213.291 491.116 Q215.606 488.396 215.606 483.737 Q215.606 479.05 213.291 476.359 Q211.005 473.668 207.07 473.668 M218.673 455.352 L218.673 460.676 Q216.474 459.634 214.217 459.085 Q211.989 458.535 209.79 458.535 Q204.003 458.535 200.936 462.441 Q197.898 466.347 197.464 474.247 Q199.171 471.729 201.746 470.398 Q204.321 469.038 207.417 469.038 Q213.928 469.038 217.689 473.002 Q221.48 476.938 221.48 483.737 Q221.48 490.392 217.545 494.414 Q213.61 498.436 207.07 498.436 Q199.576 498.436 195.612 492.707 Q191.648 486.949 191.648 476.041 Q191.648 465.798 196.509 459.721 Q201.37 453.616 209.559 453.616 Q211.758 453.616 213.986 454.05 Q216.243 454.484 218.673 455.352 Z" fill="#000000" fill-rule="evenodd" fill-opacity="1" /><path clip-path="url(#clip870)" d="M150.126 351.895 Q145.612 351.895 143.326 356.351 Q141.069 360.778 141.069 369.69 Q141.069 378.573 143.326 383.029 Q145.612 387.456 150.126 387.456 Q154.669 387.456 156.926 383.029 Q159.212 378.573 159.212 369.69 Q159.212 360.778 156.926 356.351 Q154.669 351.895 150.126 351.895 M150.126 347.265 Q157.389 347.265 161.208 353.023 Q165.057 358.752 165.057 369.69 Q165.057 380.598 161.208 386.356 Q157.389 392.086 150.126 392.086 Q142.863 392.086 139.015 386.356 Q135.196 380.598 135.196 369.69 Q135.196 358.752 139.015 353.023 Q142.863 347.265 150.126 347.265 Z" fill="#000000" fill-rule="evenodd" fill-opacity="1" /><path clip-path="url(#clip870)" d="M175.329 383.897 L181.434 383.897 L181.434 391.246 L175.329 391.246 L175.329 383.897 Z" fill="#000000" fill-rule="evenodd" fill-opacity="1" /><path clip-path="url(#clip870)" d="M206.665 370.731 Q202.499 370.731 200.097 372.959 Q197.724 375.187 197.724 379.094 Q197.724 383 200.097 385.228 Q202.499 387.456 206.665 387.456 Q210.832 387.456 213.233 385.228 Q215.635 382.971 215.635 379.094 Q215.635 375.187 213.233 372.959 Q210.861 370.731 206.665 370.731 M200.82 368.243 Q197.059 367.317 194.946 364.742 Q192.863 362.167 192.863 358.463 Q192.863 353.284 196.538 350.274 Q200.242 347.265 206.665 347.265 Q213.118 347.265 216.792 350.274 Q220.467 353.284 220.467 358.463 Q220.467 362.167 218.355 364.742 Q216.272 367.317 212.539 368.243 Q216.764 369.227 219.107 372.091 Q221.48 374.956 221.48 379.094 Q221.48 385.373 217.632 388.729 Q213.812 392.086 206.665 392.086 Q199.518 392.086 195.67 388.729 Q191.85 385.373 191.85 379.094 Q191.85 374.956 194.223 372.091 Q196.596 369.227 200.82 368.243 M198.679 359.013 Q198.679 362.369 200.762 364.25 Q202.875 366.131 206.665 366.131 Q210.427 366.131 212.539 364.25 Q214.68 362.369 214.68 359.013 Q214.68 355.656 212.539 353.776 Q210.427 351.895 206.665 351.895 Q202.875 351.895 200.762 353.776 Q198.679 355.656 198.679 359.013 Z" fill="#000000" fill-rule="evenodd" fill-opacity="1" /><path clip-path="url(#clip870)" d="M138.523 279.977 L148.072 279.977 L148.072 247.02 L137.684 249.103 L137.684 243.779 L148.014 241.696 L153.859 241.696 L153.859 279.977 L163.407 279.977 L163.407 284.896 L138.523 284.896 L138.523 279.977 Z" fill="#000000" fill-rule="evenodd" fill-opacity="1" /><path clip-path="url(#clip870)" d="M175.213 277.546 L181.318 277.546 L181.318 284.896 L175.213 284.896 L175.213 277.546 Z" fill="#000000" fill-rule="evenodd" fill-opacity="1" /><path clip-path="url(#clip870)" d="M206.549 245.544 Q202.036 245.544 199.75 250 Q197.493 254.427 197.493 263.339 Q197.493 272.222 199.75 276.678 Q202.036 281.105 206.549 281.105 Q211.092 281.105 213.349 276.678 Q215.635 272.222 215.635 263.339 Q215.635 254.427 213.349 250 Q211.092 245.544 206.549 245.544 M206.549 240.914 Q213.812 240.914 217.632 246.672 Q221.48 252.402 221.48 263.339 Q221.48 274.248 217.632 280.006 Q213.812 285.735 206.549 285.735 Q199.287 285.735 195.438 280.006 Q191.619 274.248 191.619 263.339 Q191.619 252.402 195.438 246.672 Q199.287 240.914 206.549 240.914 Z" fill="#000000" fill-rule="evenodd" fill-opacity="1" /><path clip-path="url(#clip870)" d="M62.305 506.222 Q68.2894 506.222 74.0689 509.255 Q79.8484 512.247 83.4145 516.961 Q86.9395 521.675 86.9395 526.471 Q86.9395 529.34 85.3819 531.266 Q83.7834 533.152 81.529 534.177 Q84.3162 534.955 90.9975 536.636 Q97.6787 538.317 98.3346 538.317 Q98.7035 538.317 98.8674 538.235 Q99.0314 538.153 99.2363 537.784 Q99.4823 537.415 99.5642 536.513 Q99.6872 535.611 99.6872 534.095 Q99.6872 533.316 99.6872 533.029 Q99.7282 532.701 99.9331 532.414 Q100.138 532.086 100.589 532.086 Q102.27 532.086 102.27 533.603 Q102.27 534.955 102.147 537.743 Q102.024 540.53 102.024 541.924 Q102.024 543.112 102.147 545.49 Q102.27 547.867 102.27 548.974 Q102.27 550.08 101.286 550.08 Q100.712 550.08 100.343 549.916 Q100.015 549.794 99.8512 549.466 Q99.7282 549.138 99.6872 548.851 Q99.6872 548.605 99.6872 548.113 Q99.6872 546.227 99.3593 545.408 Q99.0724 544.588 98.4575 544.301 Q97.8837 543.973 96.2441 543.604 L58.8619 534.177 Q56.3615 533.603 54.599 533.603 Q52.3856 533.603 51.5658 534.3 Q50.746 534.996 50.746 536.226 Q50.746 538.358 53.2873 539.751 Q55.8287 541.145 60.7474 542.333 Q62.1 542.702 62.387 542.948 Q62.6739 543.153 62.6739 543.768 Q62.6329 544.793 61.8131 544.793 Q61.6082 544.793 60.2965 544.465 Q58.9439 544.137 56.9764 543.522 Q54.9679 542.866 53.6972 542.17 Q52.8365 541.76 52.2626 541.391 Q51.6888 541.022 50.787 540.284 Q49.8852 539.505 49.3934 538.398 Q48.9015 537.292 48.9015 535.939 Q48.9015 533.316 50.4591 531.143 Q52.0167 528.971 55.1728 528.397 Q52.4266 526.061 50.664 523.191 Q48.9015 520.322 48.9015 517.412 Q48.9015 512.575 52.6725 509.419 Q56.4025 506.222 62.305 506.222 M58.6159 512.288 Q54.8859 512.288 52.8365 513.723 Q50.746 515.117 50.746 517.658 Q50.746 520.814 53.9432 524.462 Q56.9764 528.069 59.8046 528.807 L76.2413 532.947 L77.594 533.193 Q77.8399 533.193 78.5777 533.07 Q79.2745 532.906 80.4222 532.455 Q81.5699 531.963 82.5947 531.307 Q83.5784 530.611 84.3162 529.381 Q85.054 528.11 85.054 526.553 Q85.054 524.052 82.8406 521.347 Q80.6272 518.601 76.4463 516.551 Q73.741 515.281 67.9205 513.805 Q62.059 512.288 58.6159 512.288 Z" fill="#000000" fill-rule="evenodd" fill-opacity="1" /><path clip-path="url(#clip870)" d="M603.828 204.509 L603.828 210.21 Q600.501 208.618 597.549 207.837 Q594.598 207.056 591.849 207.056 Q587.075 207.056 584.471 208.908 Q581.895 210.759 581.895 214.174 Q581.895 217.038 583.603 218.514 Q585.339 219.961 590.142 220.858 L593.672 221.581 Q600.211 222.825 603.307 225.979 Q606.432 229.104 606.432 234.37 Q606.432 240.649 602.208 243.89 Q598.012 247.131 589.881 247.131 Q586.814 247.131 583.342 246.436 Q579.899 245.742 576.195 244.382 L576.195 238.363 Q579.754 240.36 583.169 241.373 Q586.583 242.385 589.881 242.385 Q594.887 242.385 597.607 240.418 Q600.327 238.45 600.327 234.804 Q600.327 231.622 598.359 229.828 Q596.421 228.034 591.965 227.137 L588.406 226.442 Q581.866 225.14 578.944 222.362 Q576.022 219.585 576.022 214.637 Q576.022 208.908 580.044 205.609 Q584.094 202.31 591.184 202.31 Q594.222 202.31 597.376 202.86 Q600.53 203.41 603.828 204.509 Z" fill="#000000" fill-rule="evenodd" fill-opacity="1" /><path clip-path="url(#clip870)" d="M614.766 233.502 L614.766 213.884 L620.09 213.884 L620.09 233.3 Q620.09 237.9 621.884 240.215 Q623.678 242.501 627.266 242.501 Q631.577 242.501 634.065 239.752 Q636.583 237.003 636.583 232.258 L636.583 213.884 L641.907 213.884 L641.907 246.292 L636.583 246.292 L636.583 241.315 Q634.644 244.266 632.069 245.713 Q629.522 247.131 626.137 247.131 Q620.553 247.131 617.659 243.658 Q614.766 240.186 614.766 233.502 M628.163 213.103 L628.163 213.103 Z" fill="#000000" fill-rule="evenodd" fill-opacity="1" /><path clip-path="url(#clip870)" d="M676.137 230.117 Q676.137 224.243 673.706 220.916 Q671.305 217.559 667.08 217.559 Q662.856 217.559 660.425 220.916 Q658.023 224.243 658.023 230.117 Q658.023 235.991 660.425 239.347 Q662.856 242.675 667.08 242.675 Q671.305 242.675 673.706 239.347 Q676.137 235.991 676.137 230.117 M658.023 218.803 Q659.702 215.91 662.248 214.521 Q664.823 213.103 668.382 213.103 Q674.285 213.103 677.96 217.791 Q681.663 222.478 681.663 230.117 Q681.663 237.756 677.96 242.443 Q674.285 247.131 668.382 247.131 Q664.823 247.131 662.248 245.742 Q659.702 244.324 658.023 241.43 L658.023 246.292 L652.67 246.292 L652.67 201.269 L658.023 201.269 L658.023 218.803 Z" fill="#000000" fill-rule="evenodd" fill-opacity="1" /><path clip-path="url(#clip870)" d="M690.489 213.884 L695.813 213.884 L695.813 246.87 Q695.813 253.062 693.44 255.84 Q691.096 258.618 685.859 258.618 L683.834 258.618 L683.834 254.104 L685.251 254.104 Q688.289 254.104 689.389 252.686 Q690.489 251.297 690.489 246.87 L690.489 213.884 M690.489 201.269 L695.813 201.269 L695.813 208.011 L690.489 208.011 L690.489 201.269 Z" fill="#000000" fill-rule="evenodd" fill-opacity="1" /><path clip-path="url(#clip870)" d="M734.672 228.757 L734.672 231.361 L710.193 231.361 Q710.541 236.859 713.492 239.752 Q716.472 242.617 721.767 242.617 Q724.834 242.617 727.699 241.865 Q730.593 241.112 733.428 239.608 L733.428 244.642 Q730.564 245.858 727.554 246.494 Q724.545 247.131 721.449 247.131 Q713.694 247.131 709.152 242.617 Q704.638 238.103 704.638 230.406 Q704.638 222.449 708.92 217.791 Q713.231 213.103 720.523 213.103 Q727.062 213.103 730.853 217.328 Q734.672 221.523 734.672 228.757 M729.348 227.194 Q729.29 222.825 726.889 220.221 Q724.516 217.617 720.581 217.617 Q716.125 217.617 713.434 220.134 Q710.772 222.652 710.367 227.223 L729.348 227.194 Z" fill="#000000" fill-rule="evenodd" fill-opacity="1" /><path clip-path="url(#clip870)" d="M766.732 215.129 L766.732 220.105 Q764.475 218.861 762.19 218.254 Q759.933 217.617 757.618 217.617 Q752.438 217.617 749.574 220.916 Q746.709 224.185 746.709 230.117 Q746.709 236.049 749.574 239.347 Q752.438 242.617 757.618 242.617 Q759.933 242.617 762.19 242.009 Q764.475 241.373 766.732 240.128 L766.732 245.047 Q764.504 246.089 762.103 246.61 Q759.73 247.131 757.039 247.131 Q749.719 247.131 745.407 242.53 Q741.096 237.929 741.096 230.117 Q741.096 222.189 745.436 217.646 Q749.805 213.103 757.386 213.103 Q759.846 213.103 762.19 213.624 Q764.533 214.116 766.732 215.129 Z" fill="#000000" fill-rule="evenodd" fill-opacity="1" /><path clip-path="url(#clip870)" d="M781.258 204.683 L781.258 213.884 L792.224 213.884 L792.224 218.022 L781.258 218.022 L781.258 235.615 Q781.258 239.579 782.328 240.707 Q783.428 241.836 786.755 241.836 L792.224 241.836 L792.224 246.292 L786.755 246.292 Q780.592 246.292 778.249 244.006 Q775.905 241.691 775.905 235.615 L775.905 218.022 L771.999 218.022 L771.999 213.884 L775.905 213.884 L775.905 204.683 L781.258 204.683 Z" fill="#000000" fill-rule="evenodd" fill-opacity="1" /><path clip-path="url(#clip870)" d="M819.886 214.839 L819.886 219.874 Q817.629 218.716 815.199 218.138 Q812.768 217.559 810.164 217.559 Q806.2 217.559 804.203 218.774 Q802.236 219.99 802.236 222.42 Q802.236 224.272 803.653 225.343 Q805.071 226.384 809.354 227.339 L811.177 227.744 Q816.848 228.959 819.221 231.187 Q821.622 233.387 821.622 237.351 Q821.622 241.865 818.034 244.498 Q814.475 247.131 808.225 247.131 Q805.621 247.131 802.785 246.61 Q799.979 246.118 796.854 245.105 L796.854 239.608 Q799.805 241.141 802.67 241.922 Q805.534 242.675 808.341 242.675 Q812.102 242.675 814.128 241.402 Q816.153 240.099 816.153 237.756 Q816.153 235.586 814.678 234.428 Q813.231 233.271 808.283 232.2 L806.431 231.766 Q801.483 230.725 799.284 228.583 Q797.085 226.413 797.085 222.652 Q797.085 218.08 800.326 215.591 Q803.567 213.103 809.527 213.103 Q812.479 213.103 815.083 213.537 Q817.687 213.971 819.886 214.839 Z" fill="#000000" fill-rule="evenodd" fill-opacity="1" /><path clip-path="url(#clip873)" d="M1080.08 263.296 L991.422 263.296 L891.555 263.296 L823.444 263.296 L737.821 263.296 L674.205 263.296 L605.878 263.296 L533.418 263.296 L467.775 263.296 L326.967 263.296 L326.967 795.049 L467.775 795.049 L533.418 795.049 L605.878 795.049 L674.205 795.049 L737.821 795.049 L823.444 795.049 L891.555 795.049 L991.422 795.049 L1080.08 795.049  Z" fill="#009af9" fill-rule="evenodd" fill-opacity="1"/>
<polyline clip-path="url(#clip873)" style="stroke:#009af9; stroke-linecap:round; stroke-linejoin:round; stroke-width:20; stroke-opacity:1; fill:none" points="1080.08,263.296 991.422,263.296 891.555,263.296 823.444,263.296 737.821,263.296 674.205,263.296 605.878,263.296 533.418,263.296 467.775,263.296 326.967,263.296 "/>
<path clip-path="url(#clip873)" d="M1080.08 272.602 L991.422 295.16 L891.555 312.794 L823.444 336.53 L737.821 353.233 L674.205 366.597 L605.878 370.756 L533.418 374.754 L467.775 378.601 L326.967 381.022 L326.967 795.049 L467.775 795.049 L533.418 795.049 L605.878 795.049 L674.205 795.049 L737.821 795.049 L823.444 795.049 L891.555 795.049 L991.422 795.049 L1080.08 795.049  Z" fill="#e26f46" fill-rule="evenodd" fill-opacity="1"/>
<polyline clip-path="url(#clip873)" style="stroke:#e26f46; stroke-linecap:round; stroke-linejoin:round; stroke-width:20; stroke-opacity:1; fill:none" points="1080.08,272.602 991.422,295.16 891.555,312.794 823.444,336.53 737.821,353.233 674.205,366.597 605.878,370.756 533.418,374.754 467.775,378.601 326.967,381.022 "/>
<path clip-path="url(#clip873)" d="M1080.08 319.876 L991.422 384.444 L891.555 435.92 L823.444 455.66 L737.821 477.605 L674.205 519.164 L605.878 523.204 L533.418 547.35 L467.775 569.079 L326.967 571.289 L326.967 795.049 L467.775 795.049 L533.418 795.049 L605.878 795.049 L674.205 795.049 L737.821 795.049 L823.444 795.049 L891.555 795.049 L991.422 795.049 L1080.08 795.049  Z" fill="#3da44d" fill-rule="evenodd" fill-opacity="1"/>
<polyline clip-path="url(#clip873)" style="stroke:#3da44d; stroke-linecap:round; stroke-linejoin:round; stroke-width:20; stroke-opacity:1; fill:none" points="1080.08,319.876 991.422,384.444 891.555,435.92 823.444,455.66 737.821,477.605 674.205,519.164 605.878,523.204 533.418,547.35 467.775,569.079 326.967,571.289 "/>
<path clip-path="url(#clip870)" d="M1203.15 795.049 L2022.84 795.049 L2022.84 263.296 L1203.15 263.296  Z" fill="#ffffff" fill-rule="evenodd" fill-opacity="1"/>
<defs>
  <clipPath id="clip874">
    <rect x="1203" y="263" width="821" height="533"/>
  </clipPath>
</defs>
<polyline clip-path="url(#clip870)" style="stroke:#000000; stroke-linecap:round; stroke-linejoin:round; stroke-width:4; stroke-opacity:1; fill:none" points="2022.84,795.049 1203.15,795.049 "/>
<polyline clip-path="url(#clip870)" style="stroke:#000000; stroke-linecap:round; stroke-linejoin:round; stroke-width:4; stroke-opacity:1; fill:none" points="2022.84,795.049 2022.84,813.947 "/>
<polyline clip-path="url(#clip870)" style="stroke:#000000; stroke-linecap:round; stroke-linejoin:round; stroke-width:4; stroke-opacity:1; fill:none" points="1749.61,795.049 1749.61,813.947 "/>
<polyline clip-path="url(#clip870)" style="stroke:#000000; stroke-linecap:round; stroke-linejoin:round; stroke-width:4; stroke-opacity:1; fill:none" points="1476.38,795.049 1476.38,813.947 "/>
<polyline clip-path="url(#clip870)" style="stroke:#000000; stroke-linecap:round; stroke-linejoin:round; stroke-width:4; stroke-opacity:1; fill:none" points="1203.15,795.049 1203.15,813.947 "/>
<path clip-path="url(#clip870)" d="M2022.84 845.698 Q2018.32 845.698 2016.04 850.154 Q2013.78 854.581 2013.78 863.493 Q2013.78 872.376 2016.04 876.832 Q2018.32 881.259 2022.84 881.259 Q2027.38 881.259 2029.64 876.832 Q2031.92 872.376 2031.92 863.493 Q2031.92 854.581 2029.64 850.154 Q2027.38 845.698 2022.84 845.698 M2022.84 841.068 Q2030.1 841.068 2033.92 846.826 Q2037.77 852.555 2037.77 863.493 Q2037.77 874.401 2033.92 880.159 Q2030.1 885.888 2022.84 885.888 Q2015.57 885.888 2011.72 880.159 Q2007.91 874.401 2007.91 863.493 Q2007.91 852.555 2011.72 846.826 Q2015.57 841.068 2022.84 841.068 Z" fill="#000000" fill-rule="evenodd" fill-opacity="1" /><path clip-path="url(#clip870)" d="M1737.46 841.849 L1760.4 841.849 L1760.4 846.768 L1742.81 846.768 L1742.81 857.359 Q1744.08 856.925 1745.35 856.722 Q1746.63 856.49 1747.9 856.49 Q1755.13 856.49 1759.36 860.455 Q1763.58 864.419 1763.58 871.189 Q1763.58 878.163 1759.24 882.04 Q1754.9 885.888 1747 885.888 Q1744.28 885.888 1741.45 885.426 Q1738.64 884.963 1735.63 884.037 L1735.63 878.163 Q1738.24 879.581 1741.01 880.275 Q1743.79 880.97 1746.89 880.97 Q1751.89 880.97 1754.82 878.336 Q1757.74 875.703 1757.74 871.189 Q1757.74 866.676 1754.82 864.043 Q1751.89 861.409 1746.89 861.409 Q1744.54 861.409 1742.2 861.93 Q1739.89 862.451 1737.46 863.551 L1737.46 841.849 Z" fill="#000000" fill-rule="evenodd" fill-opacity="1" /><path clip-path="url(#clip870)" d="M1444.74 880.13 L1454.29 880.13 L1454.29 847.173 L1443.9 849.257 L1443.9 843.933 L1454.23 841.849 L1460.08 841.849 L1460.08 880.13 L1469.62 880.13 L1469.62 885.049 L1444.74 885.049 L1444.74 880.13 Z" fill="#000000" fill-rule="evenodd" fill-opacity="1" /><path clip-path="url(#clip870)" d="M1493.93 845.698 Q1489.42 845.698 1487.13 850.154 Q1484.87 854.581 1484.87 863.493 Q1484.87 872.376 1487.13 876.832 Q1489.42 881.259 1493.93 881.259 Q1498.47 881.259 1500.73 876.832 Q1503.01 872.376 1503.01 863.493 Q1503.01 854.581 1500.73 850.154 Q1498.47 845.698 1493.93 845.698 M1493.93 841.068 Q1501.19 841.068 1505.01 846.826 Q1508.86 852.555 1508.86 863.493 Q1508.86 874.401 1505.01 880.159 Q1501.19 885.888 1493.93 885.888 Q1486.67 885.888 1482.82 880.159 Q1479 874.401 1479 863.493 Q1479 852.555 1482.82 846.826 Q1486.67 841.068 1493.93 841.068 Z" fill="#000000" fill-rule="evenodd" fill-opacity="1" /><path clip-path="url(#clip870)" d="M1172.13 880.13 L1181.68 880.13 L1181.68 847.173 L1171.29 849.257 L1171.29 843.933 L1181.62 841.849 L1187.47 841.849 L1187.47 880.13 L1197.02 880.13 L1197.02 885.049 L1172.13 885.049 L1172.13 880.13 Z" fill="#000000" fill-rule="evenodd" fill-opacity="1" /><path clip-path="url(#clip870)" d="M1208.88 841.849 L1231.83 841.849 L1231.83 846.768 L1214.23 846.768 L1214.23 857.359 Q1215.51 856.925 1216.78 856.722 Q1218.05 856.49 1219.33 856.49 Q1226.56 856.49 1230.78 860.455 Q1235.01 864.419 1235.01 871.189 Q1235.01 878.163 1230.67 882.04 Q1226.33 885.888 1218.43 885.888 Q1215.71 885.888 1212.87 885.426 Q1210.07 884.963 1207.06 884.037 L1207.06 878.163 Q1209.66 879.581 1212.44 880.275 Q1215.22 880.97 1218.31 880.97 Q1223.32 880.97 1226.24 878.336 Q1229.16 875.703 1229.16 871.189 Q1229.16 866.676 1226.24 864.043 Q1223.32 861.409 1218.31 861.409 Q1215.97 861.409 1213.63 861.93 Q1211.31 862.451 1208.88 863.551 L1208.88 841.849 Z" fill="#000000" fill-rule="evenodd" fill-opacity="1" /><path clip-path="url(#clip870)" d="M1570.15 895.715 L1558.06 944.246 Q1557.57 946.419 1557.57 948.263 Q1557.57 952.116 1560.07 952.116 Q1561.3 952.116 1562.28 951.338 Q1563.27 950.559 1564.05 948.919 Q1564.83 947.28 1565.32 945.763 Q1565.81 944.205 1566.46 941.746 Q1566.67 940.762 1566.83 940.516 Q1567.04 940.23 1567.61 940.23 Q1568.64 940.23 1568.64 941.049 Q1567.53 946.337 1566.1 949.37 Q1563.8 954.002 1559.91 954.002 Q1556.96 954.002 1554.86 952.198 Q1552.77 950.395 1552.28 947.69 Q1546.91 954.002 1541.34 954.002 Q1536.42 954.002 1533.3 950.272 Q1530.19 946.501 1530.19 940.557 Q1530.19 934.573 1533.14 928.834 Q1536.13 923.096 1540.85 919.53 Q1545.56 915.964 1550.4 915.964 Q1555.52 915.964 1558.14 921.333 L1563.19 901.413 L1563.43 899.773 Q1563.43 899.281 1563.23 899.035 Q1563.06 898.748 1562.08 898.543 Q1561.14 898.338 1559.25 898.338 Q1558.47 898.338 1558.1 898.297 Q1557.77 898.256 1557.49 898.052 Q1557.2 897.806 1557.2 897.314 Q1557.2 895.879 1558.39 895.715 Q1566.26 894.813 1569.05 894.813 Q1569.54 894.813 1569.83 895.059 Q1570.11 895.264 1570.11 895.51 L1570.15 895.715 M1557.12 925.186 Q1557.12 924.818 1556.83 923.793 Q1556.55 922.768 1555.89 921.333 Q1555.23 919.899 1553.8 918.874 Q1552.41 917.808 1550.52 917.808 Q1547.98 917.808 1545.31 919.981 Q1542.69 922.153 1540.76 925.842 Q1539.29 928.794 1537.69 934.983 Q1536.13 941.172 1536.13 944.246 Q1536.13 946.132 1536.54 947.813 Q1536.99 949.452 1538.26 950.805 Q1539.53 952.116 1541.5 952.116 Q1546.3 952.116 1551.01 946.173 Q1551.91 945.148 1552.12 944.738 Q1552.36 944.287 1552.69 943.058 L1556.87 926.621 Q1557.12 925.391 1557.12 925.186 Z" fill="#000000" fill-rule="evenodd" fill-opacity="1" /><path clip-path="url(#clip870)" d="M1578.72 982.877 Q1578.72 980.983 1580.15 979.348 Q1581.62 977.712 1584.14 976.995 Q1581.56 975.359 1581.56 971.773 Q1581.56 969.018 1583.37 966.895 Q1580.61 964.6 1580.61 960.841 Q1580.61 957.369 1583.37 954.816 Q1586.12 952.262 1590.14 952.262 Q1593.67 952.262 1596.37 954.385 Q1599.18 951.631 1602.59 951.602 Q1604.11 951.602 1604.83 952.549 Q1605.58 953.496 1605.58 954.5 Q1605.58 955.389 1605 955.82 Q1604.46 956.25 1603.88 956.25 Q1603.17 956.25 1602.65 955.791 Q1602.16 955.303 1602.16 954.557 Q1602.16 953.324 1603.11 952.951 Q1602.94 952.893 1602.53 952.893 Q1599.67 952.893 1597.23 955.189 Q1599.64 957.427 1599.64 960.898 Q1599.64 964.37 1596.88 966.924 Q1594.13 969.477 1590.14 969.477 Q1586.84 969.477 1584.31 967.641 Q1583.31 968.818 1583.31 970.424 Q1583.31 971.888 1584.2 973.035 Q1585.09 974.183 1586.44 974.355 Q1586.84 974.413 1590.83 974.413 Q1593.18 974.413 1594.47 974.47 Q1595.76 974.527 1597.6 974.929 Q1599.46 975.302 1600.93 976.048 Q1604.74 978.171 1604.77 982.762 Q1604.77 986.119 1600.9 988.214 Q1597.05 990.337 1591.72 990.337 Q1586.32 990.337 1582.51 988.185 Q1578.72 986.062 1578.72 982.877 M1581.79 982.877 Q1581.79 985.287 1584.63 987.123 Q1587.47 988.988 1591.77 988.988 Q1595.99 988.988 1598.83 987.152 Q1601.7 985.344 1601.7 982.877 Q1601.7 981.127 1600.7 980.008 Q1599.69 978.889 1597.63 978.43 Q1595.59 977.999 1594.16 977.913 Q1592.72 977.827 1590.08 977.827 L1586.61 977.827 Q1584.6 977.942 1583.2 979.405 Q1581.79 980.868 1581.79 982.877 M1585 960.898 Q1585 968.129 1590.14 968.129 Q1592.72 968.129 1594.3 965.776 Q1595.25 964.198 1595.25 960.841 Q1595.25 953.611 1590.14 953.611 Q1587.56 953.611 1585.95 955.963 Q1585 957.541 1585 960.898 Z" fill="#000000" fill-rule="evenodd" fill-opacity="1" /><path clip-path="url(#clip870)" d="M1616.63 975.073 Q1612.76 971.228 1612.76 965.661 Q1612.76 960.066 1616.55 955.992 Q1620.36 951.889 1625.81 951.889 Q1631.15 951.889 1634.97 955.963 Q1638.81 960.009 1638.81 965.661 Q1638.81 971.199 1634.94 975.044 Q1631.09 978.889 1625.76 978.889 Q1620.53 978.889 1616.63 975.073 M1617.64 965.174 Q1617.64 970.883 1619.13 973.466 Q1621.42 977.397 1625.81 977.397 Q1628 977.397 1629.8 976.22 Q1631.64 975.044 1632.64 973.064 Q1633.93 970.482 1633.93 965.174 Q1633.93 959.521 1632.38 957.025 Q1630.09 953.209 1625.76 953.209 Q1623.86 953.209 1622 954.213 Q1620.16 955.189 1619.04 957.14 Q1617.64 959.722 1617.64 965.174 Z" fill="#000000" fill-rule="evenodd" fill-opacity="1" /><path clip-path="url(#clip870)" d="M1641.86 972.634 Q1641.86 967.641 1647.74 965.001 Q1651.27 963.309 1658.56 962.878 L1658.56 960.726 Q1658.56 957.082 1656.64 955.16 Q1654.74 953.209 1652.33 953.209 Q1648.03 953.209 1645.96 955.906 Q1647.71 955.963 1648.34 956.853 Q1648.98 957.714 1648.98 958.603 Q1648.98 959.779 1648.23 960.554 Q1647.51 961.3 1646.28 961.3 Q1645.1 961.3 1644.33 960.583 Q1643.55 959.837 1643.55 958.546 Q1643.55 955.676 1646.14 953.783 Q1648.75 951.889 1652.45 951.889 Q1657.27 951.889 1660.48 955.131 Q1661.49 956.135 1661.97 957.427 Q1662.49 958.718 1662.55 959.579 Q1662.6 960.411 1662.6 962.075 L1662.6 973.81 Q1662.6 974.154 1662.72 974.728 Q1662.83 975.302 1663.35 976.048 Q1663.9 976.765 1664.79 976.765 Q1666.91 976.765 1666.88 973.007 L1666.88 969.707 L1668.37 969.707 L1668.37 973.007 Q1668.37 976.134 1666.71 977.368 Q1665.07 978.573 1663.55 978.573 Q1661.6 978.573 1660.37 977.138 Q1659.13 975.704 1658.96 973.753 Q1658.07 975.991 1656.03 977.454 Q1654.03 978.889 1651.27 978.889 Q1649.15 978.889 1647.14 978.343 Q1645.16 977.827 1643.5 976.364 Q1641.86 974.872 1641.86 972.634 M1646.39 972.576 Q1646.39 974.757 1647.94 976.163 Q1649.49 977.569 1651.67 977.569 Q1654.14 977.569 1656.35 975.675 Q1658.56 973.753 1658.56 969.994 L1658.56 964.112 Q1652.05 964.342 1649.21 966.953 Q1646.39 969.535 1646.39 972.576 Z" fill="#000000" fill-rule="evenodd" fill-opacity="1" /><path clip-path="url(#clip870)" d="M1670.73 978.229 L1670.73 976.421 Q1673.85 976.421 1674.57 976.048 Q1675.29 975.646 1675.29 973.753 L1675.29 943.195 Q1675.29 941.015 1674.51 940.469 Q1673.77 939.924 1670.73 939.924 L1670.73 938.088 L1679.16 937.457 L1679.16 973.753 Q1679.16 975.646 1679.91 976.048 Q1680.65 976.421 1683.75 976.421 L1683.75 978.229 Q1683.03 978.229 1681.54 978.171 Q1680.05 978.114 1678.96 978.085 Q1677.87 978.057 1677.24 978.057 Q1676.55 978.057 1670.73 978.229 Z" fill="#000000" fill-rule="evenodd" fill-opacity="1" /><polyline clip-path="url(#clip870)" style="stroke:#000000; stroke-linecap:round; stroke-linejoin:round; stroke-width:4; stroke-opacity:1; fill:none" points="1203.15,795.049 1203.15,263.296 "/>
<path clip-path="url(#clip870)" d="M1414.98 208.85 L1407.05 230.348 L1422.93 230.348 L1414.98 208.85 M1411.68 203.092 L1418.3 203.092 L1434.77 246.292 L1428.69 246.292 L1424.76 235.209 L1405.28 235.209 L1401.35 246.292 L1395.19 246.292 L1411.68 203.092 Z" fill="#000000" fill-rule="evenodd" fill-opacity="1" /><path clip-path="url(#clip870)" d="M1441.08 203.092 L1448.95 203.092 L1468.1 239.231 L1468.1 203.092 L1473.77 203.092 L1473.77 246.292 L1465.9 246.292 L1446.75 210.152 L1446.75 246.292 L1441.08 246.292 L1441.08 203.092 Z" fill="#000000" fill-rule="evenodd" fill-opacity="1" /><path clip-path="url(#clip870)" d="M1491.25 207.895 L1491.25 241.488 L1498.31 241.488 Q1507.25 241.488 1511.39 237.437 Q1515.56 233.387 1515.56 224.648 Q1515.56 215.968 1511.39 211.946 Q1507.25 207.895 1498.31 207.895 L1491.25 207.895 M1485.4 203.092 L1497.41 203.092 Q1509.97 203.092 1515.84 208.329 Q1521.72 213.537 1521.72 224.648 Q1521.72 235.817 1515.82 241.054 Q1509.91 246.292 1497.41 246.292 L1485.4 246.292 L1485.4 203.092 Z" fill="#000000" fill-rule="evenodd" fill-opacity="1" /><path clip-path="url(#clip870)" d="M1540.27 203.092 L1545.18 203.092 L1530.14 251.789 L1525.22 251.789 L1540.27 203.092 Z" fill="#000000" fill-rule="evenodd" fill-opacity="1" /><path clip-path="url(#clip870)" d="M1568.54 207.056 Q1562.17 207.056 1558.41 211.801 Q1554.68 216.546 1554.68 224.735 Q1554.68 232.895 1558.41 237.64 Q1562.17 242.385 1568.54 242.385 Q1574.9 242.385 1578.6 237.64 Q1582.34 232.895 1582.34 224.735 Q1582.34 216.546 1578.6 211.801 Q1574.9 207.056 1568.54 207.056 M1568.54 202.31 Q1577.62 202.31 1583.06 208.416 Q1588.5 214.492 1588.5 224.735 Q1588.5 234.949 1583.06 241.054 Q1577.62 247.131 1568.54 247.131 Q1559.42 247.131 1553.95 241.054 Q1548.51 234.978 1548.51 224.735 Q1548.51 214.492 1553.95 208.416 Q1559.42 202.31 1568.54 202.31 Z" fill="#000000" fill-rule="evenodd" fill-opacity="1" /><path clip-path="url(#clip870)" d="M1618.13 226.037 Q1620.01 226.674 1621.78 228.757 Q1623.57 230.84 1625.36 234.486 L1631.3 246.292 L1625.02 246.292 L1619.49 235.209 Q1617.35 230.869 1615.32 229.451 Q1613.33 228.034 1609.85 228.034 L1603.49 228.034 L1603.49 246.292 L1597.64 246.292 L1597.64 203.092 L1610.84 203.092 Q1618.25 203.092 1621.89 206.188 Q1625.54 209.284 1625.54 215.534 Q1625.54 219.613 1623.63 222.304 Q1621.75 224.995 1618.13 226.037 M1603.49 207.895 L1603.49 223.23 L1610.84 223.23 Q1615.06 223.23 1617.2 221.292 Q1619.37 219.324 1619.37 215.534 Q1619.37 211.743 1617.2 209.833 Q1615.06 207.895 1610.84 207.895 L1603.49 207.895 Z" fill="#000000" fill-rule="evenodd" fill-opacity="1" /><path clip-path="url(#clip870)" d="M1682.65 220.105 Q1684.65 216.517 1687.43 214.81 Q1690.21 213.103 1693.97 213.103 Q1699.03 213.103 1701.78 216.662 Q1704.53 220.192 1704.53 226.731 L1704.53 246.292 L1699.18 246.292 L1699.18 226.905 Q1699.18 222.247 1697.53 219.99 Q1695.88 217.733 1692.49 217.733 Q1688.36 217.733 1685.95 220.482 Q1683.55 223.23 1683.55 227.976 L1683.55 246.292 L1678.2 246.292 L1678.2 226.905 Q1678.2 222.218 1676.55 219.99 Q1674.9 217.733 1671.46 217.733 Q1667.38 217.733 1664.98 220.51 Q1662.57 223.259 1662.57 227.976 L1662.57 246.292 L1657.22 246.292 L1657.22 213.884 L1662.57 213.884 L1662.57 218.919 Q1664.4 215.939 1666.94 214.521 Q1669.49 213.103 1672.99 213.103 Q1676.52 213.103 1678.98 214.897 Q1681.47 216.691 1682.65 220.105 Z" fill="#000000" fill-rule="evenodd" fill-opacity="1" /><path clip-path="url(#clip870)" d="M1727.71 217.617 Q1723.42 217.617 1720.94 220.973 Q1718.45 224.301 1718.45 230.117 Q1718.45 235.933 1720.91 239.289 Q1723.4 242.617 1727.71 242.617 Q1731.96 242.617 1734.45 239.26 Q1736.94 235.904 1736.94 230.117 Q1736.94 224.359 1734.45 221.002 Q1731.96 217.617 1727.71 217.617 M1727.71 213.103 Q1734.65 213.103 1738.62 217.617 Q1742.58 222.131 1742.58 230.117 Q1742.58 238.074 1738.62 242.617 Q1734.65 247.131 1727.71 247.131 Q1720.73 247.131 1716.77 242.617 Q1712.83 238.074 1712.83 230.117 Q1712.83 222.131 1716.77 217.617 Q1720.73 213.103 1727.71 213.103 Z" fill="#000000" fill-rule="evenodd" fill-opacity="1" /><path clip-path="url(#clip870)" d="M1772.73 218.803 L1772.73 201.269 L1778.05 201.269 L1778.05 246.292 L1772.73 246.292 L1772.73 241.43 Q1771.05 244.324 1768.48 245.742 Q1765.93 247.131 1762.34 247.131 Q1756.47 247.131 1752.76 242.443 Q1749.09 237.756 1749.09 230.117 Q1749.09 222.478 1752.76 217.791 Q1756.47 213.103 1762.34 213.103 Q1765.93 213.103 1768.48 214.521 Q1771.05 215.91 1772.73 218.803 M1754.59 230.117 Q1754.59 235.991 1756.99 239.347 Q1759.42 242.675 1763.64 242.675 Q1767.87 242.675 1770.3 239.347 Q1772.73 235.991 1772.73 230.117 Q1772.73 224.243 1770.3 220.916 Q1767.87 217.559 1763.64 217.559 Q1759.42 217.559 1756.99 220.916 Q1754.59 224.243 1754.59 230.117 Z" fill="#000000" fill-rule="evenodd" fill-opacity="1" /><path clip-path="url(#clip870)" d="M1816.74 228.757 L1816.74 231.361 L1792.26 231.361 Q1792.61 236.859 1795.56 239.752 Q1798.54 242.617 1803.83 242.617 Q1806.9 242.617 1809.77 241.865 Q1812.66 241.112 1815.5 239.608 L1815.5 244.642 Q1812.63 245.858 1809.62 246.494 Q1806.61 247.131 1803.52 247.131 Q1795.76 247.131 1791.22 242.617 Q1786.71 238.103 1786.71 230.406 Q1786.71 222.449 1790.99 217.791 Q1795.3 213.103 1802.59 213.103 Q1809.13 213.103 1812.92 217.328 Q1816.74 221.523 1816.74 228.757 M1811.42 227.194 Q1811.36 222.825 1808.96 220.221 Q1806.58 217.617 1802.65 217.617 Q1798.19 217.617 1795.5 220.134 Q1792.84 222.652 1792.43 227.223 L1811.42 227.194 Z" fill="#000000" fill-rule="evenodd" fill-opacity="1" /><path clip-path="url(#clip870)" d="M1825.48 201.269 L1830.8 201.269 L1830.8 246.292 L1825.48 246.292 L1825.48 201.269 Z" fill="#000000" fill-rule="evenodd" fill-opacity="1" /><path clip-path="url(#clip874)" d="M1994.25 263.296 L1905.59 263.296 L1805.73 263.296 L1737.62 263.296 L1651.99 263.296 L1588.38 263.296 L1520.05 263.296 L1447.59 263.296 L1381.95 263.296 L1241.14 263.296 L1241.14 795.049 L1381.95 795.049 L1447.59 795.049 L1520.05 795.049 L1588.38 795.049 L1651.99 795.049 L1737.62 795.049 L1805.73 795.049 L1905.59 795.049 L1994.25 795.049  Z" fill="#009af9" fill-rule="evenodd" fill-opacity="1"/>
<polyline clip-path="url(#clip874)" style="stroke:#009af9; stroke-linecap:round; stroke-linejoin:round; stroke-width:20; stroke-opacity:1; fill:none" points="1994.25,263.296 1905.59,263.296 1805.73,263.296 1737.62,263.296 1651.99,263.296 1588.38,263.296 1520.05,263.296 1447.59,263.296 1381.95,263.296 1241.14,263.296 "/>
<path clip-path="url(#clip874)" d="M1994.25 308.955 L1905.59 340.941 L1805.73 374.194 L1737.62 391.124 L1651.99 407.282 L1588.38 402.786 L1520.05 406.765 L1447.59 418.274 L1381.95 398.461 L1241.14 388.262 L1241.14 795.049 L1381.95 795.049 L1447.59 795.049 L1520.05 795.049 L1588.38 795.049 L1651.99 795.049 L1737.62 795.049 L1805.73 795.049 L1905.59 795.049 L1994.25 795.049  Z" fill="#e26f46" fill-rule="evenodd" fill-opacity="1"/>
<polyline clip-path="url(#clip874)" style="stroke:#e26f46; stroke-linecap:round; stroke-linejoin:round; stroke-width:20; stroke-opacity:1; fill:none" points="1994.25,308.955 1905.59,340.941 1805.73,374.194 1737.62,391.124 1651.99,407.282 1588.38,402.786 1520.05,406.765 1447.59,418.274 1381.95,398.461 1241.14,388.262 "/>
<path clip-path="url(#clip874)" d="M1994.25 388.747 L1905.59 459.695 L1805.73 544.313 L1737.62 550.466 L1651.99 582.247 L1588.38 587.306 L1520.05 589.779 L1447.59 592.735 L1381.95 591.98 L1241.14 585.326 L1241.14 795.049 L1381.95 795.049 L1447.59 795.049 L1520.05 795.049 L1588.38 795.049 L1651.99 795.049 L1737.62 795.049 L1805.73 795.049 L1905.59 795.049 L1994.25 795.049  Z" fill="#3da44d" fill-rule="evenodd" fill-opacity="1"/>
<polyline clip-path="url(#clip874)" style="stroke:#3da44d; stroke-linecap:round; stroke-linejoin:round; stroke-width:20; stroke-opacity:1; fill:none" points="1994.25,388.747 1905.59,459.695 1805.73,544.313 1737.62,550.466 1651.99,582.247 1588.38,587.306 1520.05,589.779 1447.59,592.735 1381.95,591.98 1241.14,585.326 "/>
<path clip-path="url(#clip870)" d="M2117.32 795.049 L2937.01 795.049 L2937.01 263.296 L2117.32 263.296  Z" fill="#ffffff" fill-rule="evenodd" fill-opacity="1"/>
<defs>
  <clipPath id="clip875">
    <rect x="2117" y="263" width="821" height="533"/>
  </clipPath>
</defs>
<polyline clip-path="url(#clip870)" style="stroke:#000000; stroke-linecap:round; stroke-linejoin:round; stroke-width:4; stroke-opacity:1; fill:none" points="2937.01,795.049 2117.32,795.049 "/>
<polyline clip-path="url(#clip870)" style="stroke:#000000; stroke-linecap:round; stroke-linejoin:round; stroke-width:4; stroke-opacity:1; fill:none" points="2937.01,795.049 2937.01,813.947 "/>
<polyline clip-path="url(#clip870)" style="stroke:#000000; stroke-linecap:round; stroke-linejoin:round; stroke-width:4; stroke-opacity:1; fill:none" points="2663.78,795.049 2663.78,813.947 "/>
<polyline clip-path="url(#clip870)" style="stroke:#000000; stroke-linecap:round; stroke-linejoin:round; stroke-width:4; stroke-opacity:1; fill:none" points="2390.55,795.049 2390.55,813.947 "/>
<polyline clip-path="url(#clip870)" style="stroke:#000000; stroke-linecap:round; stroke-linejoin:round; stroke-width:4; stroke-opacity:1; fill:none" points="2117.32,795.049 2117.32,813.947 "/>
<path clip-path="url(#clip870)" d="M2937.01 845.698 Q2932.49 845.698 2930.21 850.154 Q2927.95 854.581 2927.95 863.493 Q2927.95 872.376 2930.21 876.832 Q2932.49 881.259 2937.01 881.259 Q2941.55 881.259 2943.81 876.832 Q2946.09 872.376 2946.09 863.493 Q2946.09 854.581 2943.81 850.154 Q2941.55 845.698 2937.01 845.698 M2937.01 841.068 Q2944.27 841.068 2948.09 846.826 Q2951.94 852.555 2951.94 863.493 Q2951.94 874.401 2948.09 880.159 Q2944.27 885.888 2937.01 885.888 Q2929.75 885.888 2925.9 880.159 Q2922.08 874.401 2922.08 863.493 Q2922.08 852.555 2925.9 846.826 Q2929.75 841.068 2937.01 841.068 Z" fill="#000000" fill-rule="evenodd" fill-opacity="1" /><path clip-path="url(#clip870)" d="M2651.63 841.849 L2674.57 841.849 L2674.57 846.768 L2656.98 846.768 L2656.98 857.359 Q2658.25 856.925 2659.53 856.722 Q2660.8 856.49 2662.07 856.49 Q2669.31 856.49 2673.53 860.455 Q2677.76 864.419 2677.76 871.189 Q2677.76 878.163 2673.42 882.04 Q2669.08 885.888 2661.18 885.888 Q2658.46 885.888 2655.62 885.426 Q2652.81 884.963 2649.8 884.037 L2649.8 878.163 Q2652.41 879.581 2655.19 880.275 Q2657.96 880.97 2661.06 880.97 Q2666.07 880.97 2668.99 878.336 Q2671.91 875.703 2671.91 871.189 Q2671.91 866.676 2668.99 864.043 Q2666.07 861.409 2661.06 861.409 Q2658.72 861.409 2656.37 861.93 Q2654.06 862.451 2651.63 863.551 L2651.63 841.849 Z" fill="#000000" fill-rule="evenodd" fill-opacity="1" /><path clip-path="url(#clip870)" d="M2358.91 880.13 L2368.46 880.13 L2368.46 847.173 L2358.07 849.257 L2358.07 843.933 L2368.4 841.849 L2374.25 841.849 L2374.25 880.13 L2383.8 880.13 L2383.8 885.049 L2358.91 885.049 L2358.91 880.13 Z" fill="#000000" fill-rule="evenodd" fill-opacity="1" /><path clip-path="url(#clip870)" d="M2408.1 845.698 Q2403.59 845.698 2401.3 850.154 Q2399.04 854.581 2399.04 863.493 Q2399.04 872.376 2401.3 876.832 Q2403.59 881.259 2408.1 881.259 Q2412.64 881.259 2414.9 876.832 Q2417.19 872.376 2417.19 863.493 Q2417.19 854.581 2414.9 850.154 Q2412.64 845.698 2408.1 845.698 M2408.1 841.068 Q2415.36 841.068 2419.18 846.826 Q2423.03 852.555 2423.03 863.493 Q2423.03 874.401 2419.18 880.159 Q2415.36 885.888 2408.1 885.888 Q2400.84 885.888 2396.99 880.159 Q2393.17 874.401 2393.17 863.493 Q2393.17 852.555 2396.99 846.826 Q2400.84 841.068 2408.1 841.068 Z" fill="#000000" fill-rule="evenodd" fill-opacity="1" /><path clip-path="url(#clip870)" d="M2086.31 880.13 L2095.85 880.13 L2095.85 847.173 L2085.47 849.257 L2085.47 843.933 L2095.8 841.849 L2101.64 841.849 L2101.64 880.13 L2111.19 880.13 L2111.19 885.049 L2086.31 885.049 L2086.31 880.13 Z" fill="#000000" fill-rule="evenodd" fill-opacity="1" /><path clip-path="url(#clip870)" d="M2123.05 841.849 L2146 841.849 L2146 846.768 L2128.41 846.768 L2128.41 857.359 Q2129.68 856.925 2130.95 856.722 Q2132.23 856.49 2133.5 856.49 Q2140.73 856.49 2144.96 860.455 Q2149.18 864.419 2149.18 871.189 Q2149.18 878.163 2144.84 882.04 Q2140.5 885.888 2132.6 885.888 Q2129.88 885.888 2127.05 885.426 Q2124.24 884.963 2121.23 884.037 L2121.23 878.163 Q2123.83 879.581 2126.61 880.275 Q2129.39 880.97 2132.49 880.97 Q2137.49 880.97 2140.41 878.336 Q2143.34 875.703 2143.34 871.189 Q2143.34 866.676 2140.41 864.043 Q2137.49 861.409 2132.49 861.409 Q2130.14 861.409 2127.8 861.93 Q2125.48 862.451 2123.05 863.551 L2123.05 841.849 Z" fill="#000000" fill-rule="evenodd" fill-opacity="1" /><path clip-path="url(#clip870)" d="M2484.33 895.715 L2472.23 944.246 Q2471.74 946.419 2471.74 948.263 Q2471.74 952.116 2474.24 952.116 Q2475.47 952.116 2476.46 951.338 Q2477.44 950.559 2478.22 948.919 Q2479 947.28 2479.49 945.763 Q2479.98 944.205 2480.64 941.746 Q2480.84 940.762 2481.01 940.516 Q2481.21 940.23 2481.78 940.23 Q2482.81 940.23 2482.81 941.049 Q2481.7 946.337 2480.27 949.37 Q2477.97 954.002 2474.08 954.002 Q2471.13 954.002 2469.04 952.198 Q2466.95 950.395 2466.45 947.69 Q2461.08 954.002 2455.51 954.002 Q2450.59 954.002 2447.48 950.272 Q2444.36 946.501 2444.36 940.557 Q2444.36 934.573 2447.31 928.834 Q2450.3 923.096 2455.02 919.53 Q2459.73 915.964 2464.57 915.964 Q2469.69 915.964 2472.32 921.333 L2477.36 901.413 L2477.6 899.773 Q2477.6 899.281 2477.4 899.035 Q2477.23 898.748 2476.25 898.543 Q2475.31 898.338 2473.42 898.338 Q2472.64 898.338 2472.27 898.297 Q2471.95 898.256 2471.66 898.052 Q2471.37 897.806 2471.37 897.314 Q2471.37 895.879 2472.56 895.715 Q2480.43 894.813 2483.22 894.813 Q2483.71 894.813 2484 895.059 Q2484.28 895.264 2484.28 895.51 L2484.33 895.715 M2471.29 925.186 Q2471.29 924.818 2471 923.793 Q2470.72 922.768 2470.06 921.333 Q2469.41 919.899 2467.97 918.874 Q2466.58 917.808 2464.69 917.808 Q2462.15 917.808 2459.49 919.981 Q2456.86 922.153 2454.94 925.842 Q2453.46 928.794 2451.86 934.983 Q2450.3 941.172 2450.3 944.246 Q2450.3 946.132 2450.71 947.813 Q2451.17 949.452 2452.44 950.805 Q2453.71 952.116 2455.67 952.116 Q2460.47 952.116 2465.18 946.173 Q2466.09 945.148 2466.29 944.738 Q2466.54 944.287 2466.86 943.058 L2471.05 926.621 Q2471.29 925.391 2471.29 925.186 Z" fill="#000000" fill-rule="evenodd" fill-opacity="1" /><path clip-path="url(#clip870)" d="M2492.89 982.877 Q2492.89 980.983 2494.33 979.348 Q2495.79 977.712 2498.31 976.995 Q2495.73 975.359 2495.73 971.773 Q2495.73 969.018 2497.54 966.895 Q2494.79 964.6 2494.79 960.841 Q2494.79 957.369 2497.54 954.816 Q2500.29 952.262 2504.31 952.262 Q2507.84 952.262 2510.54 954.385 Q2513.35 951.631 2516.76 951.602 Q2518.28 951.602 2519 952.549 Q2519.75 953.496 2519.75 954.5 Q2519.75 955.389 2519.17 955.82 Q2518.63 956.25 2518.05 956.25 Q2517.34 956.25 2516.82 955.791 Q2516.33 955.303 2516.33 954.557 Q2516.33 953.324 2517.28 952.951 Q2517.11 952.893 2516.71 952.893 Q2513.84 952.893 2511.4 955.189 Q2513.81 957.427 2513.81 960.898 Q2513.81 964.37 2511.05 966.924 Q2508.3 969.477 2504.31 969.477 Q2501.01 969.477 2498.49 967.641 Q2497.48 968.818 2497.48 970.424 Q2497.48 971.888 2498.37 973.035 Q2499.26 974.183 2500.61 974.355 Q2501.01 974.413 2505 974.413 Q2507.35 974.413 2508.64 974.47 Q2509.93 974.527 2511.77 974.929 Q2513.64 975.302 2515.1 976.048 Q2518.92 978.171 2518.94 982.762 Q2518.94 986.119 2515.07 988.214 Q2511.23 990.337 2505.89 990.337 Q2500.5 990.337 2496.68 988.185 Q2492.89 986.062 2492.89 982.877 M2495.96 982.877 Q2495.96 985.287 2498.8 987.123 Q2501.64 988.988 2505.95 988.988 Q2510.16 988.988 2513.01 987.152 Q2515.87 985.344 2515.87 982.877 Q2515.87 981.127 2514.87 980.008 Q2513.87 978.889 2511.8 978.43 Q2509.76 977.999 2508.33 977.913 Q2506.89 977.827 2504.25 977.827 L2500.78 977.827 Q2498.77 977.942 2497.37 979.405 Q2495.96 980.868 2495.96 982.877 M2499.18 960.898 Q2499.18 968.129 2504.31 968.129 Q2506.89 968.129 2508.47 965.776 Q2509.42 964.198 2509.42 960.841 Q2509.42 953.611 2504.31 953.611 Q2501.73 953.611 2500.12 955.963 Q2499.18 957.541 2499.18 960.898 Z" fill="#000000" fill-rule="evenodd" fill-opacity="1" /><path clip-path="url(#clip870)" d="M2530.8 975.073 Q2526.93 971.228 2526.93 965.661 Q2526.93 960.066 2530.72 955.992 Q2534.53 951.889 2539.99 951.889 Q2545.32 951.889 2549.14 955.963 Q2552.98 960.009 2552.98 965.661 Q2552.98 971.199 2549.11 975.044 Q2545.27 978.889 2539.93 978.889 Q2534.71 978.889 2530.8 975.073 M2531.81 965.174 Q2531.81 970.883 2533.3 973.466 Q2535.6 977.397 2539.99 977.397 Q2542.17 977.397 2543.97 976.22 Q2545.81 975.044 2546.82 973.064 Q2548.11 970.482 2548.11 965.174 Q2548.11 959.521 2546.56 957.025 Q2544.26 953.209 2539.93 953.209 Q2538.04 953.209 2536.17 954.213 Q2534.33 955.189 2533.22 957.14 Q2531.81 959.722 2531.81 965.174 Z" fill="#000000" fill-rule="evenodd" fill-opacity="1" /><path clip-path="url(#clip870)" d="M2556.03 972.634 Q2556.03 967.641 2561.91 965.001 Q2565.44 963.309 2572.73 962.878 L2572.73 960.726 Q2572.73 957.082 2570.81 955.16 Q2568.91 953.209 2566.5 953.209 Q2562.2 953.209 2560.13 955.906 Q2561.89 955.963 2562.52 956.853 Q2563.15 957.714 2563.15 958.603 Q2563.15 959.779 2562.4 960.554 Q2561.68 961.3 2560.45 961.3 Q2559.27 961.3 2558.5 960.583 Q2557.72 959.837 2557.72 958.546 Q2557.72 955.676 2560.31 953.783 Q2562.92 951.889 2566.62 951.889 Q2571.44 951.889 2574.65 955.131 Q2575.66 956.135 2576.15 957.427 Q2576.66 958.718 2576.72 959.579 Q2576.78 960.411 2576.78 962.075 L2576.78 973.81 Q2576.78 974.154 2576.89 974.728 Q2577.01 975.302 2577.52 976.048 Q2578.07 976.765 2578.96 976.765 Q2581.08 976.765 2581.05 973.007 L2581.05 969.707 L2582.54 969.707 L2582.54 973.007 Q2582.54 976.134 2580.88 977.368 Q2579.24 978.573 2577.72 978.573 Q2575.77 978.573 2574.54 977.138 Q2573.3 975.704 2573.13 973.753 Q2572.24 975.991 2570.21 977.454 Q2568.2 978.889 2565.44 978.889 Q2563.32 978.889 2561.31 978.343 Q2559.33 977.827 2557.67 976.364 Q2556.03 974.872 2556.03 972.634 M2560.57 972.576 Q2560.57 974.757 2562.11 976.163 Q2563.66 977.569 2565.84 977.569 Q2568.31 977.569 2570.52 975.675 Q2572.73 973.753 2572.73 969.994 L2572.73 964.112 Q2566.22 964.342 2563.38 966.953 Q2560.57 969.535 2560.57 972.576 Z" fill="#000000" fill-rule="evenodd" fill-opacity="1" /><path clip-path="url(#clip870)" d="M2584.9 978.229 L2584.9 976.421 Q2588.02 976.421 2588.74 976.048 Q2589.46 975.646 2589.46 973.753 L2589.46 943.195 Q2589.46 941.015 2588.68 940.469 Q2587.94 939.924 2584.9 939.924 L2584.9 938.088 L2593.33 937.457 L2593.33 973.753 Q2593.33 975.646 2594.08 976.048 Q2594.82 976.421 2597.92 976.421 L2597.92 978.229 Q2597.21 978.229 2595.71 978.171 Q2594.22 978.114 2593.13 978.085 Q2592.04 978.057 2591.41 978.057 Q2590.72 978.057 2584.9 978.229 Z" fill="#000000" fill-rule="evenodd" fill-opacity="1" /><polyline clip-path="url(#clip870)" style="stroke:#000000; stroke-linecap:round; stroke-linejoin:round; stroke-width:4; stroke-opacity:1; fill:none" points="2117.32,795.049 2117.32,263.296 "/>
<path clip-path="url(#clip870)" d="M2454.32 206.419 L2454.32 212.582 Q2451.37 209.833 2448.01 208.473 Q2444.69 207.114 2440.93 207.114 Q2433.52 207.114 2429.58 211.656 Q2425.65 216.17 2425.65 224.735 Q2425.65 233.271 2429.58 237.814 Q2433.52 242.327 2440.93 242.327 Q2444.69 242.327 2448.01 240.968 Q2451.37 239.608 2454.32 236.859 L2454.32 242.964 Q2451.25 245.047 2447.81 246.089 Q2444.4 247.131 2440.58 247.131 Q2430.77 247.131 2425.13 241.141 Q2419.48 235.123 2419.48 224.735 Q2419.48 214.318 2425.13 208.329 Q2430.77 202.31 2440.58 202.31 Q2444.46 202.31 2447.87 203.352 Q2451.31 204.365 2454.32 206.419 Z" fill="#000000" fill-rule="evenodd" fill-opacity="1" /><path clip-path="url(#clip870)" d="M2490.06 226.731 L2490.06 246.292 L2484.73 246.292 L2484.73 226.905 Q2484.73 222.304 2482.94 220.019 Q2481.14 217.733 2477.56 217.733 Q2473.25 217.733 2470.76 220.482 Q2468.27 223.23 2468.27 227.976 L2468.27 246.292 L2462.92 246.292 L2462.92 201.269 L2468.27 201.269 L2468.27 218.919 Q2470.18 215.997 2472.75 214.55 Q2475.36 213.103 2478.74 213.103 Q2484.33 213.103 2487.19 216.575 Q2490.06 220.019 2490.06 226.731 Z" fill="#000000" fill-rule="evenodd" fill-opacity="1" /><path clip-path="url(#clip870)" d="M2515.4 230.001 Q2508.95 230.001 2506.46 231.477 Q2503.97 232.953 2503.97 236.512 Q2503.97 239.347 2505.83 241.025 Q2507.71 242.675 2510.92 242.675 Q2515.35 242.675 2518.01 239.55 Q2520.7 236.396 2520.7 231.187 L2520.7 230.001 L2515.4 230.001 M2526.02 227.802 L2526.02 246.292 L2520.7 246.292 L2520.7 241.373 Q2518.88 244.324 2516.16 245.742 Q2513.44 247.131 2509.5 247.131 Q2504.52 247.131 2501.57 244.353 Q2498.65 241.546 2498.65 236.859 Q2498.65 231.39 2502.3 228.612 Q2505.97 225.834 2513.23 225.834 L2520.7 225.834 L2520.7 225.314 Q2520.7 221.639 2518.27 219.642 Q2515.87 217.617 2511.5 217.617 Q2508.72 217.617 2506.09 218.282 Q2503.45 218.948 2501.02 220.279 L2501.02 215.36 Q2503.95 214.232 2506.69 213.682 Q2509.44 213.103 2512.05 213.103 Q2519.08 213.103 2522.55 216.749 Q2526.02 220.395 2526.02 227.802 Z" fill="#000000" fill-rule="evenodd" fill-opacity="1" /><path clip-path="url(#clip870)" d="M2563.93 226.731 L2563.93 246.292 L2558.6 246.292 L2558.6 226.905 Q2558.6 222.304 2556.81 220.019 Q2555.02 217.733 2551.43 217.733 Q2547.12 217.733 2544.63 220.482 Q2542.14 223.23 2542.14 227.976 L2542.14 246.292 L2536.79 246.292 L2536.79 213.884 L2542.14 213.884 L2542.14 218.919 Q2544.05 215.997 2546.62 214.55 Q2549.23 213.103 2552.61 213.103 Q2558.2 213.103 2561.06 216.575 Q2563.93 220.019 2563.93 226.731 Z" fill="#000000" fill-rule="evenodd" fill-opacity="1" /><path clip-path="url(#clip870)" d="M2597.87 215.129 L2597.87 220.105 Q2595.61 218.861 2593.33 218.254 Q2591.07 217.617 2588.75 217.617 Q2583.57 217.617 2580.71 220.916 Q2577.85 224.185 2577.85 230.117 Q2577.85 236.049 2580.71 239.347 Q2583.57 242.617 2588.75 242.617 Q2591.07 242.617 2593.33 242.009 Q2595.61 241.373 2597.87 240.128 L2597.87 245.047 Q2595.64 246.089 2593.24 246.61 Q2590.87 247.131 2588.18 247.131 Q2580.85 247.131 2576.54 242.53 Q2572.23 237.929 2572.23 230.117 Q2572.23 222.189 2576.57 217.646 Q2580.94 213.103 2588.52 213.103 Q2590.98 213.103 2593.33 213.624 Q2595.67 214.116 2597.87 215.129 Z" fill="#000000" fill-rule="evenodd" fill-opacity="1" /><path clip-path="url(#clip870)" d="M2634.85 228.757 L2634.85 231.361 L2610.37 231.361 Q2610.72 236.859 2613.67 239.752 Q2616.65 242.617 2621.94 242.617 Q2625.01 242.617 2627.87 241.865 Q2630.77 241.112 2633.6 239.608 L2633.6 244.642 Q2630.74 245.858 2627.73 246.494 Q2624.72 247.131 2621.62 247.131 Q2613.87 247.131 2609.33 242.617 Q2604.81 238.103 2604.81 230.406 Q2604.81 222.449 2609.1 217.791 Q2613.41 213.103 2620.7 213.103 Q2627.24 213.103 2631.03 217.328 Q2634.85 221.523 2634.85 228.757 M2629.52 227.194 Q2629.47 222.825 2627.06 220.221 Q2624.69 217.617 2620.76 217.617 Q2616.3 217.617 2613.61 220.134 Q2610.95 222.652 2610.54 227.223 L2629.52 227.194 Z" fill="#000000" fill-rule="evenodd" fill-opacity="1" /><path clip-path="url(#clip875)" d="M2908.42 263.296 L2819.77 263.296 L2719.9 263.296 L2651.79 263.296 L2566.16 263.296 L2502.55 263.296 L2434.22 263.296 L2361.76 263.296 L2296.12 263.296 L2155.31 263.296 L2155.31 795.049 L2296.12 795.049 L2361.76 795.049 L2434.22 795.049 L2502.55 795.049 L2566.16 795.049 L2651.79 795.049 L2719.9 795.049 L2819.77 795.049 L2908.42 795.049  Z" fill="#009af9" fill-rule="evenodd" fill-opacity="1"/>
<polyline clip-path="url(#clip875)" style="stroke:#009af9; stroke-linecap:round; stroke-linejoin:round; stroke-width:20; stroke-opacity:1; fill:none" points="2908.42,263.296 2819.77,263.296 2719.9,263.296 2651.79,263.296 2566.16,263.296 2502.55,263.296 2434.22,263.296 2361.76,263.296 2296.12,263.296 2155.31,263.296 "/>
<path clip-path="url(#clip875)" d="M2908.42 466.381 L2819.77 451.476 L2719.9 446.176 L2651.79 449.712 L2566.16 449.11 L2502.55 423.188 L2434.22 423.106 L2361.76 436.798 L2296.12 406.222 L2155.31 389.182 L2155.31 795.049 L2296.12 795.049 L2361.76 795.049 L2434.22 795.049 L2502.55 795.049 L2566.16 795.049 L2651.79 795.049 L2719.9 795.049 L2819.77 795.049 L2908.42 795.049  Z" fill="#e26f46" fill-rule="evenodd" fill-opacity="1"/>
<polyline clip-path="url(#clip875)" style="stroke:#e26f46; stroke-linecap:round; stroke-linejoin:round; stroke-width:20; stroke-opacity:1; fill:none" points="2908.42,466.381 2819.77,451.476 2719.9,446.176 2651.79,449.712 2566.16,449.11 2502.55,423.188 2434.22,423.106 2361.76,436.798 2296.12,406.222 2155.31,389.182 "/>
<path clip-path="url(#clip875)" d="M2908.42 730.733 L2819.77 687.709 L2719.9 684.027 L2651.79 681.536 L2566.16 692.103 L2502.55 677.118 L2434.22 679.45 L2361.76 689.543 L2296.12 667.622 L2155.31 643.175 L2155.31 795.049 L2296.12 795.049 L2361.76 795.049 L2434.22 795.049 L2502.55 795.049 L2566.16 795.049 L2651.79 795.049 L2719.9 795.049 L2819.77 795.049 L2908.42 795.049  Z" fill="#3da44d" fill-rule="evenodd" fill-opacity="1"/>
<polyline clip-path="url(#clip875)" style="stroke:#3da44d; stroke-linecap:round; stroke-linejoin:round; stroke-width:20; stroke-opacity:1; fill:none" points="2908.42,730.733 2819.77,687.709 2719.9,684.027 2651.79,681.536 2566.16,692.103 2502.55,677.118 2434.22,679.45 2361.76,689.543 2296.12,667.622 2155.31,643.175 "/>
</svg>
