<?xml version="1.0" encoding="utf-8"?>
<svg xmlns="http://www.w3.org/2000/svg" xmlns:xlink="http://www.w3.org/1999/xlink" width="750" height="250" viewBox="0 0 3000 1000">
<defs>
  <clipPath id="clip630">
    <rect x="0" y="0" width="3000" height="1000"/>
  </clipPath>
</defs>
<path clip-path="url(#clip630)" d="M0 1000 L3000 1000 L3000 0 L0 0  Z" fill="#ffffff" fill-rule="evenodd" fill-opacity="1"/>
<defs>
  <clipPath id="clip631">
    <rect x="600" y="0" width="2101" height="1000"/>
  </clipPath>
</defs>
<path clip-path="url(#clip630)" d="M275.898 52.2768 L2968.5 52.2768 L2968.5 47.2441 L275.898 47.2441  Z" fill="#ffffff" fill-rule="evenodd" fill-opacity="1"/>
<defs>
  <clipPath id="clip632">
    <rect x="275" y="47" width="2694" height="6"/>
  </clipPath>
</defs>
<path clip-path="url(#clip630)" d="M1007.14 164.052 L2237.27 164.052 L2237.27 47.4119 L1007.14 47.4119  Z" fill="#000000" fill-rule="evenodd" fill-opacity="0"/>
<polyline clip-path="url(#clip630)" style="stroke:#000000; stroke-linecap:round; stroke-linejoin:round; stroke-width:4; stroke-opacity:0; fill:none" points="1007.14,164.052 2237.27,164.052 2237.27,47.4119 1007.14,47.4119 1007.14,164.052 "/>
<polyline clip-path="url(#clip630)" style="stroke:#009af9; stroke-linecap:round; stroke-linejoin:round; stroke-width:22.5; stroke-opacity:1; fill:none" points="1037.05,105.732 1216.56,105.732 "/>
<path clip-path="url(#clip630)" d="M1246.48 86.2919 L1251.79 86.2919 L1259.97 119.156 L1268.12 86.2919 L1274.03 86.2919 L1282.21 119.156 L1290.36 86.2919 L1295.7 86.2919 L1285.93 125.172 L1279.32 125.172 L1271.11 91.422 L1262.83 125.172 L1256.22 125.172 L1246.48 86.2919 Z" fill="#000000" fill-rule="evenodd" fill-opacity="1" /><path clip-path="url(#clip630)" d="M1310.64 99.3647 Q1306.79 99.3647 1304.55 102.386 Q1302.31 105.38 1302.31 110.615 Q1302.31 115.849 1304.52 118.87 Q1306.76 121.865 1310.64 121.865 Q1314.47 121.865 1316.71 118.844 Q1318.95 115.823 1318.95 110.615 Q1318.95 105.432 1316.71 102.412 Q1314.47 99.3647 1310.64 99.3647 M1310.64 95.3022 Q1316.89 95.3022 1320.46 99.3647 Q1324.03 103.427 1324.03 110.615 Q1324.03 117.776 1320.46 121.865 Q1316.89 125.927 1310.64 125.927 Q1304.37 125.927 1300.8 121.865 Q1297.26 117.776 1297.26 110.615 Q1297.26 103.427 1300.8 99.3647 Q1304.37 95.3022 1310.64 95.3022 Z" fill="#000000" fill-rule="evenodd" fill-opacity="1" /><path clip-path="url(#clip630)" d="M1348.87 100.484 Q1348.07 100.016 1347.1 99.8074 Q1346.17 99.573 1345.02 99.573 Q1340.96 99.573 1338.77 102.229 Q1336.61 104.859 1336.61 109.807 L1336.61 125.172 L1331.79 125.172 L1331.79 96.0053 L1336.61 96.0053 L1336.61 100.537 Q1338.12 97.8803 1340.54 96.6043 Q1342.96 95.3022 1346.43 95.3022 Q1346.92 95.3022 1347.52 95.3803 Q1348.12 95.4324 1348.85 95.5626 L1348.87 100.484 Z" fill="#000000" fill-rule="evenodd" fill-opacity="1" /><path clip-path="url(#clip630)" d="M1372.49 96.8647 L1372.49 101.396 Q1370.46 100.354 1368.27 99.8334 Q1366.09 99.3126 1363.74 99.3126 Q1360.18 99.3126 1358.38 100.406 Q1356.61 101.5 1356.61 103.688 Q1356.61 105.354 1357.88 106.318 Q1359.16 107.255 1363.01 108.115 L1364.65 108.479 Q1369.76 109.573 1371.89 111.578 Q1374.06 113.557 1374.06 117.125 Q1374.06 121.187 1370.83 123.557 Q1367.62 125.927 1362 125.927 Q1359.65 125.927 1357.1 125.458 Q1354.58 125.016 1351.76 124.104 L1351.76 119.156 Q1354.42 120.536 1357 121.24 Q1359.58 121.917 1362.1 121.917 Q1365.49 121.917 1367.31 120.771 Q1369.13 119.599 1369.13 117.49 Q1369.13 115.536 1367.81 114.495 Q1366.5 113.453 1362.05 112.49 L1360.38 112.099 Q1355.93 111.162 1353.95 109.234 Q1351.97 107.281 1351.97 103.896 Q1351.97 99.7814 1354.89 97.5418 Q1357.81 95.3022 1363.17 95.3022 Q1365.83 95.3022 1368.17 95.6928 Q1370.51 96.0835 1372.49 96.8647 Z" fill="#000000" fill-rule="evenodd" fill-opacity="1" /><path clip-path="url(#clip630)" d="M1406.63 109.391 L1406.63 111.734 L1384.6 111.734 Q1384.92 116.682 1387.57 119.286 Q1390.25 121.865 1395.02 121.865 Q1397.78 121.865 1400.36 121.187 Q1402.96 120.51 1405.51 119.156 L1405.51 123.687 Q1402.94 124.781 1400.23 125.354 Q1397.52 125.927 1394.73 125.927 Q1387.75 125.927 1383.67 121.865 Q1379.6 117.802 1379.6 110.875 Q1379.6 103.714 1383.46 99.5209 Q1387.34 95.3022 1393.9 95.3022 Q1399.78 95.3022 1403.2 99.1043 Q1406.63 102.88 1406.63 109.391 M1401.84 107.984 Q1401.79 104.052 1399.63 101.708 Q1397.49 99.3647 1393.95 99.3647 Q1389.94 99.3647 1387.52 101.63 Q1385.12 103.896 1384.76 108.01 L1401.84 107.984 Z" fill="#000000" fill-rule="evenodd" fill-opacity="1" /><polyline clip-path="url(#clip630)" style="stroke:#e26f46; stroke-linecap:round; stroke-linejoin:round; stroke-width:22.5; stroke-opacity:1; fill:none" points="1437.12,105.732 1616.63,105.732 "/>
<path clip-path="url(#clip630)" d="M1671.58 87.5679 L1671.58 92.6981 Q1668.58 91.2658 1665.92 90.5627 Q1663.27 89.8595 1660.79 89.8595 Q1656.5 89.8595 1654.15 91.5262 Q1651.84 93.1929 1651.84 96.2658 Q1651.84 98.8439 1653.37 100.172 Q1654.93 101.474 1659.26 102.281 L1662.43 102.932 Q1668.32 104.052 1671.11 106.891 Q1673.92 109.703 1673.92 114.443 Q1673.92 120.094 1670.12 123.01 Q1666.34 125.927 1659.02 125.927 Q1656.26 125.927 1653.14 125.302 Q1650.04 124.677 1646.71 123.453 L1646.71 118.036 Q1649.91 119.833 1652.98 120.745 Q1656.05 121.656 1659.02 121.656 Q1663.53 121.656 1665.98 119.885 Q1668.42 118.115 1668.42 114.833 Q1668.42 111.969 1666.65 110.354 Q1664.91 108.74 1660.9 107.932 L1657.7 107.307 Q1651.81 106.135 1649.18 103.636 Q1646.55 101.136 1646.55 96.6824 Q1646.55 91.5262 1650.17 88.5575 Q1653.82 85.5887 1660.2 85.5887 Q1662.93 85.5887 1665.77 86.0835 Q1668.61 86.5783 1671.58 87.5679 Z" fill="#000000" fill-rule="evenodd" fill-opacity="1" /><path clip-path="url(#clip630)" d="M1695.17 110.51 Q1689.36 110.51 1687.12 111.839 Q1684.88 113.167 1684.88 116.37 Q1684.88 118.922 1686.55 120.432 Q1688.24 121.917 1691.13 121.917 Q1695.12 121.917 1697.51 119.104 Q1699.93 116.266 1699.93 111.578 L1699.93 110.51 L1695.17 110.51 M1704.73 108.531 L1704.73 125.172 L1699.93 125.172 L1699.93 120.745 Q1698.29 123.401 1695.85 124.677 Q1693.4 125.927 1689.86 125.927 Q1685.38 125.927 1682.72 123.427 Q1680.09 120.901 1680.09 116.682 Q1680.09 111.76 1683.37 109.26 Q1686.68 106.76 1693.22 106.76 L1699.93 106.76 L1699.93 106.292 Q1699.93 102.984 1697.75 101.188 Q1695.59 99.3647 1691.65 99.3647 Q1689.15 99.3647 1686.78 99.9637 Q1684.41 100.563 1682.23 101.761 L1682.23 97.3335 Q1684.86 96.3178 1687.33 95.8231 Q1689.8 95.3022 1692.15 95.3022 Q1698.48 95.3022 1701.6 98.5835 Q1704.73 101.865 1704.73 108.531 Z" fill="#000000" fill-rule="evenodd" fill-opacity="1" /><path clip-path="url(#clip630)" d="M1737.3 101.604 Q1739.1 98.3751 1741.6 96.8387 Q1744.1 95.3022 1747.49 95.3022 Q1752.04 95.3022 1754.52 98.5053 Q1756.99 101.682 1756.99 107.568 L1756.99 125.172 L1752.17 125.172 L1752.17 107.724 Q1752.17 103.531 1750.69 101.5 Q1749.21 99.4689 1746.16 99.4689 Q1742.43 99.4689 1740.27 101.943 Q1738.11 104.417 1738.11 108.688 L1738.11 125.172 L1733.29 125.172 L1733.29 107.724 Q1733.29 103.505 1731.81 101.5 Q1730.33 99.4689 1727.23 99.4689 Q1723.55 99.4689 1721.39 101.969 Q1719.23 104.443 1719.23 108.688 L1719.23 125.172 L1714.41 125.172 L1714.41 96.0053 L1719.23 96.0053 L1719.23 100.537 Q1720.87 97.8543 1723.16 96.5783 Q1725.46 95.3022 1728.61 95.3022 Q1731.78 95.3022 1734 96.9168 Q1736.24 98.5314 1737.3 101.604 Z" fill="#000000" fill-rule="evenodd" fill-opacity="1" /><path clip-path="url(#clip630)" d="M1791.5 109.391 L1791.5 111.734 L1769.47 111.734 Q1769.78 116.682 1772.43 119.286 Q1775.12 121.865 1779.88 121.865 Q1782.64 121.865 1785.22 121.187 Q1787.82 120.51 1790.38 119.156 L1790.38 123.687 Q1787.8 124.781 1785.09 125.354 Q1782.38 125.927 1779.6 125.927 Q1772.62 125.927 1768.53 121.865 Q1764.47 117.802 1764.47 110.875 Q1764.47 103.714 1768.32 99.5209 Q1772.2 95.3022 1778.76 95.3022 Q1784.65 95.3022 1788.06 99.1043 Q1791.5 102.88 1791.5 109.391 M1786.7 107.984 Q1786.65 104.052 1784.49 101.708 Q1782.36 99.3647 1778.81 99.3647 Q1774.8 99.3647 1772.38 101.63 Q1769.99 103.896 1769.62 108.01 L1786.7 107.984 Z" fill="#000000" fill-rule="evenodd" fill-opacity="1" /><polyline clip-path="url(#clip630)" style="stroke:#3da44d; stroke-linecap:round; stroke-linejoin:round; stroke-width:22.5; stroke-opacity:1; fill:none" points="1837.2,105.732 2016.7,105.732 "/>
<path clip-path="url(#clip630)" d="M2051.88 106.604 L2051.88 120.849 L2060.32 120.849 Q2064.56 120.849 2066.59 119.104 Q2068.65 117.333 2068.65 113.714 Q2068.65 110.068 2066.59 108.349 Q2064.56 106.604 2060.32 106.604 L2051.88 106.604 M2051.88 90.6147 L2051.88 102.333 L2059.67 102.333 Q2063.52 102.333 2065.4 100.901 Q2067.3 99.4428 2067.3 96.4741 Q2067.3 93.5314 2065.4 92.0731 Q2063.52 90.6147 2059.67 90.6147 L2051.88 90.6147 M2046.62 86.2919 L2060.06 86.2919 Q2066.07 86.2919 2069.33 88.7918 Q2072.58 91.2918 2072.58 95.9012 Q2072.58 99.4689 2070.92 101.578 Q2069.25 103.688 2066.02 104.208 Q2069.9 105.042 2072.04 107.698 Q2074.2 110.328 2074.2 114.286 Q2074.2 119.495 2070.66 122.333 Q2067.12 125.172 2060.58 125.172 L2046.62 125.172 L2046.62 86.2919 Z" fill="#000000" fill-rule="evenodd" fill-opacity="1" /><path clip-path="url(#clip630)" d="M2107.95 109.391 L2107.95 111.734 L2085.92 111.734 Q2086.23 116.682 2088.89 119.286 Q2091.57 121.865 2096.33 121.865 Q2099.09 121.865 2101.67 121.187 Q2104.28 120.51 2106.83 119.156 L2106.83 123.687 Q2104.25 124.781 2101.54 125.354 Q2098.83 125.927 2096.05 125.927 Q2089.07 125.927 2084.98 121.865 Q2080.92 117.802 2080.92 110.875 Q2080.92 103.714 2084.77 99.5209 Q2088.65 95.3022 2095.21 95.3022 Q2101.1 95.3022 2104.51 99.1043 Q2107.95 102.88 2107.95 109.391 M2103.16 107.984 Q2103.1 104.052 2100.94 101.708 Q2098.81 99.3647 2095.27 99.3647 Q2091.26 99.3647 2088.83 101.63 Q2086.44 103.896 2086.07 108.01 L2103.16 107.984 Z" fill="#000000" fill-rule="evenodd" fill-opacity="1" /><path clip-path="url(#clip630)" d="M2120.55 87.7241 L2120.55 96.0053 L2130.42 96.0053 L2130.42 99.7293 L2120.55 99.7293 L2120.55 115.563 Q2120.55 119.13 2121.52 120.146 Q2122.51 121.161 2125.5 121.161 L2130.42 121.161 L2130.42 125.172 L2125.5 125.172 Q2119.95 125.172 2117.84 123.115 Q2115.73 121.031 2115.73 115.563 L2115.73 99.7293 L2112.22 99.7293 L2112.22 96.0053 L2115.73 96.0053 L2115.73 87.7241 L2120.55 87.7241 Z" fill="#000000" fill-rule="evenodd" fill-opacity="1" /><path clip-path="url(#clip630)" d="M2141.46 87.7241 L2141.46 96.0053 L2151.33 96.0053 L2151.33 99.7293 L2141.46 99.7293 L2141.46 115.563 Q2141.46 119.13 2142.43 120.146 Q2143.42 121.161 2146.41 121.161 L2151.33 121.161 L2151.33 125.172 L2146.41 125.172 Q2140.86 125.172 2138.76 123.115 Q2136.65 121.031 2136.65 115.563 L2136.65 99.7293 L2133.13 99.7293 L2133.13 96.0053 L2136.65 96.0053 L2136.65 87.7241 L2141.46 87.7241 Z" fill="#000000" fill-rule="evenodd" fill-opacity="1" /><path clip-path="url(#clip630)" d="M2182.58 109.391 L2182.58 111.734 L2160.55 111.734 Q2160.86 116.682 2163.52 119.286 Q2166.2 121.865 2170.97 121.865 Q2173.73 121.865 2176.31 121.187 Q2178.91 120.51 2181.46 119.156 L2181.46 123.687 Q2178.89 124.781 2176.18 125.354 Q2173.47 125.927 2170.68 125.927 Q2163.7 125.927 2159.61 121.865 Q2155.55 117.802 2155.55 110.875 Q2155.55 103.714 2159.41 99.5209 Q2163.29 95.3022 2169.85 95.3022 Q2175.73 95.3022 2179.15 99.1043 Q2182.58 102.88 2182.58 109.391 M2177.79 107.984 Q2177.74 104.052 2175.58 101.708 Q2173.44 99.3647 2169.9 99.3647 Q2165.89 99.3647 2163.47 101.63 Q2161.07 103.896 2160.71 108.01 L2177.79 107.984 Z" fill="#000000" fill-rule="evenodd" fill-opacity="1" /><path clip-path="url(#clip630)" d="M2207.35 100.484 Q2206.54 100.016 2205.58 99.8074 Q2204.64 99.573 2203.49 99.573 Q2199.43 99.573 2197.24 102.229 Q2195.08 104.859 2195.08 109.807 L2195.08 125.172 L2190.27 125.172 L2190.27 96.0053 L2195.08 96.0053 L2195.08 100.537 Q2196.59 97.8803 2199.02 96.6043 Q2201.44 95.3022 2204.9 95.3022 Q2205.4 95.3022 2205.99 95.3803 Q2206.59 95.4324 2207.32 95.5626 L2207.35 100.484 Z" fill="#000000" fill-rule="evenodd" fill-opacity="1" /><path clip-path="url(#clip630)" d="M275.898 794.853 L1131.44 794.853 L1131.44 296.613 L275.898 296.613  Z" fill="#ffffff" fill-rule="evenodd" fill-opacity="1"/>
<defs>
  <clipPath id="clip633">
    <rect x="275" y="296" width="857" height="499"/>
  </clipPath>
</defs>
<polyline clip-path="url(#clip630)" style="stroke:#000000; stroke-linecap:round; stroke-linejoin:round; stroke-width:4; stroke-opacity:1; fill:none" points="1131.44,794.853 275.898,794.853 "/>
<polyline clip-path="url(#clip630)" style="stroke:#000000; stroke-linecap:round; stroke-linejoin:round; stroke-width:4; stroke-opacity:1; fill:none" points="1101.83,794.853 1101.83,775.955 "/>
<polyline clip-path="url(#clip630)" style="stroke:#000000; stroke-linecap:round; stroke-linejoin:round; stroke-width:4; stroke-opacity:1; fill:none" points="977.679,794.853 977.679,775.955 "/>
<polyline clip-path="url(#clip630)" style="stroke:#000000; stroke-linecap:round; stroke-linejoin:round; stroke-width:4; stroke-opacity:1; fill:none" points="853.523,794.853 853.523,775.955 "/>
<polyline clip-path="url(#clip630)" style="stroke:#000000; stroke-linecap:round; stroke-linejoin:round; stroke-width:4; stroke-opacity:1; fill:none" points="729.367,794.853 729.367,775.955 "/>
<polyline clip-path="url(#clip630)" style="stroke:#000000; stroke-linecap:round; stroke-linejoin:round; stroke-width:4; stroke-opacity:1; fill:none" points="605.212,794.853 605.212,775.955 "/>
<polyline clip-path="url(#clip630)" style="stroke:#000000; stroke-linecap:round; stroke-linejoin:round; stroke-width:4; stroke-opacity:1; fill:none" points="481.056,794.853 481.056,775.955 "/>
<polyline clip-path="url(#clip630)" style="stroke:#000000; stroke-linecap:round; stroke-linejoin:round; stroke-width:4; stroke-opacity:1; fill:none" points="356.9,794.853 356.9,775.955 "/>
<path clip-path="url(#clip630)" d="M1096.49 858.118 L1112.81 858.118 L1112.81 862.053 L1090.86 862.053 L1090.86 858.118 Q1093.52 855.363 1098.11 850.733 Q1102.71 846.081 1103.89 844.738 Q1106.14 842.215 1107.02 840.479 Q1107.92 838.72 1107.92 837.03 Q1107.92 834.275 1105.98 832.539 Q1104.06 830.803 1100.95 830.803 Q1098.76 830.803 1096.3 831.567 Q1093.87 832.331 1091.09 833.882 L1091.09 829.159 Q1093.92 828.025 1096.37 827.447 Q1098.82 826.868 1100.86 826.868 Q1106.23 826.868 1109.43 829.553 Q1112.62 832.238 1112.62 836.729 Q1112.62 838.859 1111.81 840.78 Q1111.02 842.678 1108.92 845.271 Q1108.34 845.942 1105.24 849.159 Q1102.14 852.354 1096.49 858.118 Z" fill="#000000" fill-rule="evenodd" fill-opacity="1" /><path clip-path="url(#clip630)" d="M980.688 831.567 L968.882 850.016 L980.688 850.016 L980.688 831.567 M979.461 827.493 L985.341 827.493 L985.341 850.016 L990.271 850.016 L990.271 853.905 L985.341 853.905 L985.341 862.053 L980.688 862.053 L980.688 853.905 L965.086 853.905 L965.086 849.391 L979.461 827.493 Z" fill="#000000" fill-rule="evenodd" fill-opacity="1" /><path clip-path="url(#clip630)" d="M853.928 842.909 Q850.78 842.909 848.928 845.062 Q847.099 847.215 847.099 850.965 Q847.099 854.692 848.928 856.868 Q850.78 859.02 853.928 859.02 Q857.076 859.02 858.905 856.868 Q860.757 854.692 860.757 850.965 Q860.757 847.215 858.905 845.062 Q857.076 842.909 853.928 842.909 M863.21 828.257 L863.21 832.516 Q861.451 831.683 859.646 831.243 Q857.863 830.803 856.104 830.803 Q851.474 830.803 849.021 833.928 Q846.59 837.053 846.243 843.372 Q847.609 841.358 849.669 840.294 Q851.729 839.206 854.206 839.206 Q859.414 839.206 862.423 842.377 Q865.456 845.525 865.456 850.965 Q865.456 856.289 862.308 859.507 Q859.16 862.724 853.928 862.724 Q847.933 862.724 844.761 858.141 Q841.59 853.534 841.59 844.808 Q841.59 836.613 845.479 831.752 Q849.368 826.868 855.919 826.868 Q857.678 826.868 859.46 827.215 Q861.266 827.562 863.21 828.257 Z" fill="#000000" fill-rule="evenodd" fill-opacity="1" /><path clip-path="url(#clip630)" d="M729.367 845.641 Q726.034 845.641 724.113 847.423 Q722.215 849.206 722.215 852.331 Q722.215 855.456 724.113 857.238 Q726.034 859.02 729.367 859.02 Q732.701 859.02 734.622 857.238 Q736.543 855.432 736.543 852.331 Q736.543 849.206 734.622 847.423 Q732.724 845.641 729.367 845.641 M724.691 843.65 Q721.682 842.909 719.992 840.849 Q718.326 838.789 718.326 835.826 Q718.326 831.683 721.266 829.275 Q724.228 826.868 729.367 826.868 Q734.529 826.868 737.469 829.275 Q740.409 831.683 740.409 835.826 Q740.409 838.789 738.719 840.849 Q737.052 842.909 734.066 843.65 Q737.446 844.437 739.321 846.729 Q741.219 849.02 741.219 852.331 Q741.219 857.354 738.14 860.039 Q735.085 862.724 729.367 862.724 Q723.65 862.724 720.571 860.039 Q717.516 857.354 717.516 852.331 Q717.516 849.02 719.414 846.729 Q721.312 844.437 724.691 843.65 M722.978 836.266 Q722.978 838.951 724.645 840.456 Q726.335 841.96 729.367 841.96 Q732.377 841.96 734.066 840.456 Q735.779 838.951 735.779 836.266 Q735.779 833.581 734.066 832.076 Q732.377 830.572 729.367 830.572 Q726.335 830.572 724.645 832.076 Q722.978 833.581 722.978 836.266 Z" fill="#000000" fill-rule="evenodd" fill-opacity="1" /><path clip-path="url(#clip630)" d="M579.899 858.118 L587.538 858.118 L587.538 831.752 L579.228 833.419 L579.228 829.159 L587.492 827.493 L592.168 827.493 L592.168 858.118 L599.807 858.118 L599.807 862.053 L579.899 862.053 L579.899 858.118 Z" fill="#000000" fill-rule="evenodd" fill-opacity="1" /><path clip-path="url(#clip630)" d="M619.251 830.572 Q615.64 830.572 613.811 834.136 Q612.006 837.678 612.006 844.808 Q612.006 851.914 613.811 855.479 Q615.64 859.02 619.251 859.02 Q622.885 859.02 624.691 855.479 Q626.519 851.914 626.519 844.808 Q626.519 837.678 624.691 834.136 Q622.885 830.572 619.251 830.572 M619.251 826.868 Q625.061 826.868 628.117 831.474 Q631.195 836.058 631.195 844.808 Q631.195 853.534 628.117 858.141 Q625.061 862.724 619.251 862.724 Q613.441 862.724 610.362 858.141 Q607.307 853.534 607.307 844.808 Q607.307 836.058 610.362 831.474 Q613.441 826.868 619.251 826.868 Z" fill="#000000" fill-rule="evenodd" fill-opacity="1" /><path clip-path="url(#clip630)" d="M456.542 858.118 L464.181 858.118 L464.181 831.752 L455.871 833.419 L455.871 829.159 L464.135 827.493 L468.811 827.493 L468.811 858.118 L476.45 858.118 L476.45 862.053 L456.542 862.053 L456.542 858.118 Z" fill="#000000" fill-rule="evenodd" fill-opacity="1" /><path clip-path="url(#clip630)" d="M489.922 858.118 L506.241 858.118 L506.241 862.053 L484.297 862.053 L484.297 858.118 Q486.959 855.363 491.542 850.733 Q496.149 846.081 497.329 844.738 Q499.575 842.215 500.454 840.479 Q501.357 838.72 501.357 837.03 Q501.357 834.275 499.412 832.539 Q497.491 830.803 494.389 830.803 Q492.19 830.803 489.737 831.567 Q487.306 832.331 484.528 833.882 L484.528 829.159 Q487.352 828.025 489.806 827.447 Q492.26 826.868 494.297 826.868 Q499.667 826.868 502.862 829.553 Q506.056 832.238 506.056 836.729 Q506.056 838.859 505.246 840.78 Q504.459 842.678 502.352 845.271 Q501.774 845.942 498.672 849.159 Q495.57 852.354 489.922 858.118 Z" fill="#000000" fill-rule="evenodd" fill-opacity="1" /><path clip-path="url(#clip630)" d="M331.345 858.118 L338.984 858.118 L338.984 831.752 L330.674 833.419 L330.674 829.159 L338.938 827.493 L343.614 827.493 L343.614 858.118 L351.252 858.118 L351.252 862.053 L331.345 862.053 L331.345 858.118 Z" fill="#000000" fill-rule="evenodd" fill-opacity="1" /><path clip-path="url(#clip630)" d="M373.544 831.567 L361.738 850.016 L373.544 850.016 L373.544 831.567 M372.317 827.493 L378.197 827.493 L378.197 850.016 L383.127 850.016 L383.127 853.905 L378.197 853.905 L378.197 862.053 L373.544 862.053 L373.544 853.905 L357.942 853.905 L357.942 849.391 L372.317 827.493 Z" fill="#000000" fill-rule="evenodd" fill-opacity="1" /><path clip-path="url(#clip630)" d="M654.705 881.254 L640.885 936.718 Q640.323 939.201 640.323 941.309 Q640.323 945.712 643.181 945.712 Q644.586 945.712 645.71 944.822 Q646.835 943.932 647.725 942.059 Q648.615 940.185 649.177 938.451 Q649.739 936.671 650.489 933.861 Q650.723 932.736 650.91 932.455 Q651.144 932.127 651.8 932.127 Q652.971 932.127 652.971 933.064 Q651.707 939.107 650.067 942.574 Q647.444 947.867 642.993 947.867 Q639.621 947.867 637.231 945.806 Q634.842 943.745 634.28 940.653 Q628.144 947.867 621.773 947.867 Q616.151 947.867 612.591 943.604 Q609.031 939.295 609.031 932.502 Q609.031 925.663 612.404 919.105 Q615.823 912.546 621.211 908.471 Q626.598 904.395 632.125 904.395 Q637.981 904.395 640.979 910.532 L646.741 887.765 L647.022 885.891 Q647.022 885.329 646.788 885.048 Q646.6 884.72 645.476 884.486 Q644.399 884.252 642.244 884.252 Q641.354 884.252 640.932 884.205 Q640.557 884.158 640.23 883.924 Q639.902 883.643 639.902 883.081 Q639.902 881.441 641.26 881.254 Q650.254 880.223 653.44 880.223 Q654.002 880.223 654.33 880.504 Q654.658 880.739 654.658 881.02 L654.705 881.254 M639.808 914.935 Q639.808 914.514 639.48 913.343 Q639.152 912.171 638.403 910.532 Q637.653 908.892 636.013 907.721 Q634.421 906.503 632.266 906.503 Q629.362 906.503 626.317 908.986 Q623.319 911.469 621.117 915.685 Q619.43 919.058 617.603 926.131 Q615.823 933.205 615.823 936.718 Q615.823 938.873 616.292 940.794 Q616.807 942.668 618.259 944.213 Q619.711 945.712 621.96 945.712 Q627.441 945.712 632.828 938.92 Q633.859 937.749 634.093 937.28 Q634.374 936.765 634.749 935.36 L639.527 916.575 Q639.808 915.17 639.808 914.935 Z" fill="#000000" fill-rule="evenodd" fill-opacity="1" /><path clip-path="url(#clip630)" d="M664.505 980.87 Q664.505 978.706 666.145 976.837 Q667.817 974.968 670.703 974.148 Q667.752 972.279 667.752 968.18 Q667.752 965.032 669.817 962.605 Q666.669 959.982 666.669 955.686 Q666.669 951.718 669.817 948.8 Q672.965 945.882 677.556 945.882 Q681.59 945.882 684.672 948.308 Q687.885 945.16 691.788 945.127 Q693.526 945.127 694.345 946.209 Q695.198 947.292 695.198 948.439 Q695.198 949.456 694.542 949.948 Q693.919 950.44 693.263 950.44 Q692.443 950.44 691.853 949.915 Q691.296 949.357 691.296 948.505 Q691.296 947.095 692.378 946.669 Q692.181 946.603 691.722 946.603 Q688.443 946.603 685.656 949.226 Q688.41 951.784 688.41 955.752 Q688.41 959.72 685.262 962.638 Q682.114 965.556 677.556 965.556 Q673.785 965.556 670.9 963.458 Q669.752 964.802 669.752 966.639 Q669.752 968.311 670.768 969.623 Q671.785 970.934 673.326 971.131 Q673.785 971.197 678.343 971.197 Q681.032 971.197 682.508 971.262 Q683.983 971.328 686.082 971.787 Q688.213 972.213 689.886 973.066 Q694.247 975.492 694.28 980.739 Q694.28 984.575 689.853 986.969 Q685.459 989.396 679.36 989.396 Q673.195 989.396 668.834 986.936 Q664.505 984.51 664.505 980.87 M668.014 980.87 Q668.014 983.625 671.26 985.723 Q674.507 987.855 679.425 987.855 Q684.246 987.855 687.492 985.756 Q690.771 983.69 690.771 980.87 Q690.771 978.87 689.623 977.591 Q688.476 976.312 686.115 975.787 Q683.787 975.295 682.147 975.197 Q680.507 975.099 677.491 975.099 L673.523 975.099 Q671.227 975.23 669.621 976.902 Q668.014 978.575 668.014 980.87 M671.687 955.752 Q671.687 964.015 677.556 964.015 Q680.507 964.015 682.311 961.326 Q683.393 959.523 683.393 955.686 Q683.393 947.423 677.556 947.423 Q674.605 947.423 672.769 950.112 Q671.687 951.915 671.687 955.752 Z" fill="#000000" fill-rule="evenodd" fill-opacity="1" /><path clip-path="url(#clip630)" d="M707.834 971.951 Q703.407 967.557 703.407 961.195 Q703.407 954.801 707.735 950.144 Q712.097 945.455 718.327 945.455 Q724.426 945.455 728.787 950.112 Q733.181 954.735 733.181 961.195 Q733.181 967.524 728.755 971.918 Q724.361 976.312 718.261 976.312 Q712.293 976.312 707.834 971.951 M708.981 960.638 Q708.981 967.163 710.687 970.114 Q713.31 974.607 718.327 974.607 Q720.819 974.607 722.885 973.262 Q724.984 971.918 726.131 969.655 Q727.607 966.704 727.607 960.638 Q727.607 954.178 725.836 951.325 Q723.213 946.964 718.261 946.964 Q716.097 946.964 713.966 948.111 Q711.867 949.226 710.588 951.456 Q708.981 954.407 708.981 960.638 Z" fill="#000000" fill-rule="evenodd" fill-opacity="1" /><path clip-path="url(#clip630)" d="M736.664 969.163 Q736.664 963.458 743.386 960.441 Q747.419 958.506 755.748 958.014 L755.748 955.555 Q755.748 951.391 753.551 949.194 Q751.387 946.964 748.633 946.964 Q743.714 946.964 741.353 950.046 Q743.353 950.112 744.075 951.128 Q744.796 952.112 744.796 953.128 Q744.796 954.473 743.943 955.358 Q743.124 956.211 741.714 956.211 Q740.369 956.211 739.484 955.391 Q738.598 954.539 738.598 953.063 Q738.598 949.784 741.55 947.62 Q744.534 945.455 748.764 945.455 Q754.273 945.455 757.945 949.161 Q759.093 950.308 759.65 951.784 Q760.241 953.26 760.306 954.243 Q760.372 955.194 760.372 957.096 L760.372 970.508 Q760.372 970.901 760.503 971.557 Q760.634 972.213 761.224 973.066 Q761.847 973.885 762.864 973.885 Q765.291 973.885 765.258 969.59 L765.258 965.819 L766.963 965.819 L766.963 969.59 Q766.963 973.164 765.061 974.574 Q763.192 975.951 761.454 975.951 Q759.224 975.951 757.814 974.312 Q756.404 972.672 756.207 970.442 Q755.191 973 752.863 974.672 Q750.567 976.312 747.419 976.312 Q744.993 976.312 742.697 975.689 Q740.435 975.099 738.533 973.426 Q736.664 971.721 736.664 969.163 M741.845 969.098 Q741.845 971.59 743.615 973.197 Q745.386 974.804 747.878 974.804 Q750.698 974.804 753.223 972.639 Q755.748 970.442 755.748 966.147 L755.748 959.424 Q748.305 959.687 745.058 962.671 Q741.845 965.622 741.845 969.098 Z" fill="#000000" fill-rule="evenodd" fill-opacity="1" /><path clip-path="url(#clip630)" d="M769.652 975.558 L769.652 973.492 Q773.226 973.492 774.046 973.066 Q774.866 972.607 774.866 970.442 L774.866 935.519 Q774.866 933.027 773.98 932.404 Q773.128 931.781 769.652 931.781 L769.652 929.683 L779.292 928.961 L779.292 970.442 Q779.292 972.607 780.145 973.066 Q780.998 973.492 784.539 973.492 L784.539 975.558 Q783.719 975.558 782.014 975.492 Q780.309 975.427 779.063 975.394 Q777.817 975.361 777.095 975.361 Q776.308 975.361 769.652 975.558 Z" fill="#000000" fill-rule="evenodd" fill-opacity="1" /><polyline clip-path="url(#clip630)" style="stroke:#000000; stroke-linecap:round; stroke-linejoin:round; stroke-width:4; stroke-opacity:1; fill:none" points="275.898,794.853 275.898,296.613 "/>
<polyline clip-path="url(#clip630)" style="stroke:#000000; stroke-linecap:round; stroke-linejoin:round; stroke-width:4; stroke-opacity:1; fill:none" points="275.898,794.853 294.796,794.853 "/>
<polyline clip-path="url(#clip630)" style="stroke:#000000; stroke-linecap:round; stroke-linejoin:round; stroke-width:4; stroke-opacity:1; fill:none" points="275.898,695.205 294.796,695.205 "/>
<polyline clip-path="url(#clip630)" style="stroke:#000000; stroke-linecap:round; stroke-linejoin:round; stroke-width:4; stroke-opacity:1; fill:none" points="275.898,595.557 294.796,595.557 "/>
<polyline clip-path="url(#clip630)" style="stroke:#000000; stroke-linecap:round; stroke-linejoin:round; stroke-width:4; stroke-opacity:1; fill:none" points="275.898,495.909 294.796,495.909 "/>
<polyline clip-path="url(#clip630)" style="stroke:#000000; stroke-linecap:round; stroke-linejoin:round; stroke-width:4; stroke-opacity:1; fill:none" points="275.898,396.261 294.796,396.261 "/>
<polyline clip-path="url(#clip630)" style="stroke:#000000; stroke-linecap:round; stroke-linejoin:round; stroke-width:4; stroke-opacity:1; fill:none" points="275.898,296.613 294.796,296.613 "/>
<path clip-path="url(#clip630)" d="M173.723 780.652 Q170.112 780.652 168.283 784.216 Q166.477 787.758 166.477 794.888 Q166.477 801.994 168.283 805.559 Q170.112 809.1 173.723 809.1 Q177.357 809.1 179.163 805.559 Q180.991 801.994 180.991 794.888 Q180.991 787.758 179.163 784.216 Q177.357 780.652 173.723 780.652 M173.723 776.948 Q179.533 776.948 182.588 781.554 Q185.667 786.138 185.667 794.888 Q185.667 803.614 182.588 808.221 Q179.533 812.804 173.723 812.804 Q167.913 812.804 164.834 808.221 Q161.778 803.614 161.778 794.888 Q161.778 786.138 164.834 781.554 Q167.913 776.948 173.723 776.948 Z" fill="#000000" fill-rule="evenodd" fill-opacity="1" /><path clip-path="url(#clip630)" d="M193.885 806.253 L198.769 806.253 L198.769 812.133 L193.885 812.133 L193.885 806.253 Z" fill="#000000" fill-rule="evenodd" fill-opacity="1" /><path clip-path="url(#clip630)" d="M218.954 780.652 Q215.343 780.652 213.514 784.216 Q211.709 787.758 211.709 794.888 Q211.709 801.994 213.514 805.559 Q215.343 809.1 218.954 809.1 Q222.588 809.1 224.394 805.559 Q226.222 801.994 226.222 794.888 Q226.222 787.758 224.394 784.216 Q222.588 780.652 218.954 780.652 M218.954 776.948 Q224.764 776.948 227.82 781.554 Q230.898 786.138 230.898 794.888 Q230.898 803.614 227.82 808.221 Q224.764 812.804 218.954 812.804 Q213.144 812.804 210.065 808.221 Q207.01 803.614 207.01 794.888 Q207.01 786.138 210.065 781.554 Q213.144 776.948 218.954 776.948 Z" fill="#000000" fill-rule="evenodd" fill-opacity="1" /><path clip-path="url(#clip630)" d="M175.32 681.004 Q171.709 681.004 169.88 684.568 Q168.075 688.11 168.075 695.24 Q168.075 702.346 169.88 705.911 Q171.709 709.453 175.32 709.453 Q178.954 709.453 180.76 705.911 Q182.588 702.346 182.588 695.24 Q182.588 688.11 180.76 684.568 Q178.954 681.004 175.32 681.004 M175.32 677.3 Q181.13 677.3 184.186 681.906 Q187.264 686.49 187.264 695.24 Q187.264 703.966 184.186 708.573 Q181.13 713.156 175.32 713.156 Q169.51 713.156 166.431 708.573 Q163.376 703.966 163.376 695.24 Q163.376 686.49 166.431 681.906 Q169.51 677.3 175.32 677.3 Z" fill="#000000" fill-rule="evenodd" fill-opacity="1" /><path clip-path="url(#clip630)" d="M195.482 706.605 L200.366 706.605 L200.366 712.485 L195.482 712.485 L195.482 706.605 Z" fill="#000000" fill-rule="evenodd" fill-opacity="1" /><path clip-path="url(#clip630)" d="M214.579 708.55 L230.898 708.55 L230.898 712.485 L208.954 712.485 L208.954 708.55 Q211.616 705.795 216.199 701.166 Q220.806 696.513 221.986 695.17 Q224.232 692.647 225.111 690.911 Q226.014 689.152 226.014 687.462 Q226.014 684.707 224.07 682.971 Q222.148 681.235 219.047 681.235 Q216.848 681.235 214.394 681.999 Q211.963 682.763 209.186 684.314 L209.186 679.592 Q212.01 678.457 214.463 677.879 Q216.917 677.3 218.954 677.3 Q224.324 677.3 227.519 679.985 Q230.713 682.67 230.713 687.161 Q230.713 689.291 229.903 691.212 Q229.116 693.11 227.01 695.703 Q226.431 696.374 223.329 699.591 Q220.227 702.786 214.579 708.55 Z" fill="#000000" fill-rule="evenodd" fill-opacity="1" /><path clip-path="url(#clip630)" d="M173.237 581.356 Q169.626 581.356 167.797 584.92 Q165.991 588.462 165.991 595.592 Q165.991 602.698 167.797 606.263 Q169.626 609.805 173.237 609.805 Q176.871 609.805 178.676 606.263 Q180.505 602.698 180.505 595.592 Q180.505 588.462 178.676 584.92 Q176.871 581.356 173.237 581.356 M173.237 577.652 Q179.047 577.652 182.102 582.258 Q185.181 586.842 185.181 595.592 Q185.181 604.318 182.102 608.925 Q179.047 613.508 173.237 613.508 Q167.427 613.508 164.348 608.925 Q161.292 604.318 161.292 595.592 Q161.292 586.842 164.348 582.258 Q167.427 577.652 173.237 577.652 Z" fill="#000000" fill-rule="evenodd" fill-opacity="1" /><path clip-path="url(#clip630)" d="M193.399 606.957 L198.283 606.957 L198.283 612.837 L193.399 612.837 L193.399 606.957 Z" fill="#000000" fill-rule="evenodd" fill-opacity="1" /><path clip-path="url(#clip630)" d="M221.315 582.351 L209.51 600.8 L221.315 600.8 L221.315 582.351 M220.088 578.277 L225.968 578.277 L225.968 600.8 L230.898 600.8 L230.898 604.689 L225.968 604.689 L225.968 612.837 L221.315 612.837 L221.315 604.689 L205.713 604.689 L205.713 600.175 L220.088 578.277 Z" fill="#000000" fill-rule="evenodd" fill-opacity="1" /><path clip-path="url(#clip630)" d="M173.561 481.708 Q169.95 481.708 168.121 485.273 Q166.315 488.814 166.315 495.944 Q166.315 503.05 168.121 506.615 Q169.95 510.157 173.561 510.157 Q177.195 510.157 179.001 506.615 Q180.829 503.05 180.829 495.944 Q180.829 488.814 179.001 485.273 Q177.195 481.708 173.561 481.708 M173.561 478.004 Q179.371 478.004 182.426 482.611 Q185.505 487.194 185.505 495.944 Q185.505 504.671 182.426 509.277 Q179.371 513.86 173.561 513.86 Q167.751 513.86 164.672 509.277 Q161.616 504.671 161.616 495.944 Q161.616 487.194 164.672 482.611 Q167.751 478.004 173.561 478.004 Z" fill="#000000" fill-rule="evenodd" fill-opacity="1" /><path clip-path="url(#clip630)" d="M193.723 507.309 L198.607 507.309 L198.607 513.189 L193.723 513.189 L193.723 507.309 Z" fill="#000000" fill-rule="evenodd" fill-opacity="1" /><path clip-path="url(#clip630)" d="M219.371 494.046 Q216.223 494.046 214.371 496.198 Q212.542 498.351 212.542 502.101 Q212.542 505.828 214.371 508.004 Q216.223 510.157 219.371 510.157 Q222.519 510.157 224.348 508.004 Q226.199 505.828 226.199 502.101 Q226.199 498.351 224.348 496.198 Q222.519 494.046 219.371 494.046 M228.653 479.393 L228.653 483.652 Q226.894 482.819 225.088 482.379 Q223.306 481.939 221.547 481.939 Q216.917 481.939 214.463 485.064 Q212.033 488.189 211.686 494.509 Q213.051 492.495 215.111 491.43 Q217.172 490.342 219.648 490.342 Q224.857 490.342 227.866 493.513 Q230.898 496.661 230.898 502.101 Q230.898 507.425 227.75 510.643 Q224.602 513.86 219.371 513.86 Q213.375 513.86 210.204 509.277 Q207.033 504.671 207.033 495.944 Q207.033 487.749 210.922 482.888 Q214.811 478.004 221.361 478.004 Q223.121 478.004 224.903 478.351 Q226.709 478.698 228.653 479.393 Z" fill="#000000" fill-rule="evenodd" fill-opacity="1" /><path clip-path="url(#clip630)" d="M173.815 382.06 Q170.204 382.06 168.376 385.625 Q166.57 389.166 166.57 396.296 Q166.57 403.402 168.376 406.967 Q170.204 410.509 173.815 410.509 Q177.45 410.509 179.255 406.967 Q181.084 403.402 181.084 396.296 Q181.084 389.166 179.255 385.625 Q177.45 382.06 173.815 382.06 M173.815 378.356 Q179.626 378.356 182.681 382.963 Q185.76 387.546 185.76 396.296 Q185.76 405.023 182.681 409.629 Q179.626 414.212 173.815 414.212 Q168.005 414.212 164.927 409.629 Q161.871 405.023 161.871 396.296 Q161.871 387.546 164.927 382.963 Q168.005 378.356 173.815 378.356 Z" fill="#000000" fill-rule="evenodd" fill-opacity="1" /><path clip-path="url(#clip630)" d="M193.977 407.662 L198.862 407.662 L198.862 413.541 L193.977 413.541 L193.977 407.662 Z" fill="#000000" fill-rule="evenodd" fill-opacity="1" /><path clip-path="url(#clip630)" d="M219.047 397.129 Q215.713 397.129 213.792 398.912 Q211.894 400.694 211.894 403.819 Q211.894 406.944 213.792 408.726 Q215.713 410.509 219.047 410.509 Q222.38 410.509 224.301 408.726 Q226.222 406.921 226.222 403.819 Q226.222 400.694 224.301 398.912 Q222.403 397.129 219.047 397.129 M214.371 395.138 Q211.361 394.398 209.672 392.338 Q208.005 390.277 208.005 387.314 Q208.005 383.171 210.945 380.764 Q213.908 378.356 219.047 378.356 Q224.209 378.356 227.148 380.764 Q230.088 383.171 230.088 387.314 Q230.088 390.277 228.398 392.338 Q226.732 394.398 223.746 395.138 Q227.125 395.925 229 398.217 Q230.898 400.509 230.898 403.819 Q230.898 408.842 227.82 411.527 Q224.764 414.212 219.047 414.212 Q213.329 414.212 210.25 411.527 Q207.195 408.842 207.195 403.819 Q207.195 400.509 209.093 398.217 Q210.991 395.925 214.371 395.138 M212.658 387.754 Q212.658 390.439 214.324 391.944 Q216.014 393.449 219.047 393.449 Q222.056 393.449 223.746 391.944 Q225.459 390.439 225.459 387.754 Q225.459 385.069 223.746 383.564 Q222.056 382.06 219.047 382.06 Q216.014 382.06 214.324 383.564 Q212.658 385.069 212.658 387.754 Z" fill="#000000" fill-rule="evenodd" fill-opacity="1" /><path clip-path="url(#clip630)" d="M164.533 309.958 L172.172 309.958 L172.172 283.592 L163.862 285.259 L163.862 281 L172.126 279.333 L176.801 279.333 L176.801 309.958 L184.44 309.958 L184.44 313.893 L164.533 313.893 L164.533 309.958 Z" fill="#000000" fill-rule="evenodd" fill-opacity="1" /><path clip-path="url(#clip630)" d="M193.885 308.014 L198.769 308.014 L198.769 313.893 L193.885 313.893 L193.885 308.014 Z" fill="#000000" fill-rule="evenodd" fill-opacity="1" /><path clip-path="url(#clip630)" d="M218.954 282.412 Q215.343 282.412 213.514 285.977 Q211.709 289.518 211.709 296.648 Q211.709 303.754 213.514 307.319 Q215.343 310.861 218.954 310.861 Q222.588 310.861 224.394 307.319 Q226.222 303.754 226.222 296.648 Q226.222 289.518 224.394 285.977 Q222.588 282.412 218.954 282.412 M218.954 278.708 Q224.764 278.708 227.82 283.315 Q230.898 287.898 230.898 296.648 Q230.898 305.375 227.82 309.981 Q224.764 314.564 218.954 314.564 Q213.144 314.564 210.065 309.981 Q207.01 305.375 207.01 296.648 Q207.01 287.898 210.065 283.315 Q213.144 278.708 218.954 278.708 Z" fill="#000000" fill-rule="evenodd" fill-opacity="1" /><path clip-path="url(#clip630)" d="M59.531 519.503 Q66.3704 519.503 72.9755 522.97 Q79.5807 526.389 83.6562 531.776 Q87.6848 537.164 87.6848 542.644 Q87.6848 545.924 85.9047 548.125 Q84.0778 550.28 81.5013 551.451 Q84.6868 552.341 92.3225 554.262 Q99.9582 556.183 100.708 556.183 Q101.129 556.183 101.317 556.089 Q101.504 555.995 101.738 555.574 Q102.019 555.152 102.113 554.121 Q102.254 553.091 102.254 551.358 Q102.254 550.468 102.254 550.14 Q102.3 549.765 102.535 549.437 Q102.769 549.062 103.284 549.062 Q105.205 549.062 105.205 550.795 Q105.205 552.341 105.064 555.527 Q104.924 558.712 104.924 560.305 Q104.924 561.663 105.064 564.38 Q105.205 567.097 105.205 568.362 Q105.205 569.627 104.081 569.627 Q103.425 569.627 103.003 569.44 Q102.628 569.299 102.441 568.924 Q102.3 568.55 102.254 568.222 Q102.254 567.941 102.254 567.379 Q102.254 565.224 101.879 564.287 Q101.551 563.35 100.848 563.022 Q100.192 562.647 98.3186 562.226 L55.5961 551.451 Q52.7385 550.795 50.7242 550.795 Q48.1946 550.795 47.2577 551.592 Q46.3208 552.388 46.3208 553.794 Q46.3208 556.229 49.2252 557.822 Q52.1296 559.415 57.7509 560.773 Q59.2968 561.195 59.6247 561.476 Q59.9527 561.71 59.9527 562.413 Q59.9058 563.584 58.9689 563.584 Q58.7347 563.584 57.2356 563.209 Q55.6898 562.835 53.4412 562.132 Q51.1458 561.382 49.6936 560.586 Q48.7099 560.118 48.054 559.696 Q47.3982 559.274 46.3676 558.431 Q45.337 557.541 44.7749 556.276 Q44.2128 555.011 44.2128 553.466 Q44.2128 550.468 45.9929 547.985 Q47.773 545.502 51.38 544.846 Q48.2414 542.176 46.2271 538.897 Q44.2128 535.618 44.2128 532.292 Q44.2128 526.764 48.5225 523.157 Q52.7854 519.503 59.531 519.503 M55.315 526.436 Q51.0521 526.436 48.7099 528.076 Q46.3208 529.668 46.3208 532.573 Q46.3208 536.18 49.9747 540.349 Q53.4412 544.471 56.6735 545.315 L75.4583 550.046 L77.0042 550.327 Q77.2853 550.327 78.1285 550.186 Q78.9248 549.999 80.2365 549.484 Q81.5481 548.922 82.7193 548.172 Q83.8435 547.376 84.6868 545.97 Q85.53 544.518 85.53 542.738 Q85.53 539.881 83.0003 536.789 Q80.4707 533.65 75.6925 531.308 Q72.6008 529.856 65.9488 528.169 Q59.25 526.436 55.315 526.436 Z" fill="#000000" fill-rule="evenodd" fill-opacity="1" /><path clip-path="url(#clip630)" d="M580.177 218.616 L580.177 226.026 Q575.851 223.958 572.014 222.942 Q568.177 221.926 564.604 221.926 Q558.397 221.926 555.012 224.334 Q551.664 226.741 551.664 231.18 Q551.664 234.904 553.884 236.822 Q556.14 238.703 562.385 239.869 L566.974 240.809 Q575.475 242.427 579.5 246.527 Q583.562 250.589 583.562 257.435 Q583.562 265.598 578.07 269.811 Q572.616 274.024 562.046 274.024 Q558.059 274.024 553.545 273.121 Q549.069 272.218 544.254 270.45 L544.254 262.626 Q548.881 265.222 553.319 266.538 Q557.758 267.855 562.046 267.855 Q568.554 267.855 572.089 265.297 Q575.625 262.739 575.625 258 Q575.625 253.862 573.067 251.53 Q570.547 249.198 564.754 248.032 L560.128 247.129 Q551.627 245.436 547.827 241.825 Q544.028 238.214 544.028 231.782 Q544.028 224.334 549.257 220.046 Q554.523 215.757 563.739 215.757 Q567.688 215.757 571.789 216.472 Q575.889 217.187 580.177 218.616 Z" fill="#000000" fill-rule="evenodd" fill-opacity="1" /><path clip-path="url(#clip630)" d="M594.395 256.307 L594.395 230.804 L601.317 230.804 L601.317 256.044 Q601.317 262.025 603.649 265.034 Q605.981 268.005 610.645 268.005 Q616.25 268.005 619.485 264.432 Q622.758 260.858 622.758 254.69 L622.758 230.804 L629.679 230.804 L629.679 272.933 L622.758 272.933 L622.758 266.463 Q620.237 270.3 616.89 272.181 Q613.579 274.024 609.178 274.024 Q601.919 274.024 598.157 269.51 Q594.395 264.996 594.395 256.307 M611.811 229.788 L611.811 229.788 Z" fill="#000000" fill-rule="evenodd" fill-opacity="1" /><path clip-path="url(#clip630)" d="M674.178 251.906 Q674.178 244.27 671.018 239.944 Q667.896 235.581 662.404 235.581 Q656.912 235.581 653.753 239.944 Q650.631 244.27 650.631 251.906 Q650.631 259.542 653.753 263.905 Q656.912 268.231 662.404 268.231 Q667.896 268.231 671.018 263.905 Q674.178 259.542 674.178 251.906 M650.631 237.198 Q652.812 233.437 656.123 231.631 Q659.47 229.788 664.097 229.788 Q671.771 229.788 676.548 235.882 Q681.363 241.975 681.363 251.906 Q681.363 261.836 676.548 267.93 Q671.771 274.024 664.097 274.024 Q659.47 274.024 656.123 272.218 Q652.812 270.375 650.631 266.614 L650.631 272.933 L643.672 272.933 L643.672 214.403 L650.631 214.403 L650.631 237.198 Z" fill="#000000" fill-rule="evenodd" fill-opacity="1" /><path clip-path="url(#clip630)" d="M692.835 230.804 L699.757 230.804 L699.757 273.685 Q699.757 281.735 696.672 285.346 Q693.625 288.957 686.817 288.957 L684.184 288.957 L684.184 283.089 L686.027 283.089 Q689.977 283.089 691.406 281.246 Q692.835 279.441 692.835 273.685 L692.835 230.804 M692.835 214.403 L699.757 214.403 L699.757 223.168 L692.835 223.168 L692.835 214.403 Z" fill="#000000" fill-rule="evenodd" fill-opacity="1" /><path clip-path="url(#clip630)" d="M750.274 250.138 L750.274 253.523 L718.452 253.523 Q718.903 260.67 722.74 264.432 Q726.614 268.156 733.498 268.156 Q737.485 268.156 741.209 267.178 Q744.97 266.2 748.657 264.244 L748.657 270.789 Q744.933 272.369 741.021 273.196 Q737.109 274.024 733.084 274.024 Q723.003 274.024 717.097 268.156 Q711.229 262.288 711.229 252.282 Q711.229 241.938 716.796 235.882 Q722.401 229.788 731.88 229.788 Q740.381 229.788 745.309 235.28 Q750.274 240.734 750.274 250.138 M743.353 248.107 Q743.278 242.427 740.156 239.041 Q737.071 235.656 731.955 235.656 Q726.163 235.656 722.664 238.929 Q719.204 242.201 718.677 248.144 L743.353 248.107 Z" fill="#000000" fill-rule="evenodd" fill-opacity="1" /><path clip-path="url(#clip630)" d="M791.952 232.421 L791.952 238.891 Q789.018 237.274 786.047 236.484 Q783.113 235.656 780.103 235.656 Q773.37 235.656 769.646 239.944 Q765.922 244.195 765.922 251.906 Q765.922 259.617 769.646 263.905 Q773.37 268.156 780.103 268.156 Q783.113 268.156 786.047 267.366 Q789.018 266.538 791.952 264.921 L791.952 271.316 Q789.056 272.67 785.934 273.347 Q782.849 274.024 779.351 274.024 Q769.834 274.024 764.23 268.043 Q758.625 262.062 758.625 251.906 Q758.625 241.599 764.267 235.694 Q769.947 229.788 779.802 229.788 Q783 229.788 786.047 230.465 Q789.093 231.105 791.952 232.421 Z" fill="#000000" fill-rule="evenodd" fill-opacity="1" /><path clip-path="url(#clip630)" d="M810.835 218.842 L810.835 230.804 L825.092 230.804 L825.092 236.183 L810.835 236.183 L810.835 259.053 Q810.835 264.206 812.227 265.673 Q813.656 267.14 817.982 267.14 L825.092 267.14 L825.092 272.933 L817.982 272.933 Q809.97 272.933 806.923 269.961 Q803.876 266.952 803.876 259.053 L803.876 236.183 L798.798 236.183 L798.798 230.804 L803.876 230.804 L803.876 218.842 L810.835 218.842 Z" fill="#000000" fill-rule="evenodd" fill-opacity="1" /><path clip-path="url(#clip630)" d="M861.052 232.045 L861.052 238.59 Q858.118 237.085 854.958 236.333 Q851.799 235.581 848.413 235.581 Q843.26 235.581 840.664 237.161 Q838.107 238.741 838.107 241.9 Q838.107 244.308 839.95 245.699 Q841.793 247.054 847.36 248.295 L849.73 248.822 Q857.102 250.401 860.187 253.298 Q863.309 256.157 863.309 261.31 Q863.309 267.178 858.645 270.601 Q854.018 274.024 845.893 274.024 Q842.508 274.024 838.821 273.347 Q835.173 272.707 831.11 271.391 L831.11 264.244 Q834.947 266.238 838.671 267.253 Q842.395 268.231 846.043 268.231 Q850.933 268.231 853.567 266.576 Q856.2 264.883 856.2 261.836 Q856.2 259.015 854.281 257.511 Q852.4 256.006 845.968 254.614 L843.561 254.05 Q837.129 252.696 834.27 249.912 Q831.411 247.091 831.411 242.201 Q831.411 236.258 835.624 233.023 Q839.837 229.788 847.586 229.788 Q851.422 229.788 854.808 230.352 Q858.193 230.917 861.052 232.045 Z" fill="#000000" fill-rule="evenodd" fill-opacity="1" /><path clip-path="url(#clip633)" d="M1131.44 296.613 L1030.72 296.613 L917.275 296.613 L839.9 296.613 L742.631 296.613 L670.364 296.613 L592.743 296.613 L510.428 296.613 L435.858 296.613 L275.898 296.613 L275.898 794.853 L435.858 794.853 L510.428 794.853 L592.743 794.853 L670.364 794.853 L742.631 794.853 L839.9 794.853 L917.275 794.853 L1030.72 794.853 L1131.44 794.853  Z" fill="#009af9" fill-rule="evenodd" fill-opacity="1"/>
<polyline clip-path="url(#clip633)" style="stroke:#009af9; stroke-linecap:round; stroke-linejoin:round; stroke-width:20; stroke-opacity:1; fill:none" points="1131.44,296.613 1030.72,296.613 917.275,296.613 839.9,296.613 742.631,296.613 670.364,296.613 592.743,296.613 510.428,296.613 435.858,296.613 275.898,296.613 "/>
<path clip-path="url(#clip633)" d="M1131.44 305.333 L1030.72 326.469 L917.275 342.992 L839.9 365.232 L742.631 380.882 L670.364 393.404 L592.743 397.301 L510.428 401.046 L435.858 404.651 L275.898 406.92 L275.898 794.853 L435.858 794.853 L510.428 794.853 L592.743 794.853 L670.364 794.853 L742.631 794.853 L839.9 794.853 L917.275 794.853 L1030.72 794.853 L1131.44 794.853  Z" fill="#e26f46" fill-rule="evenodd" fill-opacity="1"/>
<polyline clip-path="url(#clip633)" style="stroke:#e26f46; stroke-linecap:round; stroke-linejoin:round; stroke-width:20; stroke-opacity:1; fill:none" points="1131.44,305.333 1030.72,326.469 917.275,342.992 839.9,365.232 742.631,380.882 670.364,393.404 592.743,397.301 510.428,401.046 435.858,404.651 275.898,406.92 "/>
<path clip-path="url(#clip633)" d="M1131.44 349.628 L1030.72 410.126 L917.275 458.358 L839.9 476.854 L742.631 497.416 L670.364 536.355 L592.743 540.141 L510.428 562.764 L435.858 583.124 L275.898 585.195 L275.898 794.853 L435.858 794.853 L510.428 794.853 L592.743 794.853 L670.364 794.853 L742.631 794.853 L839.9 794.853 L917.275 794.853 L1030.72 794.853 L1131.44 794.853  Z" fill="#3da44d" fill-rule="evenodd" fill-opacity="1"/>
<polyline clip-path="url(#clip633)" style="stroke:#3da44d; stroke-linecap:round; stroke-linejoin:round; stroke-width:20; stroke-opacity:1; fill:none" points="1131.44,349.628 1030.72,410.126 917.275,458.358 839.9,476.854 742.631,497.416 670.364,536.355 592.743,540.141 510.428,562.764 435.858,583.124 275.898,585.195 "/>
<path clip-path="url(#clip630)" d="M1194.43 794.853 L2049.97 794.853 L2049.97 296.613 L1194.43 296.613  Z" fill="#ffffff" fill-rule="evenodd" fill-opacity="1"/>
<defs>
  <clipPath id="clip634">
    <rect x="1194" y="296" width="857" height="499"/>
  </clipPath>
</defs>
<polyline clip-path="url(#clip630)" style="stroke:#000000; stroke-linecap:round; stroke-linejoin:round; stroke-width:4; stroke-opacity:1; fill:none" points="2049.97,794.853 1194.43,794.853 "/>
<polyline clip-path="url(#clip630)" style="stroke:#000000; stroke-linecap:round; stroke-linejoin:round; stroke-width:4; stroke-opacity:1; fill:none" points="2020.37,794.853 2020.37,775.955 "/>
<polyline clip-path="url(#clip630)" style="stroke:#000000; stroke-linecap:round; stroke-linejoin:round; stroke-width:4; stroke-opacity:1; fill:none" points="1896.21,794.853 1896.21,775.955 "/>
<polyline clip-path="url(#clip630)" style="stroke:#000000; stroke-linecap:round; stroke-linejoin:round; stroke-width:4; stroke-opacity:1; fill:none" points="1772.06,794.853 1772.06,775.955 "/>
<polyline clip-path="url(#clip630)" style="stroke:#000000; stroke-linecap:round; stroke-linejoin:round; stroke-width:4; stroke-opacity:1; fill:none" points="1647.9,794.853 1647.9,775.955 "/>
<polyline clip-path="url(#clip630)" style="stroke:#000000; stroke-linecap:round; stroke-linejoin:round; stroke-width:4; stroke-opacity:1; fill:none" points="1523.74,794.853 1523.74,775.955 "/>
<polyline clip-path="url(#clip630)" style="stroke:#000000; stroke-linecap:round; stroke-linejoin:round; stroke-width:4; stroke-opacity:1; fill:none" points="1399.59,794.853 1399.59,775.955 "/>
<polyline clip-path="url(#clip630)" style="stroke:#000000; stroke-linecap:round; stroke-linejoin:round; stroke-width:4; stroke-opacity:1; fill:none" points="1275.43,794.853 1275.43,775.955 "/>
<path clip-path="url(#clip630)" d="M2015.02 858.118 L2031.34 858.118 L2031.34 862.053 L2009.39 862.053 L2009.39 858.118 Q2012.06 855.363 2016.64 850.733 Q2021.25 846.081 2022.43 844.738 Q2024.67 842.215 2025.55 840.479 Q2026.45 838.72 2026.45 837.03 Q2026.45 834.275 2024.51 832.539 Q2022.59 830.803 2019.49 830.803 Q2017.29 830.803 2014.83 831.567 Q2012.4 832.331 2009.63 833.882 L2009.63 829.159 Q2012.45 828.025 2014.9 827.447 Q2017.36 826.868 2019.39 826.868 Q2024.76 826.868 2027.96 829.553 Q2031.15 832.238 2031.15 836.729 Q2031.15 838.859 2030.34 840.78 Q2029.56 842.678 2027.45 845.271 Q2026.87 845.942 2023.77 849.159 Q2020.67 852.354 2015.02 858.118 Z" fill="#000000" fill-rule="evenodd" fill-opacity="1" /><path clip-path="url(#clip630)" d="M1899.22 831.567 L1887.41 850.016 L1899.22 850.016 L1899.22 831.567 M1897.99 827.493 L1903.87 827.493 L1903.87 850.016 L1908.8 850.016 L1908.8 853.905 L1903.87 853.905 L1903.87 862.053 L1899.22 862.053 L1899.22 853.905 L1883.62 853.905 L1883.62 849.391 L1897.99 827.493 Z" fill="#000000" fill-rule="evenodd" fill-opacity="1" /><path clip-path="url(#clip630)" d="M1772.46 842.909 Q1769.31 842.909 1767.46 845.062 Q1765.63 847.215 1765.63 850.965 Q1765.63 854.692 1767.46 856.868 Q1769.31 859.02 1772.46 859.02 Q1775.61 859.02 1777.44 856.868 Q1779.29 854.692 1779.29 850.965 Q1779.29 847.215 1777.44 845.062 Q1775.61 842.909 1772.46 842.909 M1781.74 828.257 L1781.74 832.516 Q1779.98 831.683 1778.18 831.243 Q1776.4 830.803 1774.64 830.803 Q1770.01 830.803 1767.55 833.928 Q1765.12 837.053 1764.78 843.372 Q1766.14 841.358 1768.2 840.294 Q1770.26 839.206 1772.74 839.206 Q1777.95 839.206 1780.96 842.377 Q1783.99 845.525 1783.99 850.965 Q1783.99 856.289 1780.84 859.507 Q1777.69 862.724 1772.46 862.724 Q1766.47 862.724 1763.29 858.141 Q1760.12 853.534 1760.12 844.808 Q1760.12 836.613 1764.01 831.752 Q1767.9 826.868 1774.45 826.868 Q1776.21 826.868 1777.99 827.215 Q1779.8 827.562 1781.74 828.257 Z" fill="#000000" fill-rule="evenodd" fill-opacity="1" /><path clip-path="url(#clip630)" d="M1647.9 845.641 Q1644.57 845.641 1642.65 847.423 Q1640.75 849.206 1640.75 852.331 Q1640.75 855.456 1642.65 857.238 Q1644.57 859.02 1647.9 859.02 Q1651.23 859.02 1653.15 857.238 Q1655.08 855.432 1655.08 852.331 Q1655.08 849.206 1653.15 847.423 Q1651.26 845.641 1647.9 845.641 M1643.22 843.65 Q1640.21 842.909 1638.52 840.849 Q1636.86 838.789 1636.86 835.826 Q1636.86 831.683 1639.8 829.275 Q1642.76 826.868 1647.9 826.868 Q1653.06 826.868 1656 829.275 Q1658.94 831.683 1658.94 835.826 Q1658.94 838.789 1657.25 840.849 Q1655.59 842.909 1652.6 843.65 Q1655.98 844.437 1657.85 846.729 Q1659.75 849.02 1659.75 852.331 Q1659.75 857.354 1656.67 860.039 Q1653.62 862.724 1647.9 862.724 Q1642.18 862.724 1639.1 860.039 Q1636.05 857.354 1636.05 852.331 Q1636.05 849.02 1637.95 846.729 Q1639.84 844.437 1643.22 843.65 M1641.51 836.266 Q1641.51 838.951 1643.18 840.456 Q1644.87 841.96 1647.9 841.96 Q1650.91 841.96 1652.6 840.456 Q1654.31 838.951 1654.31 836.266 Q1654.31 833.581 1652.6 832.076 Q1650.91 830.572 1647.9 830.572 Q1644.87 830.572 1643.18 832.076 Q1641.51 833.581 1641.51 836.266 Z" fill="#000000" fill-rule="evenodd" fill-opacity="1" /><path clip-path="url(#clip630)" d="M1498.43 858.118 L1506.07 858.118 L1506.07 831.752 L1497.76 833.419 L1497.76 829.159 L1506.02 827.493 L1510.7 827.493 L1510.7 858.118 L1518.34 858.118 L1518.34 862.053 L1498.43 862.053 L1498.43 858.118 Z" fill="#000000" fill-rule="evenodd" fill-opacity="1" /><path clip-path="url(#clip630)" d="M1537.78 830.572 Q1534.17 830.572 1532.34 834.136 Q1530.54 837.678 1530.54 844.808 Q1530.54 851.914 1532.34 855.479 Q1534.17 859.02 1537.78 859.02 Q1541.42 859.02 1543.22 855.479 Q1545.05 851.914 1545.05 844.808 Q1545.05 837.678 1543.22 834.136 Q1541.42 830.572 1537.78 830.572 M1537.78 826.868 Q1543.59 826.868 1546.65 831.474 Q1549.73 836.058 1549.73 844.808 Q1549.73 853.534 1546.65 858.141 Q1543.59 862.724 1537.78 862.724 Q1531.97 862.724 1528.89 858.141 Q1525.84 853.534 1525.84 844.808 Q1525.84 836.058 1528.89 831.474 Q1531.97 826.868 1537.78 826.868 Z" fill="#000000" fill-rule="evenodd" fill-opacity="1" /><path clip-path="url(#clip630)" d="M1375.07 858.118 L1382.71 858.118 L1382.71 831.752 L1374.4 833.419 L1374.4 829.159 L1382.67 827.493 L1387.34 827.493 L1387.34 858.118 L1394.98 858.118 L1394.98 862.053 L1375.07 862.053 L1375.07 858.118 Z" fill="#000000" fill-rule="evenodd" fill-opacity="1" /><path clip-path="url(#clip630)" d="M1408.45 858.118 L1424.77 858.118 L1424.77 862.053 L1402.83 862.053 L1402.83 858.118 Q1405.49 855.363 1410.07 850.733 Q1414.68 846.081 1415.86 844.738 Q1418.11 842.215 1418.99 840.479 Q1419.89 838.72 1419.89 837.03 Q1419.89 834.275 1417.95 832.539 Q1416.02 830.803 1412.92 830.803 Q1410.72 830.803 1408.27 831.567 Q1405.84 832.331 1403.06 833.882 L1403.06 829.159 Q1405.88 828.025 1408.34 827.447 Q1410.79 826.868 1412.83 826.868 Q1418.2 826.868 1421.39 829.553 Q1424.59 832.238 1424.59 836.729 Q1424.59 838.859 1423.78 840.78 Q1422.99 842.678 1420.88 845.271 Q1420.31 845.942 1417.2 849.159 Q1414.1 852.354 1408.45 858.118 Z" fill="#000000" fill-rule="evenodd" fill-opacity="1" /><path clip-path="url(#clip630)" d="M1249.88 858.118 L1257.52 858.118 L1257.52 831.752 L1249.21 833.419 L1249.21 829.159 L1257.47 827.493 L1262.15 827.493 L1262.15 858.118 L1269.78 858.118 L1269.78 862.053 L1249.88 862.053 L1249.88 858.118 Z" fill="#000000" fill-rule="evenodd" fill-opacity="1" /><path clip-path="url(#clip630)" d="M1292.08 831.567 L1280.27 850.016 L1292.08 850.016 L1292.08 831.567 M1290.85 827.493 L1296.73 827.493 L1296.73 850.016 L1301.66 850.016 L1301.66 853.905 L1296.73 853.905 L1296.73 862.053 L1292.08 862.053 L1292.08 853.905 L1276.47 853.905 L1276.47 849.391 L1290.85 827.493 Z" fill="#000000" fill-rule="evenodd" fill-opacity="1" /><path clip-path="url(#clip630)" d="M1573.24 881.254 L1559.42 936.718 Q1558.86 939.201 1558.86 941.309 Q1558.86 945.712 1561.71 945.712 Q1563.12 945.712 1564.24 944.822 Q1565.37 943.932 1566.26 942.059 Q1567.15 940.185 1567.71 938.451 Q1568.27 936.671 1569.02 933.861 Q1569.26 932.736 1569.44 932.455 Q1569.68 932.127 1570.33 932.127 Q1571.5 932.127 1571.5 933.064 Q1570.24 939.107 1568.6 942.574 Q1565.98 947.867 1561.53 947.867 Q1558.15 947.867 1555.76 945.806 Q1553.37 943.745 1552.81 940.653 Q1546.68 947.867 1540.31 947.867 Q1534.68 947.867 1531.12 943.604 Q1527.56 939.295 1527.56 932.502 Q1527.56 925.663 1530.94 919.105 Q1534.36 912.546 1539.74 908.471 Q1545.13 904.395 1550.66 904.395 Q1556.51 904.395 1559.51 910.532 L1565.27 887.765 L1565.55 885.891 Q1565.55 885.329 1565.32 885.048 Q1565.13 884.72 1564.01 884.486 Q1562.93 884.252 1560.78 884.252 Q1559.89 884.252 1559.46 884.205 Q1559.09 884.158 1558.76 883.924 Q1558.43 883.643 1558.43 883.081 Q1558.43 881.441 1559.79 881.254 Q1568.79 880.223 1571.97 880.223 Q1572.53 880.223 1572.86 880.504 Q1573.19 880.739 1573.19 881.02 L1573.24 881.254 M1558.34 914.935 Q1558.34 914.514 1558.01 913.343 Q1557.68 912.171 1556.94 910.532 Q1556.19 908.892 1554.55 907.721 Q1552.95 906.503 1550.8 906.503 Q1547.89 906.503 1544.85 908.986 Q1541.85 911.469 1539.65 915.685 Q1537.96 919.058 1536.14 926.131 Q1534.36 933.205 1534.36 936.718 Q1534.36 938.873 1534.82 940.794 Q1535.34 942.668 1536.79 944.213 Q1538.24 945.712 1540.49 945.712 Q1545.97 945.712 1551.36 938.92 Q1552.39 937.749 1552.63 937.28 Q1552.91 936.765 1553.28 935.36 L1558.06 916.575 Q1558.34 915.17 1558.34 914.935 Z" fill="#000000" fill-rule="evenodd" fill-opacity="1" /><path clip-path="url(#clip630)" d="M1583.04 980.87 Q1583.04 978.706 1584.68 976.837 Q1586.35 974.968 1589.24 974.148 Q1586.28 972.279 1586.28 968.18 Q1586.28 965.032 1588.35 962.605 Q1585.2 959.982 1585.2 955.686 Q1585.2 951.718 1588.35 948.8 Q1591.5 945.882 1596.09 945.882 Q1600.12 945.882 1603.2 948.308 Q1606.42 945.16 1610.32 945.127 Q1612.06 945.127 1612.88 946.209 Q1613.73 947.292 1613.73 948.439 Q1613.73 949.456 1613.07 949.948 Q1612.45 950.44 1611.8 950.44 Q1610.98 950.44 1610.39 949.915 Q1609.83 949.357 1609.83 948.505 Q1609.83 947.095 1610.91 946.669 Q1610.71 946.603 1610.25 946.603 Q1606.98 946.603 1604.19 949.226 Q1606.94 951.784 1606.94 955.752 Q1606.94 959.72 1603.79 962.638 Q1600.65 965.556 1596.09 965.556 Q1592.32 965.556 1589.43 963.458 Q1588.28 964.802 1588.28 966.639 Q1588.28 968.311 1589.3 969.623 Q1590.32 970.934 1591.86 971.131 Q1592.32 971.197 1596.88 971.197 Q1599.56 971.197 1601.04 971.262 Q1602.52 971.328 1604.61 971.787 Q1606.75 972.213 1608.42 973.066 Q1612.78 975.492 1612.81 980.739 Q1612.81 984.575 1608.39 986.969 Q1603.99 989.396 1597.89 989.396 Q1591.73 989.396 1587.37 986.936 Q1583.04 984.51 1583.04 980.87 M1586.55 980.87 Q1586.55 983.625 1589.79 985.723 Q1593.04 987.855 1597.96 987.855 Q1602.78 987.855 1606.02 985.756 Q1609.3 983.69 1609.3 980.87 Q1609.3 978.87 1608.16 977.591 Q1607.01 976.312 1604.65 975.787 Q1602.32 975.295 1600.68 975.197 Q1599.04 975.099 1596.02 975.099 L1592.06 975.099 Q1589.76 975.23 1588.15 976.902 Q1586.55 978.575 1586.55 980.87 M1590.22 955.752 Q1590.22 964.015 1596.09 964.015 Q1599.04 964.015 1600.84 961.326 Q1601.93 959.523 1601.93 955.686 Q1601.93 947.423 1596.09 947.423 Q1593.14 947.423 1591.3 950.112 Q1590.22 951.915 1590.22 955.752 Z" fill="#000000" fill-rule="evenodd" fill-opacity="1" /><path clip-path="url(#clip630)" d="M1626.37 971.951 Q1621.94 967.557 1621.94 961.195 Q1621.94 954.801 1626.27 950.144 Q1630.63 945.455 1636.86 945.455 Q1642.96 945.455 1647.32 950.112 Q1651.71 954.735 1651.71 961.195 Q1651.71 967.524 1647.29 971.918 Q1642.89 976.312 1636.79 976.312 Q1630.83 976.312 1626.37 971.951 M1627.51 960.638 Q1627.51 967.163 1629.22 970.114 Q1631.84 974.607 1636.86 974.607 Q1639.35 974.607 1641.42 973.262 Q1643.52 971.918 1644.66 969.655 Q1646.14 966.704 1646.14 960.638 Q1646.14 954.178 1644.37 951.325 Q1641.75 946.964 1636.79 946.964 Q1634.63 946.964 1632.5 948.111 Q1630.4 949.226 1629.12 951.456 Q1627.51 954.407 1627.51 960.638 Z" fill="#000000" fill-rule="evenodd" fill-opacity="1" /><path clip-path="url(#clip630)" d="M1655.2 969.163 Q1655.2 963.458 1661.92 960.441 Q1665.95 958.506 1674.28 958.014 L1674.28 955.555 Q1674.28 951.391 1672.08 949.194 Q1669.92 946.964 1667.17 946.964 Q1662.25 946.964 1659.89 950.046 Q1661.89 950.112 1662.61 951.128 Q1663.33 952.112 1663.33 953.128 Q1663.33 954.473 1662.48 955.358 Q1661.66 956.211 1660.25 956.211 Q1658.9 956.211 1658.02 955.391 Q1657.13 954.539 1657.13 953.063 Q1657.13 949.784 1660.08 947.62 Q1663.07 945.455 1667.3 945.455 Q1672.81 945.455 1676.48 949.161 Q1677.63 950.308 1678.18 951.784 Q1678.77 953.26 1678.84 954.243 Q1678.9 955.194 1678.9 957.096 L1678.9 970.508 Q1678.9 970.901 1679.04 971.557 Q1679.17 972.213 1679.76 973.066 Q1680.38 973.885 1681.4 973.885 Q1683.82 973.885 1683.79 969.59 L1683.79 965.819 L1685.5 965.819 L1685.5 969.59 Q1685.5 973.164 1683.59 974.574 Q1681.72 975.951 1679.99 975.951 Q1677.76 975.951 1676.35 974.312 Q1674.94 972.672 1674.74 970.442 Q1673.72 973 1671.4 974.672 Q1669.1 976.312 1665.95 976.312 Q1663.53 976.312 1661.23 975.689 Q1658.97 975.099 1657.07 973.426 Q1655.2 971.721 1655.2 969.163 M1660.38 969.098 Q1660.38 971.59 1662.15 973.197 Q1663.92 974.804 1666.41 974.804 Q1669.23 974.804 1671.76 972.639 Q1674.28 970.442 1674.28 966.147 L1674.28 959.424 Q1666.84 959.687 1663.59 962.671 Q1660.38 965.622 1660.38 969.098 Z" fill="#000000" fill-rule="evenodd" fill-opacity="1" /><path clip-path="url(#clip630)" d="M1688.18 975.558 L1688.18 973.492 Q1691.76 973.492 1692.58 973.066 Q1693.4 972.607 1693.4 970.442 L1693.4 935.519 Q1693.4 933.027 1692.51 932.404 Q1691.66 931.781 1688.18 931.781 L1688.18 929.683 L1697.82 928.961 L1697.82 970.442 Q1697.82 972.607 1698.68 973.066 Q1699.53 973.492 1703.07 973.492 L1703.07 975.558 Q1702.25 975.558 1700.55 975.492 Q1698.84 975.427 1697.6 975.394 Q1696.35 975.361 1695.63 975.361 Q1694.84 975.361 1688.18 975.558 Z" fill="#000000" fill-rule="evenodd" fill-opacity="1" /><polyline clip-path="url(#clip630)" style="stroke:#000000; stroke-linecap:round; stroke-linejoin:round; stroke-width:4; stroke-opacity:1; fill:none" points="1194.43,794.853 1194.43,296.613 "/>
<path clip-path="url(#clip630)" d="M1364.78 224.259 L1354.47 252.207 L1375.12 252.207 L1364.78 224.259 M1360.49 216.773 L1369.11 216.773 L1390.51 272.933 L1382.61 272.933 L1377.49 258.526 L1352.18 258.526 L1347.06 272.933 L1339.05 272.933 L1360.49 216.773 Z" fill="#000000" fill-rule="evenodd" fill-opacity="1" /><path clip-path="url(#clip630)" d="M1398.71 216.773 L1408.94 216.773 L1433.84 263.755 L1433.84 216.773 L1441.21 216.773 L1441.21 272.933 L1430.98 272.933 L1406.08 225.951 L1406.08 272.933 L1398.71 272.933 L1398.71 216.773 Z" fill="#000000" fill-rule="evenodd" fill-opacity="1" /><path clip-path="url(#clip630)" d="M1463.93 223.017 L1463.93 266.689 L1473.11 266.689 Q1484.74 266.689 1490.11 261.423 Q1495.53 256.157 1495.53 244.797 Q1495.53 233.512 1490.11 228.283 Q1484.74 223.017 1473.11 223.017 L1463.93 223.017 M1456.34 216.773 L1471.95 216.773 Q1488.27 216.773 1495.91 223.581 Q1503.54 230.352 1503.54 244.797 Q1503.54 259.316 1495.87 266.125 Q1488.2 272.933 1471.95 272.933 L1456.34 272.933 L1456.34 216.773 Z" fill="#000000" fill-rule="evenodd" fill-opacity="1" /><path clip-path="url(#clip630)" d="M1527.65 216.773 L1534.05 216.773 L1514.49 280.08 L1508.09 280.08 L1527.65 216.773 Z" fill="#000000" fill-rule="evenodd" fill-opacity="1" /><path clip-path="url(#clip630)" d="M1564.4 221.926 Q1556.13 221.926 1551.24 228.095 Q1546.39 234.264 1546.39 244.909 Q1546.39 255.517 1551.24 261.686 Q1556.13 267.855 1564.4 267.855 Q1572.68 267.855 1577.5 261.686 Q1582.35 255.517 1582.35 244.909 Q1582.35 234.264 1577.5 228.095 Q1572.68 221.926 1564.4 221.926 M1564.4 215.757 Q1576.22 215.757 1583.29 223.694 Q1590.36 231.594 1590.36 244.909 Q1590.36 258.188 1583.29 266.125 Q1576.22 274.024 1564.4 274.024 Q1552.56 274.024 1545.45 266.125 Q1538.37 258.225 1538.37 244.909 Q1538.37 231.594 1545.45 223.694 Q1552.56 215.757 1564.4 215.757 Z" fill="#000000" fill-rule="evenodd" fill-opacity="1" /><path clip-path="url(#clip630)" d="M1628.88 246.602 Q1631.32 247.43 1633.62 250.138 Q1635.95 252.846 1638.28 257.586 L1645.99 272.933 L1637.83 272.933 L1630.65 258.526 Q1627.86 252.884 1625.23 251.041 Q1622.63 249.198 1618.12 249.198 L1609.84 249.198 L1609.84 272.933 L1602.25 272.933 L1602.25 216.773 L1619.4 216.773 Q1629.03 216.773 1633.77 220.798 Q1638.51 224.823 1638.51 232.948 Q1638.51 238.252 1636.02 241.75 Q1633.58 245.248 1628.88 246.602 M1609.84 223.017 L1609.84 242.953 L1619.4 242.953 Q1624.89 242.953 1627.67 240.433 Q1630.5 237.875 1630.5 232.948 Q1630.5 228.02 1627.67 225.537 Q1624.89 223.017 1619.4 223.017 L1609.84 223.017 Z" fill="#000000" fill-rule="evenodd" fill-opacity="1" /><path clip-path="url(#clip630)" d="M1712.76 238.891 Q1715.36 234.227 1718.97 232.007 Q1722.58 229.788 1727.47 229.788 Q1734.05 229.788 1737.62 234.415 Q1741.2 239.004 1741.2 247.505 L1741.2 272.933 L1734.24 272.933 L1734.24 247.731 Q1734.24 241.675 1732.09 238.741 Q1729.95 235.807 1725.55 235.807 Q1720.17 235.807 1717.05 239.38 Q1713.93 242.953 1713.93 249.122 L1713.93 272.933 L1706.97 272.933 L1706.97 247.731 Q1706.97 241.637 1704.82 238.741 Q1702.68 235.807 1698.2 235.807 Q1692.9 235.807 1689.78 239.418 Q1686.66 242.991 1686.66 249.122 L1686.66 272.933 L1679.7 272.933 L1679.7 230.804 L1686.66 230.804 L1686.66 237.349 Q1689.03 233.474 1692.34 231.631 Q1695.65 229.788 1700.2 229.788 Q1704.79 229.788 1707.98 232.12 Q1711.22 234.452 1712.76 238.891 Z" fill="#000000" fill-rule="evenodd" fill-opacity="1" /><path clip-path="url(#clip630)" d="M1771.33 235.656 Q1765.76 235.656 1762.53 240.019 Q1759.29 244.345 1759.29 251.906 Q1759.29 259.467 1762.49 263.83 Q1765.72 268.156 1771.33 268.156 Q1776.86 268.156 1780.09 263.792 Q1783.33 259.429 1783.33 251.906 Q1783.33 244.42 1780.09 240.057 Q1776.86 235.656 1771.33 235.656 M1771.33 229.788 Q1780.36 229.788 1785.51 235.656 Q1790.66 241.524 1790.66 251.906 Q1790.66 262.25 1785.51 268.156 Q1780.36 274.024 1771.33 274.024 Q1762.26 274.024 1757.11 268.156 Q1751.99 262.25 1751.99 251.906 Q1751.99 241.524 1757.11 235.656 Q1762.26 229.788 1771.33 229.788 Z" fill="#000000" fill-rule="evenodd" fill-opacity="1" /><path clip-path="url(#clip630)" d="M1829.86 237.198 L1829.86 214.403 L1836.78 214.403 L1836.78 272.933 L1829.86 272.933 L1829.86 266.614 Q1827.68 270.375 1824.33 272.218 Q1821.02 274.024 1816.35 274.024 Q1808.72 274.024 1803.9 267.93 Q1799.13 261.836 1799.13 251.906 Q1799.13 241.975 1803.9 235.882 Q1808.72 229.788 1816.35 229.788 Q1821.02 229.788 1824.33 231.631 Q1827.68 233.437 1829.86 237.198 M1806.27 251.906 Q1806.27 259.542 1809.39 263.905 Q1812.55 268.231 1818.05 268.231 Q1823.54 268.231 1826.7 263.905 Q1829.86 259.542 1829.86 251.906 Q1829.86 244.27 1826.7 239.944 Q1823.54 235.581 1818.05 235.581 Q1812.55 235.581 1809.39 239.944 Q1806.27 244.27 1806.27 251.906 Z" fill="#000000" fill-rule="evenodd" fill-opacity="1" /><path clip-path="url(#clip630)" d="M1887.07 250.138 L1887.07 253.523 L1855.25 253.523 Q1855.7 260.67 1859.54 264.432 Q1863.41 268.156 1870.29 268.156 Q1874.28 268.156 1878.01 267.178 Q1881.77 266.2 1885.45 264.244 L1885.45 270.789 Q1881.73 272.369 1877.82 273.196 Q1873.91 274.024 1869.88 274.024 Q1859.8 274.024 1853.89 268.156 Q1848.03 262.288 1848.03 252.282 Q1848.03 241.938 1853.59 235.882 Q1859.2 229.788 1868.68 229.788 Q1877.18 229.788 1882.11 235.28 Q1887.07 240.734 1887.07 250.138 M1880.15 248.107 Q1880.07 242.427 1876.95 239.041 Q1873.87 235.656 1868.75 235.656 Q1862.96 235.656 1859.46 238.929 Q1856 242.201 1855.47 248.144 L1880.15 248.107 Z" fill="#000000" fill-rule="evenodd" fill-opacity="1" /><path clip-path="url(#clip630)" d="M1898.43 214.403 L1905.35 214.403 L1905.35 272.933 L1898.43 272.933 L1898.43 214.403 Z" fill="#000000" fill-rule="evenodd" fill-opacity="1" /><path clip-path="url(#clip634)" d="M2049.97 296.613 L1949.26 296.613 L1835.81 296.613 L1758.43 296.613 L1661.16 296.613 L1588.9 296.613 L1511.28 296.613 L1428.96 296.613 L1354.39 296.613 L1194.43 296.613 L1194.43 794.853 L1354.39 794.853 L1428.96 794.853 L1511.28 794.853 L1588.9 794.853 L1661.16 794.853 L1758.43 794.853 L1835.81 794.853 L1949.26 794.853 L2049.97 794.853  Z" fill="#009af9" fill-rule="evenodd" fill-opacity="1"/>
<polyline clip-path="url(#clip634)" style="stroke:#009af9; stroke-linecap:round; stroke-linejoin:round; stroke-width:20; stroke-opacity:1; fill:none" points="2049.97,296.613 1949.26,296.613 1835.81,296.613 1758.43,296.613 1661.16,296.613 1588.9,296.613 1511.28,296.613 1428.96,296.613 1354.39,296.613 1194.43,296.613 "/>
<path clip-path="url(#clip634)" d="M2049.97 342.219 L1949.26 370.479 L1835.81 404.141 L1758.43 416.125 L1661.16 427.163 L1588.9 431.338 L1511.28 429.934 L1428.96 434.149 L1354.39 418.63 L1194.43 410.325 L1194.43 794.853 L1354.39 794.853 L1428.96 794.853 L1511.28 794.853 L1588.9 794.853 L1661.16 794.853 L1758.43 794.853 L1835.81 794.853 L1949.26 794.853 L2049.97 794.853  Z" fill="#e26f46" fill-rule="evenodd" fill-opacity="1"/>
<polyline clip-path="url(#clip634)" style="stroke:#e26f46; stroke-linecap:round; stroke-linejoin:round; stroke-width:20; stroke-opacity:1; fill:none" points="2049.97,342.219 1949.26,370.479 1835.81,404.141 1758.43,416.125 1661.16,427.163 1588.9,431.338 1511.28,429.934 1428.96,434.149 1354.39,418.63 1194.43,410.325 "/>
<path clip-path="url(#clip634)" d="M2049.97 406.691 L1949.26 476.568 L1835.81 559.978 L1758.43 562.212 L1661.16 593.851 L1588.9 600.144 L1511.28 602.552 L1428.96 610.809 L1354.39 599.162 L1194.43 594.425 L1194.43 794.853 L1354.39 794.853 L1428.96 794.853 L1511.28 794.853 L1588.9 794.853 L1661.16 794.853 L1758.43 794.853 L1835.81 794.853 L1949.26 794.853 L2049.97 794.853  Z" fill="#3da44d" fill-rule="evenodd" fill-opacity="1"/>
<polyline clip-path="url(#clip634)" style="stroke:#3da44d; stroke-linecap:round; stroke-linejoin:round; stroke-width:20; stroke-opacity:1; fill:none" points="2049.97,406.691 1949.26,476.568 1835.81,559.978 1758.43,562.212 1661.16,593.851 1588.9,600.144 1511.28,602.552 1428.96,610.809 1354.39,599.162 1194.43,594.425 "/>
<path clip-path="url(#clip630)" d="M2112.96 794.853 L2968.5 794.853 L2968.5 296.613 L2112.96 296.613  Z" fill="#ffffff" fill-rule="evenodd" fill-opacity="1"/>
<defs>
  <clipPath id="clip635">
    <rect x="2112" y="296" width="857" height="499"/>
  </clipPath>
</defs>
<polyline clip-path="url(#clip630)" style="stroke:#000000; stroke-linecap:round; stroke-linejoin:round; stroke-width:4; stroke-opacity:1; fill:none" points="2968.5,794.853 2112.96,794.853 "/>
<polyline clip-path="url(#clip630)" style="stroke:#000000; stroke-linecap:round; stroke-linejoin:round; stroke-width:4; stroke-opacity:1; fill:none" points="2938.9,794.853 2938.9,775.955 "/>
<polyline clip-path="url(#clip630)" style="stroke:#000000; stroke-linecap:round; stroke-linejoin:round; stroke-width:4; stroke-opacity:1; fill:none" points="2814.74,794.853 2814.74,775.955 "/>
<polyline clip-path="url(#clip630)" style="stroke:#000000; stroke-linecap:round; stroke-linejoin:round; stroke-width:4; stroke-opacity:1; fill:none" points="2690.59,794.853 2690.59,775.955 "/>
<polyline clip-path="url(#clip630)" style="stroke:#000000; stroke-linecap:round; stroke-linejoin:round; stroke-width:4; stroke-opacity:1; fill:none" points="2566.43,794.853 2566.43,775.955 "/>
<polyline clip-path="url(#clip630)" style="stroke:#000000; stroke-linecap:round; stroke-linejoin:round; stroke-width:4; stroke-opacity:1; fill:none" points="2442.28,794.853 2442.28,775.955 "/>
<polyline clip-path="url(#clip630)" style="stroke:#000000; stroke-linecap:round; stroke-linejoin:round; stroke-width:4; stroke-opacity:1; fill:none" points="2318.12,794.853 2318.12,775.955 "/>
<polyline clip-path="url(#clip630)" style="stroke:#000000; stroke-linecap:round; stroke-linejoin:round; stroke-width:4; stroke-opacity:1; fill:none" points="2193.97,794.853 2193.97,775.955 "/>
<path clip-path="url(#clip630)" d="M2933.55 858.118 L2949.87 858.118 L2949.87 862.053 L2927.93 862.053 L2927.93 858.118 Q2930.59 855.363 2935.17 850.733 Q2939.78 846.081 2940.96 844.738 Q2943.2 842.215 2944.08 840.479 Q2944.99 838.72 2944.99 837.03 Q2944.99 834.275 2943.04 832.539 Q2941.12 830.803 2938.02 830.803 Q2935.82 830.803 2933.37 831.567 Q2930.94 832.331 2928.16 833.882 L2928.16 829.159 Q2930.98 828.025 2933.44 827.447 Q2935.89 826.868 2937.93 826.868 Q2943.3 826.868 2946.49 829.553 Q2949.69 832.238 2949.69 836.729 Q2949.69 838.859 2948.88 840.78 Q2948.09 842.678 2945.98 845.271 Q2945.4 845.942 2942.3 849.159 Q2939.2 852.354 2933.55 858.118 Z" fill="#000000" fill-rule="evenodd" fill-opacity="1" /><path clip-path="url(#clip630)" d="M2817.75 831.567 L2805.95 850.016 L2817.75 850.016 L2817.75 831.567 M2816.53 827.493 L2822.41 827.493 L2822.41 850.016 L2827.34 850.016 L2827.34 853.905 L2822.41 853.905 L2822.41 862.053 L2817.75 862.053 L2817.75 853.905 L2802.15 853.905 L2802.15 849.391 L2816.53 827.493 Z" fill="#000000" fill-rule="evenodd" fill-opacity="1" /><path clip-path="url(#clip630)" d="M2690.99 842.909 Q2687.85 842.909 2685.99 845.062 Q2684.16 847.215 2684.16 850.965 Q2684.16 854.692 2685.99 856.868 Q2687.85 859.02 2690.99 859.02 Q2694.14 859.02 2695.97 856.868 Q2697.82 854.692 2697.82 850.965 Q2697.82 847.215 2695.97 845.062 Q2694.14 842.909 2690.99 842.909 M2700.28 828.257 L2700.28 832.516 Q2698.52 831.683 2696.71 831.243 Q2694.93 830.803 2693.17 830.803 Q2688.54 830.803 2686.09 833.928 Q2683.66 837.053 2683.31 843.372 Q2684.67 841.358 2686.73 840.294 Q2688.79 839.206 2691.27 839.206 Q2696.48 839.206 2699.49 842.377 Q2702.52 845.525 2702.52 850.965 Q2702.52 856.289 2699.37 859.507 Q2696.22 862.724 2690.99 862.724 Q2685 862.724 2681.83 858.141 Q2678.66 853.534 2678.66 844.808 Q2678.66 836.613 2682.54 831.752 Q2686.43 826.868 2692.98 826.868 Q2694.74 826.868 2696.53 827.215 Q2698.33 827.562 2700.28 828.257 Z" fill="#000000" fill-rule="evenodd" fill-opacity="1" /><path clip-path="url(#clip630)" d="M2566.43 845.641 Q2563.1 845.641 2561.18 847.423 Q2559.28 849.206 2559.28 852.331 Q2559.28 855.456 2561.18 857.238 Q2563.1 859.02 2566.43 859.02 Q2569.77 859.02 2571.69 857.238 Q2573.61 855.432 2573.61 852.331 Q2573.61 849.206 2571.69 847.423 Q2569.79 845.641 2566.43 845.641 M2561.76 843.65 Q2558.75 842.909 2557.06 840.849 Q2555.39 838.789 2555.39 835.826 Q2555.39 831.683 2558.33 829.275 Q2561.29 826.868 2566.43 826.868 Q2571.59 826.868 2574.53 829.275 Q2577.47 831.683 2577.47 835.826 Q2577.47 838.789 2575.78 840.849 Q2574.12 842.909 2571.13 843.65 Q2574.51 844.437 2576.39 846.729 Q2578.28 849.02 2578.28 852.331 Q2578.28 857.354 2575.21 860.039 Q2572.15 862.724 2566.43 862.724 Q2560.71 862.724 2557.64 860.039 Q2554.58 857.354 2554.58 852.331 Q2554.58 849.02 2556.48 846.729 Q2558.38 844.437 2561.76 843.65 M2560.04 836.266 Q2560.04 838.951 2561.71 840.456 Q2563.4 841.96 2566.43 841.96 Q2569.44 841.96 2571.13 840.456 Q2572.84 838.951 2572.84 836.266 Q2572.84 833.581 2571.13 832.076 Q2569.44 830.572 2566.43 830.572 Q2563.4 830.572 2561.71 832.076 Q2560.04 833.581 2560.04 836.266 Z" fill="#000000" fill-rule="evenodd" fill-opacity="1" /><path clip-path="url(#clip630)" d="M2416.96 858.118 L2424.6 858.118 L2424.6 831.752 L2416.29 833.419 L2416.29 829.159 L2424.56 827.493 L2429.23 827.493 L2429.23 858.118 L2436.87 858.118 L2436.87 862.053 L2416.96 862.053 L2416.96 858.118 Z" fill="#000000" fill-rule="evenodd" fill-opacity="1" /><path clip-path="url(#clip630)" d="M2456.32 830.572 Q2452.71 830.572 2450.88 834.136 Q2449.07 837.678 2449.07 844.808 Q2449.07 851.914 2450.88 855.479 Q2452.71 859.02 2456.32 859.02 Q2459.95 859.02 2461.76 855.479 Q2463.58 851.914 2463.58 844.808 Q2463.58 837.678 2461.76 834.136 Q2459.95 830.572 2456.32 830.572 M2456.32 826.868 Q2462.13 826.868 2465.18 831.474 Q2468.26 836.058 2468.26 844.808 Q2468.26 853.534 2465.18 858.141 Q2462.13 862.724 2456.32 862.724 Q2450.51 862.724 2447.43 858.141 Q2444.37 853.534 2444.37 844.808 Q2444.37 836.058 2447.43 831.474 Q2450.51 826.868 2456.32 826.868 Z" fill="#000000" fill-rule="evenodd" fill-opacity="1" /><path clip-path="url(#clip630)" d="M2293.61 858.118 L2301.25 858.118 L2301.25 831.752 L2292.94 833.419 L2292.94 829.159 L2301.2 827.493 L2305.88 827.493 L2305.88 858.118 L2313.51 858.118 L2313.51 862.053 L2293.61 862.053 L2293.61 858.118 Z" fill="#000000" fill-rule="evenodd" fill-opacity="1" /><path clip-path="url(#clip630)" d="M2326.99 858.118 L2343.31 858.118 L2343.31 862.053 L2321.36 862.053 L2321.36 858.118 Q2324.02 855.363 2328.61 850.733 Q2333.21 846.081 2334.39 844.738 Q2336.64 842.215 2337.52 840.479 Q2338.42 838.72 2338.42 837.03 Q2338.42 834.275 2336.48 832.539 Q2334.56 830.803 2331.45 830.803 Q2329.26 830.803 2326.8 831.567 Q2324.37 832.331 2321.59 833.882 L2321.59 829.159 Q2324.42 828.025 2326.87 827.447 Q2329.32 826.868 2331.36 826.868 Q2336.73 826.868 2339.93 829.553 Q2343.12 832.238 2343.12 836.729 Q2343.12 838.859 2342.31 840.78 Q2341.52 842.678 2339.42 845.271 Q2338.84 845.942 2335.74 849.159 Q2332.64 852.354 2326.99 858.118 Z" fill="#000000" fill-rule="evenodd" fill-opacity="1" /><path clip-path="url(#clip630)" d="M2168.41 858.118 L2176.05 858.118 L2176.05 831.752 L2167.74 833.419 L2167.74 829.159 L2176 827.493 L2180.68 827.493 L2180.68 858.118 L2188.32 858.118 L2188.32 862.053 L2168.41 862.053 L2168.41 858.118 Z" fill="#000000" fill-rule="evenodd" fill-opacity="1" /><path clip-path="url(#clip630)" d="M2210.61 831.567 L2198.8 850.016 L2210.61 850.016 L2210.61 831.567 M2209.38 827.493 L2215.26 827.493 L2215.26 850.016 L2220.19 850.016 L2220.19 853.905 L2215.26 853.905 L2215.26 862.053 L2210.61 862.053 L2210.61 853.905 L2195.01 853.905 L2195.01 849.391 L2209.38 827.493 Z" fill="#000000" fill-rule="evenodd" fill-opacity="1" /><path clip-path="url(#clip630)" d="M2491.77 881.254 L2477.95 936.718 Q2477.39 939.201 2477.39 941.309 Q2477.39 945.712 2480.25 945.712 Q2481.65 945.712 2482.78 944.822 Q2483.9 943.932 2484.79 942.059 Q2485.68 940.185 2486.24 938.451 Q2486.8 936.671 2487.55 933.861 Q2487.79 932.736 2487.98 932.455 Q2488.21 932.127 2488.87 932.127 Q2490.04 932.127 2490.04 933.064 Q2488.77 939.107 2487.13 942.574 Q2484.51 947.867 2480.06 947.867 Q2476.69 947.867 2474.3 945.806 Q2471.91 943.745 2471.35 940.653 Q2465.21 947.867 2458.84 947.867 Q2453.22 947.867 2449.66 943.604 Q2446.1 939.295 2446.1 932.502 Q2446.1 925.663 2449.47 919.105 Q2452.89 912.546 2458.28 908.471 Q2463.66 904.395 2469.19 904.395 Q2475.05 904.395 2478.04 910.532 L2483.81 887.765 L2484.09 885.891 Q2484.09 885.329 2483.85 885.048 Q2483.67 884.72 2482.54 884.486 Q2481.46 884.252 2479.31 884.252 Q2478.42 884.252 2478 884.205 Q2477.62 884.158 2477.29 883.924 Q2476.97 883.643 2476.97 883.081 Q2476.97 881.441 2478.33 881.254 Q2487.32 880.223 2490.5 880.223 Q2491.07 880.223 2491.39 880.504 Q2491.72 880.739 2491.72 881.02 L2491.77 881.254 M2476.87 914.935 Q2476.87 914.514 2476.55 913.343 Q2476.22 912.171 2475.47 910.532 Q2474.72 908.892 2473.08 907.721 Q2471.49 906.503 2469.33 906.503 Q2466.43 906.503 2463.38 908.986 Q2460.38 911.469 2458.18 915.685 Q2456.5 919.058 2454.67 926.131 Q2452.89 933.205 2452.89 936.718 Q2452.89 938.873 2453.36 940.794 Q2453.87 942.668 2455.32 944.213 Q2456.78 945.712 2459.03 945.712 Q2464.51 945.712 2469.89 938.92 Q2470.92 937.749 2471.16 937.28 Q2471.44 936.765 2471.81 935.36 L2476.59 916.575 Q2476.87 915.17 2476.87 914.935 Z" fill="#000000" fill-rule="evenodd" fill-opacity="1" /><path clip-path="url(#clip630)" d="M2501.57 980.87 Q2501.57 978.706 2503.21 976.837 Q2504.88 974.968 2507.77 974.148 Q2504.82 972.279 2504.82 968.18 Q2504.82 965.032 2506.88 962.605 Q2503.73 959.982 2503.73 955.686 Q2503.73 951.718 2506.88 948.8 Q2510.03 945.882 2514.62 945.882 Q2518.65 945.882 2521.74 948.308 Q2524.95 945.16 2528.85 945.127 Q2530.59 945.127 2531.41 946.209 Q2532.26 947.292 2532.26 948.439 Q2532.26 949.456 2531.61 949.948 Q2530.98 950.44 2530.33 950.44 Q2529.51 950.44 2528.92 949.915 Q2528.36 949.357 2528.36 948.505 Q2528.36 947.095 2529.44 946.669 Q2529.25 946.603 2528.79 946.603 Q2525.51 946.603 2522.72 949.226 Q2525.48 951.784 2525.48 955.752 Q2525.48 959.72 2522.33 962.638 Q2519.18 965.556 2514.62 965.556 Q2510.85 965.556 2507.96 963.458 Q2506.82 964.802 2506.82 966.639 Q2506.82 968.311 2507.83 969.623 Q2508.85 970.934 2510.39 971.131 Q2510.85 971.197 2515.41 971.197 Q2518.1 971.197 2519.57 971.262 Q2521.05 971.328 2523.15 971.787 Q2525.28 972.213 2526.95 973.066 Q2531.31 975.492 2531.34 980.739 Q2531.34 984.575 2526.92 986.969 Q2522.52 989.396 2516.42 989.396 Q2510.26 989.396 2505.9 986.936 Q2501.57 984.51 2501.57 980.87 M2505.08 980.87 Q2505.08 983.625 2508.33 985.723 Q2511.57 987.855 2516.49 987.855 Q2521.31 987.855 2524.56 985.756 Q2527.84 983.69 2527.84 980.87 Q2527.84 978.87 2526.69 977.591 Q2525.54 976.312 2523.18 975.787 Q2520.85 975.295 2519.21 975.197 Q2517.57 975.099 2514.56 975.099 L2510.59 975.099 Q2508.29 975.23 2506.69 976.902 Q2505.08 978.575 2505.08 980.87 M2508.75 955.752 Q2508.75 964.015 2514.62 964.015 Q2517.57 964.015 2519.38 961.326 Q2520.46 959.523 2520.46 955.686 Q2520.46 947.423 2514.62 947.423 Q2511.67 947.423 2509.83 950.112 Q2508.75 951.915 2508.75 955.752 Z" fill="#000000" fill-rule="evenodd" fill-opacity="1" /><path clip-path="url(#clip630)" d="M2544.9 971.951 Q2540.47 967.557 2540.47 961.195 Q2540.47 954.801 2544.8 950.144 Q2549.16 945.455 2555.39 945.455 Q2561.49 945.455 2565.85 950.112 Q2570.25 954.735 2570.25 961.195 Q2570.25 967.524 2565.82 971.918 Q2561.43 976.312 2555.33 976.312 Q2549.36 976.312 2544.9 971.951 M2546.05 960.638 Q2546.05 967.163 2547.75 970.114 Q2550.37 974.607 2555.39 974.607 Q2557.88 974.607 2559.95 973.262 Q2562.05 971.918 2563.2 969.655 Q2564.67 966.704 2564.67 960.638 Q2564.67 954.178 2562.9 951.325 Q2560.28 946.964 2555.33 946.964 Q2553.16 946.964 2551.03 948.111 Q2548.93 949.226 2547.65 951.456 Q2546.05 954.407 2546.05 960.638 Z" fill="#000000" fill-rule="evenodd" fill-opacity="1" /><path clip-path="url(#clip630)" d="M2573.73 969.163 Q2573.73 963.458 2580.45 960.441 Q2584.48 958.506 2592.81 958.014 L2592.81 955.555 Q2592.81 951.391 2590.62 949.194 Q2588.45 946.964 2585.7 946.964 Q2580.78 946.964 2578.42 950.046 Q2580.42 950.112 2581.14 951.128 Q2581.86 952.112 2581.86 953.128 Q2581.86 954.473 2581.01 955.358 Q2580.19 956.211 2578.78 956.211 Q2577.43 956.211 2576.55 955.391 Q2575.66 954.539 2575.66 953.063 Q2575.66 949.784 2578.61 947.62 Q2581.6 945.455 2585.83 945.455 Q2591.34 945.455 2595.01 949.161 Q2596.16 950.308 2596.72 951.784 Q2597.31 953.26 2597.37 954.243 Q2597.44 955.194 2597.44 957.096 L2597.44 970.508 Q2597.44 970.901 2597.57 971.557 Q2597.7 972.213 2598.29 973.066 Q2598.91 973.885 2599.93 973.885 Q2602.36 973.885 2602.32 969.59 L2602.32 965.819 L2604.03 965.819 L2604.03 969.59 Q2604.03 973.164 2602.13 974.574 Q2600.26 975.951 2598.52 975.951 Q2596.29 975.951 2594.88 974.312 Q2593.47 972.672 2593.27 970.442 Q2592.26 973 2589.93 974.672 Q2587.63 976.312 2584.48 976.312 Q2582.06 976.312 2579.76 975.689 Q2577.5 975.099 2575.6 973.426 Q2573.73 971.721 2573.73 969.163 M2578.91 969.098 Q2578.91 971.59 2580.68 973.197 Q2582.45 974.804 2584.94 974.804 Q2587.76 974.804 2590.29 972.639 Q2592.81 970.442 2592.81 966.147 L2592.81 959.424 Q2585.37 959.687 2582.12 962.671 Q2578.91 965.622 2578.91 969.098 Z" fill="#000000" fill-rule="evenodd" fill-opacity="1" /><path clip-path="url(#clip630)" d="M2606.72 975.558 L2606.72 973.492 Q2610.29 973.492 2611.11 973.066 Q2611.93 972.607 2611.93 970.442 L2611.93 935.519 Q2611.93 933.027 2611.05 932.404 Q2610.19 931.781 2606.72 931.781 L2606.72 929.683 L2616.36 928.961 L2616.36 970.442 Q2616.36 972.607 2617.21 973.066 Q2618.06 973.492 2621.6 973.492 L2621.6 975.558 Q2620.78 975.558 2619.08 975.492 Q2617.37 975.427 2616.13 975.394 Q2614.88 975.361 2614.16 975.361 Q2613.37 975.361 2606.72 975.558 Z" fill="#000000" fill-rule="evenodd" fill-opacity="1" /><polyline clip-path="url(#clip630)" style="stroke:#000000; stroke-linecap:round; stroke-linejoin:round; stroke-width:4; stroke-opacity:1; fill:none" points="2112.96,794.853 2112.96,296.613 "/>
<path clip-path="url(#clip630)" d="M2446.04 221.099 L2446.04 229.111 Q2442.2 225.537 2437.84 223.77 Q2433.51 222.002 2428.62 222.002 Q2418.99 222.002 2413.88 227.907 Q2408.76 233.775 2408.76 244.909 Q2408.76 256.006 2413.88 261.912 Q2418.99 267.78 2428.62 267.78 Q2433.51 267.78 2437.84 266.012 Q2442.2 264.244 2446.04 260.67 L2446.04 268.607 Q2442.05 271.316 2437.57 272.67 Q2433.13 274.024 2428.17 274.024 Q2415.42 274.024 2408.08 266.238 Q2400.75 258.413 2400.75 244.909 Q2400.75 231.368 2408.08 223.581 Q2415.42 215.757 2428.17 215.757 Q2433.21 215.757 2437.65 217.112 Q2442.12 218.428 2446.04 221.099 Z" fill="#000000" fill-rule="evenodd" fill-opacity="1" /><path clip-path="url(#clip630)" d="M2492.49 247.505 L2492.49 272.933 L2485.57 272.933 L2485.57 247.731 Q2485.57 241.75 2483.24 238.778 Q2480.91 235.807 2476.24 235.807 Q2470.64 235.807 2467.4 239.38 Q2464.17 242.953 2464.17 249.122 L2464.17 272.933 L2457.21 272.933 L2457.21 214.403 L2464.17 214.403 L2464.17 237.349 Q2466.65 233.55 2470 231.669 Q2473.38 229.788 2477.78 229.788 Q2485.04 229.788 2488.77 234.302 Q2492.49 238.778 2492.49 247.505 Z" fill="#000000" fill-rule="evenodd" fill-opacity="1" /><path clip-path="url(#clip630)" d="M2525.44 251.756 Q2517.05 251.756 2513.82 253.674 Q2510.58 255.592 2510.58 260.219 Q2510.58 263.905 2512.99 266.087 Q2515.44 268.231 2519.61 268.231 Q2525.37 268.231 2528.83 264.169 Q2532.33 260.069 2532.33 253.298 L2532.33 251.756 L2525.44 251.756 M2539.25 248.897 L2539.25 272.933 L2532.33 272.933 L2532.33 266.538 Q2529.96 270.375 2526.42 272.218 Q2522.89 274.024 2517.77 274.024 Q2511.3 274.024 2507.46 270.413 Q2503.66 266.764 2503.66 260.67 Q2503.66 253.561 2508.4 249.95 Q2513.18 246.339 2522.62 246.339 L2532.33 246.339 L2532.33 245.662 Q2532.33 240.885 2529.17 238.289 Q2526.04 235.656 2520.36 235.656 Q2516.75 235.656 2513.33 236.521 Q2509.91 237.386 2506.75 239.117 L2506.75 232.722 Q2510.55 231.255 2514.12 230.54 Q2517.69 229.788 2521.08 229.788 Q2530.22 229.788 2534.73 234.528 Q2539.25 239.267 2539.25 248.897 Z" fill="#000000" fill-rule="evenodd" fill-opacity="1" /><path clip-path="url(#clip630)" d="M2588.52 247.505 L2588.52 272.933 L2581.6 272.933 L2581.6 247.731 Q2581.6 241.75 2579.27 238.778 Q2576.94 235.807 2572.27 235.807 Q2566.67 235.807 2563.43 239.38 Q2560.2 242.953 2560.2 249.122 L2560.2 272.933 L2553.24 272.933 L2553.24 230.804 L2560.2 230.804 L2560.2 237.349 Q2562.68 233.55 2566.03 231.669 Q2569.42 229.788 2573.82 229.788 Q2581.08 229.788 2584.8 234.302 Q2588.52 238.778 2588.52 247.505 Z" fill="#000000" fill-rule="evenodd" fill-opacity="1" /><path clip-path="url(#clip630)" d="M2632.65 232.421 L2632.65 238.891 Q2629.71 237.274 2626.74 236.484 Q2623.81 235.656 2620.8 235.656 Q2614.07 235.656 2610.34 239.944 Q2606.62 244.195 2606.62 251.906 Q2606.62 259.617 2610.34 263.905 Q2614.07 268.156 2620.8 268.156 Q2623.81 268.156 2626.74 267.366 Q2629.71 266.538 2632.65 264.921 L2632.65 271.316 Q2629.75 272.67 2626.63 273.347 Q2623.54 274.024 2620.05 274.024 Q2610.53 274.024 2604.92 268.043 Q2599.32 262.062 2599.32 251.906 Q2599.32 241.599 2604.96 235.694 Q2610.64 229.788 2620.5 229.788 Q2623.69 229.788 2626.74 230.465 Q2629.79 231.105 2632.65 232.421 Z" fill="#000000" fill-rule="evenodd" fill-opacity="1" /><path clip-path="url(#clip630)" d="M2680.72 250.138 L2680.72 253.523 L2648.9 253.523 Q2649.35 260.67 2653.19 264.432 Q2657.06 268.156 2663.94 268.156 Q2667.93 268.156 2671.65 267.178 Q2675.42 266.2 2679.1 264.244 L2679.1 270.789 Q2675.38 272.369 2671.47 273.196 Q2667.55 274.024 2663.53 274.024 Q2653.45 274.024 2647.54 268.156 Q2641.68 262.288 2641.68 252.282 Q2641.68 241.938 2647.24 235.882 Q2652.85 229.788 2662.33 229.788 Q2670.83 229.788 2675.75 235.28 Q2680.72 240.734 2680.72 250.138 M2673.8 248.107 Q2673.72 242.427 2670.6 239.041 Q2667.52 235.656 2662.4 235.656 Q2656.61 235.656 2653.11 238.929 Q2649.65 242.201 2649.12 248.144 L2673.8 248.107 Z" fill="#000000" fill-rule="evenodd" fill-opacity="1" /><path clip-path="url(#clip635)" d="M2968.5 296.613 L2867.79 296.613 L2754.34 296.613 L2676.97 296.613 L2579.7 296.613 L2507.43 296.613 L2429.81 296.613 L2347.49 296.613 L2272.92 296.613 L2112.96 296.613 L2112.96 794.853 L2272.92 794.853 L2347.49 794.853 L2429.81 794.853 L2507.43 794.853 L2579.7 794.853 L2676.97 794.853 L2754.34 794.853 L2867.79 794.853 L2968.5 794.853  Z" fill="#009af9" fill-rule="evenodd" fill-opacity="1"/>
<polyline clip-path="url(#clip635)" style="stroke:#009af9; stroke-linecap:round; stroke-linejoin:round; stroke-width:20; stroke-opacity:1; fill:none" points="2968.5,296.613 2867.79,296.613 2754.34,296.613 2676.97,296.613 2579.7,296.613 2507.43,296.613 2429.81,296.613 2347.49,296.613 2272.92,296.613 2112.96,296.613 "/>
<path clip-path="url(#clip635)" d="M2968.5 476.508 L2867.79 473.423 L2754.34 462.607 L2676.97 469.807 L2579.7 470.888 L2507.43 452.559 L2429.81 454.046 L2347.49 450.729 L2272.92 424.854 L2112.96 411.948 L2112.96 794.853 L2272.92 794.853 L2347.49 794.853 L2429.81 794.853 L2507.43 794.853 L2579.7 794.853 L2676.97 794.853 L2754.34 794.853 L2867.79 794.853 L2968.5 794.853  Z" fill="#e26f46" fill-rule="evenodd" fill-opacity="1"/>
<polyline clip-path="url(#clip635)" style="stroke:#e26f46; stroke-linecap:round; stroke-linejoin:round; stroke-width:20; stroke-opacity:1; fill:none" points="2968.5,476.508 2867.79,473.423 2754.34,462.607 2676.97,469.807 2579.7,470.888 2507.43,452.559 2429.81,454.046 2347.49,450.729 2272.92,424.854 2112.96,411.948 "/>
<path clip-path="url(#clip635)" d="M2968.5 728.939 L2867.79 694.4 L2754.34 698.729 L2676.97 687.71 L2579.7 698.61 L2507.43 685.234 L2429.81 686.664 L2347.49 679.988 L2272.92 678.739 L2112.96 648.999 L2112.96 794.853 L2272.92 794.853 L2347.49 794.853 L2429.81 794.853 L2507.43 794.853 L2579.7 794.853 L2676.97 794.853 L2754.34 794.853 L2867.79 794.853 L2968.5 794.853  Z" fill="#3da44d" fill-rule="evenodd" fill-opacity="1"/>
<polyline clip-path="url(#clip635)" style="stroke:#3da44d; stroke-linecap:round; stroke-linejoin:round; stroke-width:20; stroke-opacity:1; fill:none" points="2968.5,728.939 2867.79,694.4 2754.34,698.729 2676.97,687.71 2579.7,698.61 2507.43,685.234 2429.81,686.664 2347.49,679.988 2272.92,678.739 2112.96,648.999 "/>
</svg>
