<?xml version="1.0" encoding="UTF-8" standalone="no"?>
<!DOCTYPE svg PUBLIC "-//W3C//DTD SVG 1.1//EN"
 "http://www.w3.org/Graphics/SVG/1.1/DTD/svg11.dtd">
<!-- Generated by graphviz version 2.50.0 (20211204.2007)
 -->
<!-- Pages: 1 -->
<svg width="416pt" height="534pt"
 viewBox="0.00 0.00 416.00 534.00" xmlns="http://www.w3.org/2000/svg" xmlns:xlink="http://www.w3.org/1999/xlink">
<g id="graph0" class="graph" transform="scale(1 1) rotate(0) translate(4 530)">
<polygon fill="white" stroke="transparent" points="-4,4 -4,-530 412,-530 412,4 -4,4"/>
<!-- 6&#45;82 -->
<g id="node1" class="node">
<title>6&#45;82</title>
<ellipse fill="none" stroke="black" cx="206" cy="-378" rx="27" ry="18"/>
<text text-anchor="middle" x="206" y="-374.3" font-family="Times,serif" font-size="14.00">6</text>
</g>
<!-- 10001 -->
<g id="node8" class="node">
<title>10001</title>
<polygon fill="lightgrey" stroke="black" points="192,-317 181,-306 192,-295 203,-306 192,-317"/>
</g>
<!-- 6&#45;82&#45;&#45;10001 -->
<g id="edge5" class="edge">
<title>6&#45;82&#45;&#45;10001</title>
<path fill="none" stroke="black" d="M202.61,-360.05C199.79,-345.97 195.9,-326.52 193.7,-315.51"/>
</g>
<!-- 4&#45;5&#45; -->
<g id="node2" class="node">
<title>4&#45;5&#45;</title>
<ellipse fill="none" stroke="black" cx="285" cy="-378" rx="27" ry="18"/>
<text text-anchor="middle" x="285" y="-374.3" font-family="Times,serif" font-size="14.00">4</text>
</g>
<!-- m4↑ -->
<g id="node19" class="node">
<title>m4↑</title>
<polygon fill="lime" stroke="black" points="239,-324 221,-306 239,-288 257,-306 239,-324"/>
<text text-anchor="middle" x="239" y="-302.3" font-family="Times,serif" font-size="14.00">↑</text>
</g>
<!-- 4&#45;5&#45;&#45;&#45;m4↑ -->
<g id="edge18" class="edge">
<title>4&#45;5&#45;&#45;&#45;m4↑</title>
<path fill="none" stroke="black" d="M274.56,-361.12C265.76,-347.72 253.42,-328.95 245.83,-317.4"/>
</g>
<!-- m4↓↓ -->
<g id="node20" class="node">
<title>m4↓↓</title>
<polygon fill="lime" stroke="black" points="293,-324 275,-306 293,-288 311,-306 293,-324"/>
<text text-anchor="middle" x="293" y="-302.3" font-family="Times,serif" font-size="14.00">↓↓</text>
</g>
<!-- 4&#45;5&#45;&#45;&#45;m4↓↓ -->
<g id="edge19" class="edge">
<title>4&#45;5&#45;&#45;&#45;m4↓↓</title>
<path fill="none" stroke="black" d="M286.98,-359.7C288.27,-348.36 289.95,-333.66 291.21,-322.67"/>
</g>
<!-- 10011 -->
<g id="node22" class="node">
<title>10011</title>
<polygon fill="lightgrey" stroke="black" points="340,-317 329,-306 340,-295 351,-306 340,-317"/>
</g>
<!-- 4&#45;5&#45;&#45;&#45;10011 -->
<g id="edge20" class="edge">
<title>4&#45;5&#45;&#45;&#45;10011</title>
<path fill="none" stroke="black" d="M296.93,-361.81C309.07,-346.37 327.22,-323.26 335.55,-312.67"/>
</g>
<!-- 9&#45;146 -->
<g id="node3" class="node">
<title>9&#45;146</title>
<ellipse fill="none" stroke="black" cx="285" cy="-508" rx="27" ry="18"/>
<text text-anchor="middle" x="285" y="-504.3" font-family="Times,serif" font-size="14.00">9</text>
</g>
<!-- 10000 -->
<g id="node4" class="node">
<title>10000</title>
<polygon fill="lightgrey" stroke="black" points="285,-454 274,-443 285,-432 296,-443 285,-454"/>
</g>
<!-- 9&#45;146&#45;&#45;10000 -->
<g id="edge1" class="edge">
<title>9&#45;146&#45;&#45;10000</title>
<path fill="none" stroke="black" d="M285,-489.78C285,-478.42 285,-463.9 285,-454.3"/>
</g>
<!-- 10000&#45;&#45;6&#45;82 -->
<g id="edge3" class="edge">
<title>10000&#45;&#45;6&#45;82</title>
<path fill="none" stroke="black" d="M279.32,-437.47C267.64,-428.16 240.56,-406.56 222.78,-392.38"/>
</g>
<!-- 10000&#45;&#45;4&#45;5&#45; -->
<g id="edge4" class="edge">
<title>10000&#45;&#45;4&#45;5&#45;</title>
<path fill="none" stroke="black" d="M285,-431.88C285,-422.28 285,-407.66 285,-396.23"/>
</g>
<!-- 0 -->
<g id="node5" class="node">
<title>0</title>
<ellipse fill="red" stroke="black" cx="357" cy="-378" rx="27" ry="18"/>
<text text-anchor="middle" x="357" y="-374.3" font-family="Times,serif" font-size="14.00">1</text>
</g>
<!-- 10000&#45;&#45;0 -->
<g id="edge2" class="edge">
<title>10000&#45;&#45;0</title>
<path fill="none" stroke="black" d="M290.65,-437.06C301.39,-427.66 325.11,-406.91 341.08,-392.93"/>
</g>
<!-- 2&#45;1&#45;7&#45; -->
<g id="node6" class="node">
<title>2&#45;1&#45;7&#45;</title>
<ellipse fill="none" stroke="black" cx="85" cy="-234" rx="27" ry="18"/>
<text text-anchor="middle" x="85" y="-230.3" font-family="Times,serif" font-size="14.00">2</text>
</g>
<!-- m2→ -->
<g id="node9" class="node">
<title>m2→</title>
<polygon fill="lime" stroke="black" points="18,-180 0,-162 18,-144 36,-162 18,-180"/>
<text text-anchor="middle" x="18" y="-158.3" font-family="Times,serif" font-size="14.00">→</text>
</g>
<!-- 2&#45;1&#45;7&#45;&#45;&#45;m2→ -->
<g id="edge8" class="edge">
<title>2&#45;1&#45;7&#45;&#45;&#45;m2→</title>
<path fill="none" stroke="black" d="M71.12,-218.5C57.63,-204.4 37.58,-183.46 26.37,-171.74"/>
</g>
<!-- 10003 -->
<g id="node12" class="node">
<title>10003</title>
<polygon fill="lightgrey" stroke="black" points="65,-173 54,-162 65,-151 76,-162 65,-173"/>
</g>
<!-- 2&#45;1&#45;7&#45;&#45;&#45;10003 -->
<g id="edge9" class="edge">
<title>2&#45;1&#45;7&#45;&#45;&#45;10003</title>
<path fill="none" stroke="black" d="M80.16,-216.05C76.09,-201.81 70.45,-182.08 67.32,-171.13"/>
</g>
<!-- 10004 -->
<g id="node13" class="node">
<title>10004</title>
<polygon fill="lightgrey" stroke="black" points="105,-173 94,-162 105,-151 116,-162 105,-173"/>
</g>
<!-- 2&#45;1&#45;7&#45;&#45;&#45;10004 -->
<g id="edge11" class="edge">
<title>2&#45;1&#45;7&#45;&#45;&#45;10004</title>
<path fill="none" stroke="black" d="M89.84,-216.05C93.91,-201.81 99.55,-182.08 102.68,-171.13"/>
</g>
<!-- 8&#45;7&#45; -->
<g id="node7" class="node">
<title>8&#45;7&#45;</title>
<ellipse fill="none" stroke="black" cx="204" cy="-234" rx="27" ry="18"/>
<text text-anchor="middle" x="204" y="-230.3" font-family="Times,serif" font-size="14.00">8</text>
</g>
<!-- m8→ -->
<g id="node15" class="node">
<title>m8→</title>
<polygon fill="lime" stroke="black" points="152,-180 134,-162 152,-144 170,-162 152,-180"/>
<text text-anchor="middle" x="152" y="-158.3" font-family="Times,serif" font-size="14.00">→</text>
</g>
<!-- 8&#45;7&#45;&#45;&#45;m8→ -->
<g id="edge14" class="edge">
<title>8&#45;7&#45;&#45;&#45;m8→</title>
<path fill="none" stroke="black" d="M192.46,-217.46C182.41,-203.93 168.12,-184.7 159.49,-173.09"/>
</g>
<!-- m8→→ -->
<g id="node16" class="node">
<title>m8→→</title>
<polygon fill="lime" stroke="black" points="211,-180 193,-162 211,-144 229,-162 211,-180"/>
<text text-anchor="middle" x="211" y="-158.3" font-family="Times,serif" font-size="14.00">→→</text>
</g>
<!-- 8&#45;7&#45;&#45;&#45;m8→→ -->
<g id="edge15" class="edge">
<title>8&#45;7&#45;&#45;&#45;m8→→</title>
<path fill="none" stroke="black" d="M205.73,-215.7C206.86,-204.36 208.33,-189.66 209.43,-178.67"/>
</g>
<!-- 10008 -->
<g id="node17" class="node">
<title>10008</title>
<polygon fill="lightgrey" stroke="black" points="263,-173 252,-162 263,-151 274,-162 263,-173"/>
</g>
<!-- 8&#45;7&#45;&#45;&#45;10008 -->
<g id="edge16" class="edge">
<title>8&#45;7&#45;&#45;&#45;10008</title>
<path fill="none" stroke="black" d="M216.8,-217.81C229.82,-202.37 249.3,-179.26 258.22,-168.67"/>
</g>
<!-- 10001&#45;&#45;2&#45;1&#45;7&#45; -->
<g id="edge6" class="edge">
<title>10001&#45;&#45;2&#45;1&#45;7&#45;</title>
<path fill="none" stroke="black" d="M185.94,-301.04C170.38,-290.86 128.5,-263.46 103.85,-247.33"/>
</g>
<!-- 10001&#45;&#45;8&#45;7&#45; -->
<g id="edge7" class="edge">
<title>10001&#45;&#45;8&#45;7&#45;</title>
<path fill="none" stroke="black" d="M193.47,-296.42C195.36,-285.39 198.68,-266 201.09,-251.96"/>
</g>
<!-- 7&#45;9 -->
<g id="node10" class="node">
<title>7&#45;9</title>
<ellipse fill="red" stroke="black" cx="49" cy="-90" rx="27" ry="18"/>
<text text-anchor="middle" x="49" y="-86.3" font-family="Times,serif" font-size="14.00">7</text>
</g>
<!-- 1&#45; -->
<g id="node11" class="node">
<title>1&#45;</title>
<ellipse fill="none" stroke="black" cx="121" cy="-90" rx="27" ry="18"/>
<text text-anchor="middle" x="121" y="-86.3" font-family="Times,serif" font-size="14.00">1</text>
</g>
<!-- m1↑ -->
<g id="node14" class="node">
<title>m1↑</title>
<polygon fill="lime" stroke="black" points="121,-36 103,-18 121,0 139,-18 121,-36"/>
<text text-anchor="middle" x="121" y="-14.3" font-family="Times,serif" font-size="14.00">↑</text>
</g>
<!-- 1&#45;&#45;&#45;m1↑ -->
<g id="edge13" class="edge">
<title>1&#45;&#45;&#45;m1↑</title>
<path fill="none" stroke="black" d="M121,-71.7C121,-60.85 121,-46.92 121,-36.1"/>
</g>
<!-- 10003&#45;&#45;7&#45;9 -->
<g id="edge10" class="edge">
<title>10003&#45;&#45;7&#45;9</title>
<path fill="none" stroke="black" d="M63.1,-152.7C60.59,-141.69 56.09,-122 52.85,-107.82"/>
</g>
<!-- 10004&#45;&#45;1&#45; -->
<g id="edge12" class="edge">
<title>10004&#45;&#45;1&#45;</title>
<path fill="none" stroke="black" d="M106.9,-152.7C109.41,-141.69 113.91,-122 117.15,-107.82"/>
</g>
<!-- 1 -->
<g id="node18" class="node">
<title>1</title>
<ellipse fill="red" stroke="black" cx="263" cy="-90" rx="27" ry="18"/>
<text text-anchor="middle" x="263" y="-86.3" font-family="Times,serif" font-size="14.00">7</text>
</g>
<!-- 10008&#45;&#45;1 -->
<g id="edge17" class="edge">
<title>10008&#45;&#45;1</title>
<path fill="none" stroke="black" d="M263,-150.97C263,-139.78 263,-121.49 263,-108.04"/>
</g>
<!-- 5&#45;7&#45; -->
<g id="node21" class="node">
<title>5&#45;7&#45;</title>
<ellipse fill="none" stroke="black" cx="340" cy="-234" rx="27" ry="18"/>
<text text-anchor="middle" x="340" y="-230.3" font-family="Times,serif" font-size="14.00">5</text>
</g>
<!-- m5← -->
<g id="node23" class="node">
<title>m5←</title>
<polygon fill="lime" stroke="black" points="334,-180 316,-162 334,-144 352,-162 334,-180"/>
<text text-anchor="middle" x="334" y="-158.3" font-family="Times,serif" font-size="14.00">←</text>
</g>
<!-- 5&#45;7&#45;&#45;&#45;m5← -->
<g id="edge22" class="edge">
<title>5&#45;7&#45;&#45;&#45;m5←</title>
<path fill="none" stroke="black" d="M338.52,-215.7C337.55,-204.36 336.29,-189.66 335.34,-178.67"/>
</g>
<!-- 10013 -->
<g id="node24" class="node">
<title>10013</title>
<polygon fill="lightgrey" stroke="black" points="381,-173 370,-162 381,-151 392,-162 381,-173"/>
</g>
<!-- 5&#45;7&#45;&#45;&#45;10013 -->
<g id="edge23" class="edge">
<title>5&#45;7&#45;&#45;&#45;10013</title>
<path fill="none" stroke="black" d="M349.51,-216.76C358.31,-201.74 370.95,-180.17 377.2,-169.49"/>
</g>
<!-- 10011&#45;&#45;5&#45;7&#45; -->
<g id="edge21" class="edge">
<title>10011&#45;&#45;5&#45;7&#45;</title>
<path fill="none" stroke="black" d="M340,-294.97C340,-283.78 340,-265.49 340,-252.04"/>
</g>
<!-- 2 -->
<g id="node25" class="node">
<title>2</title>
<ellipse fill="red" stroke="black" cx="381" cy="-90" rx="27" ry="18"/>
<text text-anchor="middle" x="381" y="-86.3" font-family="Times,serif" font-size="14.00">7</text>
</g>
<!-- 10013&#45;&#45;2 -->
<g id="edge24" class="edge">
<title>10013&#45;&#45;2</title>
<path fill="none" stroke="black" d="M381,-150.97C381,-139.78 381,-121.49 381,-108.04"/>
</g>
</g>
</svg>
