<?xml version="1.0" encoding="UTF-8" standalone="no"?>
<!DOCTYPE svg PUBLIC "-//W3C//DTD SVG 1.1//EN"
 "http://www.w3.org/Graphics/SVG/1.1/DTD/svg11.dtd">
<!-- Generated by graphviz version 2.50.0 (20211204.2007)
 -->
<!-- Pages: 1 -->
<svg width="244pt" height="938pt"
 viewBox="0.00 0.00 244.00 938.00" xmlns="http://www.w3.org/2000/svg" xmlns:xlink="http://www.w3.org/1999/xlink">
<g id="graph0" class="graph" transform="scale(1 1) rotate(0) translate(4 934)">
<polygon fill="white" stroke="transparent" points="-4,4 -4,-934 240,-934 240,4 -4,4"/>
<!-- 2&#45;7&#45; -->
<g id="node1" class="node">
<title>2&#45;7&#45;</title>
<ellipse fill="none" stroke="black" cx="65" cy="-782" rx="27" ry="18"/>
<text text-anchor="middle" x="65" y="-778.3" font-family="Times,serif" font-size="14.00">2</text>
</g>
<!-- m↑ -->
<g id="node6" class="node">
<title>m↑</title>
<polygon fill="lime" stroke="black" points="18,-728 0,-710 18,-692 36,-710 18,-728"/>
<text text-anchor="middle" x="18" y="-706.3" font-family="Times,serif" font-size="14.00">↑</text>
</g>
<!-- 2&#45;7&#45;&#45;&#45;m↑ -->
<g id="edge5" class="edge">
<title>2&#45;7&#45;&#45;&#45;m↑</title>
<path fill="none" stroke="black" d="M54.33,-765.12C45.34,-751.72 32.73,-732.95 24.98,-721.4"/>
</g>
<!-- 10002 -->
<g id="node8" class="node">
<title>10002</title>
<polygon fill="lightgrey" stroke="black" points="65,-721 54,-710 65,-699 76,-710 65,-721"/>
</g>
<!-- 2&#45;7&#45;&#45;&#45;10002 -->
<g id="edge6" class="edge">
<title>2&#45;7&#45;&#45;&#45;10002</title>
<path fill="none" stroke="black" d="M65,-763.7C65,-750.42 65,-732.53 65,-721.38"/>
</g>
<!-- 5&#45;7 -->
<g id="node2" class="node">
<title>5&#45;7</title>
<ellipse fill="none" stroke="black" cx="137" cy="-782" rx="27" ry="18"/>
<text text-anchor="middle" x="137" y="-778.3" font-family="Times,serif" font-size="14.00">5</text>
</g>
<!-- 10013 -->
<g id="node27" class="node">
<title>10013</title>
<polygon fill="lightgrey" stroke="black" points="137,-721 126,-710 137,-699 148,-710 137,-721"/>
</g>
<!-- 5&#45;7&#45;&#45;10013 -->
<g id="edge25" class="edge">
<title>5&#45;7&#45;&#45;10013</title>
<path fill="none" stroke="black" d="M137,-763.7C137,-750.42 137,-732.53 137,-721.38"/>
</g>
<!-- 9&#45;152 -->
<g id="node3" class="node">
<title>9&#45;152</title>
<ellipse fill="none" stroke="black" cx="137" cy="-912" rx="27" ry="18"/>
<text text-anchor="middle" x="137" y="-908.3" font-family="Times,serif" font-size="14.00">9</text>
</g>
<!-- 10000 -->
<g id="node4" class="node">
<title>10000</title>
<polygon fill="lightgrey" stroke="black" points="137,-858 126,-847 137,-836 148,-847 137,-858"/>
</g>
<!-- 9&#45;152&#45;&#45;10000 -->
<g id="edge1" class="edge">
<title>9&#45;152&#45;&#45;10000</title>
<path fill="none" stroke="black" d="M137,-893.78C137,-882.42 137,-867.9 137,-858.3"/>
</g>
<!-- 10000&#45;&#45;2&#45;7&#45; -->
<g id="edge3" class="edge">
<title>10000&#45;&#45;2&#45;7&#45;</title>
<path fill="none" stroke="black" d="M131.35,-841.06C120.61,-831.66 96.89,-810.91 80.92,-796.93"/>
</g>
<!-- 10000&#45;&#45;5&#45;7 -->
<g id="edge4" class="edge">
<title>10000&#45;&#45;5&#45;7</title>
<path fill="none" stroke="black" d="M137,-835.88C137,-826.28 137,-811.66 137,-800.23"/>
</g>
<!-- 0 -->
<g id="node5" class="node">
<title>0</title>
<ellipse fill="red" stroke="black" cx="209" cy="-782" rx="27" ry="18"/>
<text text-anchor="middle" x="209" y="-778.3" font-family="Times,serif" font-size="14.00">1</text>
</g>
<!-- 10000&#45;&#45;0 -->
<g id="edge2" class="edge">
<title>10000&#45;&#45;0</title>
<path fill="none" stroke="black" d="M142.65,-841.06C153.39,-831.66 177.11,-810.91 193.08,-796.93"/>
</g>
<!-- 7&#45;84&#45;1 -->
<g id="node7" class="node">
<title>7&#45;84&#45;1</title>
<ellipse fill="none" stroke="black" cx="65" cy="-638" rx="27" ry="18"/>
<text text-anchor="middle" x="65" y="-634.3" font-family="Times,serif" font-size="14.00">7</text>
</g>
<!-- 10003 -->
<g id="node12" class="node">
<title>10003</title>
<polygon fill="lightgrey" stroke="black" points="45,-584 34,-573 45,-562 56,-573 45,-584"/>
</g>
<!-- 7&#45;84&#45;1&#45;&#45;10003 -->
<g id="edge8" class="edge">
<title>7&#45;84&#45;1&#45;&#45;10003</title>
<path fill="none" stroke="black" d="M59.64,-620.12C55.71,-607.72 50.54,-591.45 47.51,-581.92"/>
</g>
<!-- 10004 -->
<g id="node13" class="node">
<title>10004</title>
<polygon fill="lightgrey" stroke="black" points="101,-584 90,-573 101,-562 112,-573 101,-584"/>
</g>
<!-- 7&#45;84&#45;1&#45;&#45;10004 -->
<g id="edge10" class="edge">
<title>7&#45;84&#45;1&#45;&#45;10004</title>
<path fill="none" stroke="black" d="M74.27,-620.78C81.77,-607.65 91.94,-589.86 97.31,-580.45"/>
</g>
<!-- 10002&#45;&#45;7&#45;84&#45;1 -->
<g id="edge7" class="edge">
<title>10002&#45;&#45;7&#45;84&#45;1</title>
<path fill="none" stroke="black" d="M65,-698.97C65,-687.78 65,-669.49 65,-656.04"/>
</g>
<!-- 1&#45;6 -->
<g id="node9" class="node">
<title>1&#45;6</title>
<ellipse fill="none" stroke="black" cx="29" cy="-508" rx="27" ry="18"/>
<text text-anchor="middle" x="29" y="-504.3" font-family="Times,serif" font-size="14.00">1</text>
</g>
<!-- 10005 -->
<g id="node15" class="node">
<title>10005</title>
<polygon fill="lightgrey" stroke="black" points="29,-447 18,-436 29,-425 40,-436 29,-447"/>
</g>
<!-- 1&#45;6&#45;&#45;10005 -->
<g id="edge13" class="edge">
<title>1&#45;6&#45;&#45;10005</title>
<path fill="none" stroke="black" d="M29,-489.7C29,-476.42 29,-458.53 29,-447.38"/>
</g>
<!-- 4&#45;3&#45; -->
<g id="node10" class="node">
<title>4&#45;3&#45;</title>
<ellipse fill="none" stroke="black" cx="101" cy="-508" rx="27" ry="18"/>
<text text-anchor="middle" x="101" y="-504.3" font-family="Times,serif" font-size="14.00">4</text>
</g>
<!-- m↑↑ -->
<g id="node16" class="node">
<title>m↑↑</title>
<polygon fill="lime" stroke="black" points="88,-454 70,-436 88,-418 106,-436 88,-454"/>
<text text-anchor="middle" x="88" y="-432.3" font-family="Times,serif" font-size="14.00">↑↑</text>
</g>
<!-- 4&#45;3&#45;&#45;&#45;m↑↑ -->
<g id="edge15" class="edge">
<title>4&#45;3&#45;&#45;&#45;m↑↑</title>
<path fill="none" stroke="black" d="M97.85,-490.05C95.66,-478.24 92.76,-462.64 90.68,-451.42"/>
</g>
<!-- 10007 -->
<g id="node18" class="node">
<title>10007</title>
<polygon fill="lightgrey" stroke="black" points="135,-447 124,-436 135,-425 146,-436 135,-447"/>
</g>
<!-- 4&#45;3&#45;&#45;&#45;10007 -->
<g id="edge16" class="edge">
<title>4&#45;3&#45;&#45;&#45;10007</title>
<path fill="none" stroke="black" d="M108.89,-490.76C116.1,-475.9 126.44,-454.63 131.68,-443.84"/>
</g>
<!-- 8&#45;39&#45;9 -->
<g id="node11" class="node">
<title>8&#45;39&#45;9</title>
<ellipse fill="red" stroke="black" cx="173" cy="-508" rx="27" ry="18"/>
<text text-anchor="middle" x="173" y="-504.3" font-family="Times,serif" font-size="14.00">8</text>
</g>
<!-- 10003&#45;&#45;1&#45;6 -->
<g id="edge9" class="edge">
<title>10003&#45;&#45;1&#45;6</title>
<path fill="none" stroke="black" d="M42.97,-564.02C40.55,-554.49 36.43,-538.27 33.29,-525.9"/>
</g>
<!-- 10004&#45;&#45;4&#45;3&#45; -->
<g id="edge11" class="edge">
<title>10004&#45;&#45;4&#45;3&#45;</title>
<path fill="none" stroke="black" d="M101,-561.88C101,-552.28 101,-537.66 101,-526.23"/>
</g>
<!-- 10004&#45;&#45;8&#45;39&#45;9 -->
<g id="edge12" class="edge">
<title>10004&#45;&#45;8&#45;39&#45;9</title>
<path fill="none" stroke="black" d="M106.65,-567.06C117.39,-557.66 141.11,-536.91 157.08,-522.93"/>
</g>
<!-- 6&#45; -->
<g id="node14" class="node">
<title>6&#45;</title>
<ellipse fill="red" stroke="black" cx="29" cy="-364" rx="27" ry="18"/>
<text text-anchor="middle" x="29" y="-360.3" font-family="Times,serif" font-size="14.00">6</text>
</g>
<!-- 10005&#45;&#45;6&#45; -->
<g id="edge14" class="edge">
<title>10005&#45;&#45;6&#45;</title>
<path fill="none" stroke="black" d="M29,-424.97C29,-413.78 29,-395.49 29,-382.04"/>
</g>
<!-- 3&#45;6&#45; -->
<g id="node17" class="node">
<title>3&#45;6&#45;</title>
<ellipse fill="none" stroke="black" cx="135" cy="-364" rx="27" ry="18"/>
<text text-anchor="middle" x="135" y="-360.3" font-family="Times,serif" font-size="14.00">3</text>
</g>
<!-- m← -->
<g id="node19" class="node">
<title>m←</title>
<polygon fill="lime" stroke="black" points="76,-310 58,-292 76,-274 94,-292 76,-310"/>
<text text-anchor="middle" x="76" y="-288.3" font-family="Times,serif" font-size="14.00">←</text>
</g>
<!-- 3&#45;6&#45;&#45;&#45;m← -->
<g id="edge18" class="edge">
<title>3&#45;6&#45;&#45;&#45;m←</title>
<path fill="none" stroke="black" d="M122.2,-347.81C110.54,-333.98 93.69,-313.99 83.89,-302.36"/>
</g>
<!-- m→→ -->
<g id="node20" class="node">
<title>m→→</title>
<polygon fill="lime" stroke="black" points="135,-310 117,-292 135,-274 153,-292 135,-310"/>
<text text-anchor="middle" x="135" y="-288.3" font-family="Times,serif" font-size="14.00">→→</text>
</g>
<!-- 3&#45;6&#45;&#45;&#45;m→→ -->
<g id="edge19" class="edge">
<title>3&#45;6&#45;&#45;&#45;m→→</title>
<path fill="none" stroke="black" d="M135,-345.7C135,-334.85 135,-320.92 135,-310.1"/>
</g>
<!-- 10010 -->
<g id="node22" class="node">
<title>10010</title>
<polygon fill="lightgrey" stroke="black" points="187,-303 176,-292 187,-281 198,-292 187,-303"/>
</g>
<!-- 3&#45;6&#45;&#45;&#45;10010 -->
<g id="edge20" class="edge">
<title>3&#45;6&#45;&#45;&#45;10010</title>
<path fill="none" stroke="black" d="M146.54,-347.46C157.91,-332.16 174.69,-309.57 182.59,-298.94"/>
</g>
<!-- 10007&#45;&#45;3&#45;6&#45; -->
<g id="edge17" class="edge">
<title>10007&#45;&#45;3&#45;6&#45;</title>
<path fill="none" stroke="black" d="M135,-424.97C135,-413.78 135,-395.49 135,-382.04"/>
</g>
<!-- 6&#45;1 -->
<g id="node21" class="node">
<title>6&#45;1</title>
<ellipse fill="none" stroke="black" cx="187" cy="-220" rx="27" ry="18"/>
<text text-anchor="middle" x="187" y="-216.3" font-family="Times,serif" font-size="14.00">6</text>
</g>
<!-- 10011 -->
<g id="node24" class="node">
<title>10011</title>
<polygon fill="lightgrey" stroke="black" points="187,-166 176,-155 187,-144 198,-155 187,-166"/>
</g>
<!-- 6&#45;1&#45;&#45;10011 -->
<g id="edge22" class="edge">
<title>6&#45;1&#45;&#45;10011</title>
<path fill="none" stroke="black" d="M187,-201.78C187,-190.42 187,-175.9 187,-166.3"/>
</g>
<!-- 10010&#45;&#45;6&#45;1 -->
<g id="edge21" class="edge">
<title>10010&#45;&#45;6&#45;1</title>
<path fill="none" stroke="black" d="M187,-280.97C187,-269.78 187,-251.49 187,-238.04"/>
</g>
<!-- 1&#45; -->
<g id="node23" class="node">
<title>1&#45;</title>
<ellipse fill="none" stroke="black" cx="187" cy="-90" rx="27" ry="18"/>
<text text-anchor="middle" x="187" y="-86.3" font-family="Times,serif" font-size="14.00">1</text>
</g>
<!-- m↓ -->
<g id="node25" class="node">
<title>m↓</title>
<polygon fill="lime" stroke="black" points="187,-36 169,-18 187,0 205,-18 187,-36"/>
<text text-anchor="middle" x="187" y="-14.3" font-family="Times,serif" font-size="14.00">↓</text>
</g>
<!-- 1&#45;&#45;&#45;m↓ -->
<g id="edge24" class="edge">
<title>1&#45;&#45;&#45;m↓</title>
<path fill="none" stroke="black" d="M187,-71.7C187,-60.85 187,-46.92 187,-36.1"/>
</g>
<!-- 10011&#45;&#45;1&#45; -->
<g id="edge23" class="edge">
<title>10011&#45;&#45;1&#45;</title>
<path fill="none" stroke="black" d="M187,-143.88C187,-134.28 187,-119.66 187,-108.23"/>
</g>
<!-- 7&#45;84&#45;4 -->
<g id="node26" class="node">
<title>7&#45;84&#45;4</title>
<ellipse fill="red" stroke="black" cx="137" cy="-638" rx="27" ry="18"/>
<text text-anchor="middle" x="137" y="-634.3" font-family="Times,serif" font-size="14.00">7</text>
</g>
<!-- 10013&#45;&#45;7&#45;84&#45;4 -->
<g id="edge26" class="edge">
<title>10013&#45;&#45;7&#45;84&#45;4</title>
<path fill="none" stroke="black" d="M137,-698.97C137,-687.78 137,-669.49 137,-656.04"/>
</g>
</g>
</svg>
