<?xml version="1.0" encoding="UTF-8" standalone="no"?>
<!DOCTYPE svg PUBLIC "-//W3C//DTD SVG 1.1//EN"
 "http://www.w3.org/Graphics/SVG/1.1/DTD/svg11.dtd">
<!-- Generated by graphviz version 2.50.0 (20211204.2007)
 -->
<!-- Pages: 1 -->
<svg width="296pt" height="991pt"
 viewBox="0.00 0.00 296.02 990.80" xmlns="http://www.w3.org/2000/svg" xmlns:xlink="http://www.w3.org/1999/xlink">
<g id="graph0" class="graph" transform="scale(1 1) rotate(0) translate(14.4 976.4)">
<polygon fill="white" stroke="transparent" points="-14.4,14.4 -14.4,-976.4 281.62,-976.4 281.62,14.4 -14.4,14.4"/>
<!-- (9, (4,)) -->
<g id="node1" class="node">
<title>(9, (4,))</title>
<ellipse fill="white" stroke="black" cx="60.22" cy="-940.5" rx="21.5" ry="21.5"/>
<text text-anchor="middle" x="60.22" y="-936.7" font-family="Times,serif" font-size="16.00">9</text>
</g>
<!-- ((9, (4,)), (9, 4)) -->
<g id="node2" class="node">
<title>((9, (4,)), (9, 4))</title>
<polygon fill="#bfbfbf" stroke="black" points="60.22,-897 42.22,-879 60.22,-861 78.22,-879 60.22,-897"/>
<text text-anchor="middle" x="60.22" y="-875.3" font-family="Times,serif" font-size="14.00">→→→→</text>
</g>
<!-- (9, (4,))&#45;&gt;((9, (4,)), (9, 4)) -->
<g id="edge1" class="edge">
<title>(9, (4,))&#45;&gt;((9, (4,)), (9, 4))</title>
<path fill="none" stroke="black" d="M60.22,-918.69C60.22,-915.1 60.22,-911.31 60.22,-907.57"/>
<polygon fill="black" stroke="black" points="63.72,-907.35 60.22,-897.35 56.72,-907.35 63.72,-907.35"/>
</g>
<!-- (3, (1,)) -->
<g id="node3" class="node">
<title>(3, (1,))</title>
<ellipse fill="white" stroke="black" cx="89.22" cy="-79.5" rx="21.5" ry="21.5"/>
<text text-anchor="middle" x="89.22" y="-75.7" font-family="Times,serif" font-size="16.00">3</text>
</g>
<!-- ((9, (4,)), (9, 4))&#45;&gt;(3, (1,)) -->
<g id="edge2" class="edge">
<title>((9, (4,)), (9, 4))&#45;&gt;(3, (1,))</title>
<path fill="none" stroke="black" d="M52.16,-868.7C36.22,-849.33 2.22,-802.66 2.22,-757 2.22,-757 2.22,-757 2.22,-201.5 2.22,-166.27 -6.67,-152.08 13.22,-123 24.04,-107.19 42.77,-96.62 58.92,-89.98"/>
<polygon fill="black" stroke="black" points="60.44,-93.14 68.56,-86.33 57.97,-86.6 60.44,-93.14"/>
</g>
<!-- (5, (&#45;1, 2, 3)) -->
<g id="node5" class="node">
<title>(5, (&#45;1, 2, 3))</title>
<ellipse fill="white" stroke="black" cx="60.22" cy="-817.5" rx="21.5" ry="21.5"/>
<text text-anchor="middle" x="60.22" y="-813.7" font-family="Times,serif" font-size="16.00">5</text>
</g>
<!-- ((9, (4,)), (9, 4))&#45;&gt;(5, (&#45;1, 2, 3)) -->
<g id="edge4" class="edge">
<title>((9, (4,)), (9, 4))&#45;&gt;(5, (&#45;1, 2, 3))</title>
<path fill="none" stroke="black" d="M60.22,-860.79C60.22,-857.22 60.22,-853.35 60.22,-849.45"/>
<polygon fill="black" stroke="black" points="63.72,-849.26 60.22,-839.26 56.72,-849.26 63.72,-849.26"/>
</g>
<!-- (6, (&#45;1,)) -->
<g id="node24" class="node">
<title>(6, (&#45;1,))</title>
<ellipse fill="white" stroke="black" cx="123.22" cy="-817.5" rx="21.5" ry="21.5"/>
<text text-anchor="middle" x="123.22" y="-813.7" font-family="Times,serif" font-size="16.00">6</text>
</g>
<!-- ((9, (4,)), (9, 4))&#45;&gt;(6, (&#45;1,)) -->
<g id="edge31" class="edge">
<title>((9, (4,)), (9, 4))&#45;&gt;(6, (&#45;1,))</title>
<path fill="none" stroke="black" d="M68.98,-869.73C77.04,-862.12 89.34,-850.51 100.19,-840.26"/>
<polygon fill="black" stroke="black" points="102.88,-842.52 107.75,-833.11 98.08,-837.43 102.88,-842.52"/>
</g>
<!-- ((3, (1,)), (3, 1)) -->
<g id="node4" class="node">
<title>((3, (1,)), (3, 1))</title>
<polygon fill="lime" stroke="black" points="89.22,-36 71.22,-18 89.22,0 107.22,-18 89.22,-36"/>
<text text-anchor="middle" x="89.22" y="-14.3" font-family="Times,serif" font-size="14.00">↓</text>
</g>
<!-- (3, (1,))&#45;&gt;((3, (1,)), (3, 1)) -->
<g id="edge3" class="edge">
<title>(3, (1,))&#45;&gt;((3, (1,)), (3, 1))</title>
<path fill="none" stroke="black" d="M89.22,-57.69C89.22,-54.1 89.22,-50.31 89.22,-46.57"/>
<polygon fill="black" stroke="black" points="92.72,-46.35 89.22,-36.35 85.72,-46.35 92.72,-46.35"/>
</g>
<!-- ((5, (&#45;1, 2, 3)), (5, 2)) -->
<g id="node6" class="node">
<title>((5, (&#45;1, 2, 3)), (5, 2))</title>
<polygon fill="#bfbfbf" stroke="black" points="37.22,-774 19.22,-756 37.22,-738 55.22,-756 37.22,-774"/>
<text text-anchor="middle" x="37.22" y="-752.3" font-family="Times,serif" font-size="14.00">↓↓</text>
</g>
<!-- (5, (&#45;1, 2, 3))&#45;&gt;((5, (&#45;1, 2, 3)), (5, 2)) -->
<g id="edge5" class="edge">
<title>(5, (&#45;1, 2, 3))&#45;&gt;((5, (&#45;1, 2, 3)), (5, 2))</title>
<path fill="none" stroke="black" d="M52.69,-797.02C50.44,-791.2 47.96,-784.78 45.66,-778.82"/>
<polygon fill="black" stroke="black" points="48.89,-777.48 42.02,-769.41 42.36,-780 48.89,-777.48"/>
</g>
<!-- ((5, (&#45;1, 2, 3)), (5, 3)) -->
<g id="node23" class="node">
<title>((5, (&#45;1, 2, 3)), (5, 3))</title>
<polygon fill="#bfbfbf" stroke="black" points="85.22,-774 67.22,-756 85.22,-738 103.22,-756 85.22,-774"/>
<text text-anchor="middle" x="85.22" y="-752.3" font-family="Times,serif" font-size="14.00">↓↓↓</text>
</g>
<!-- (5, (&#45;1, 2, 3))&#45;&gt;((5, (&#45;1, 2, 3)), (5, 3)) -->
<g id="edge29" class="edge">
<title>(5, (&#45;1, 2, 3))&#45;&gt;((5, (&#45;1, 2, 3)), (5, 3))</title>
<path fill="none" stroke="black" d="M68.27,-797.35C70.76,-791.43 73.52,-784.86 76.07,-778.78"/>
<polygon fill="black" stroke="black" points="79.45,-779.77 80.1,-769.19 73,-777.06 79.45,-779.77"/>
</g>
<!-- (4, (&#45;3,)) -->
<g id="node7" class="node">
<title>(4, (&#45;3,))</title>
<ellipse fill="white" stroke="black" cx="79.22" cy="-694.5" rx="21.5" ry="21.5"/>
<text text-anchor="middle" x="79.22" y="-690.7" font-family="Times,serif" font-size="16.00">4</text>
</g>
<!-- ((5, (&#45;1, 2, 3)), (5, 2))&#45;&gt;(4, (&#45;3,)) -->
<g id="edge6" class="edge">
<title>((5, (&#45;1, 2, 3)), (5, 2))&#45;&gt;(4, (&#45;3,))</title>
<path fill="none" stroke="black" d="M44.35,-744.91C49.05,-738.24 55.44,-729.2 61.46,-720.67"/>
<polygon fill="black" stroke="black" points="64.38,-722.6 67.28,-712.41 58.66,-718.56 64.38,-722.6"/>
</g>
<!-- ((4, (&#45;3,)), (4, &#45;3)) -->
<g id="node8" class="node">
<title>((4, (&#45;3,)), (4, &#45;3))</title>
<polygon fill="#bfbfbf" stroke="black" points="80.22,-651 62.22,-633 80.22,-615 98.22,-633 80.22,-651"/>
<text text-anchor="middle" x="80.22" y="-629.3" font-family="Times,serif" font-size="14.00">←←←</text>
</g>
<!-- (4, (&#45;3,))&#45;&gt;((4, (&#45;3,)), (4, &#45;3)) -->
<g id="edge7" class="edge">
<title>(4, (&#45;3,))&#45;&gt;((4, (&#45;3,)), (4, &#45;3))</title>
<path fill="none" stroke="black" d="M79.57,-672.69C79.64,-668.92 79.7,-664.93 79.77,-661.01"/>
<polygon fill="black" stroke="black" points="83.27,-661.02 79.94,-650.97 76.27,-660.91 83.27,-661.02"/>
</g>
<!-- (3, (&#45;2,)) -->
<g id="node9" class="node">
<title>(3, (&#45;2,))</title>
<ellipse fill="white" stroke="black" cx="80.22" cy="-571.5" rx="21.5" ry="21.5"/>
<text text-anchor="middle" x="80.22" y="-567.7" font-family="Times,serif" font-size="16.00">3</text>
</g>
<!-- ((4, (&#45;3,)), (4, &#45;3))&#45;&gt;(3, (&#45;2,)) -->
<g id="edge8" class="edge">
<title>((4, (&#45;3,)), (4, &#45;3))&#45;&gt;(3, (&#45;2,))</title>
<path fill="none" stroke="black" d="M80.22,-614.79C80.22,-611.22 80.22,-607.35 80.22,-603.45"/>
<polygon fill="black" stroke="black" points="83.72,-603.26 80.22,-593.26 76.72,-603.26 83.72,-603.26"/>
</g>
<!-- ((3, (&#45;2,)), (3, &#45;2)) -->
<g id="node10" class="node">
<title>((3, (&#45;2,)), (3, &#45;2))</title>
<polygon fill="#bfbfbf" stroke="black" points="84.22,-528 66.22,-510 84.22,-492 102.22,-510 84.22,-528"/>
<text text-anchor="middle" x="84.22" y="-506.3" font-family="Times,serif" font-size="14.00">↑↑</text>
</g>
<!-- (3, (&#45;2,))&#45;&gt;((3, (&#45;2,)), (3, &#45;2)) -->
<g id="edge9" class="edge">
<title>(3, (&#45;2,))&#45;&gt;((3, (&#45;2,)), (3, &#45;2))</title>
<path fill="none" stroke="black" d="M81.6,-550.02C81.88,-545.91 82.17,-541.52 82.46,-537.24"/>
<polygon fill="black" stroke="black" points="85.97,-537.22 83.15,-527 78.98,-536.75 85.97,-537.22"/>
</g>
<!-- (2, (&#45;1,)) -->
<g id="node11" class="node">
<title>(2, (&#45;1,))</title>
<ellipse fill="white" stroke="black" cx="103.22" cy="-448.5" rx="21.5" ry="21.5"/>
<text text-anchor="middle" x="103.22" y="-444.7" font-family="Times,serif" font-size="16.00">2</text>
</g>
<!-- ((3, (&#45;2,)), (3, &#45;2))&#45;&gt;(2, (&#45;1,)) -->
<g id="edge10" class="edge">
<title>((3, (&#45;2,)), (3, &#45;2))&#45;&gt;(2, (&#45;1,))</title>
<path fill="none" stroke="black" d="M88.35,-496.09C89.94,-491.1 91.84,-485.16 93.73,-479.23"/>
<polygon fill="black" stroke="black" points="97.16,-480 96.87,-469.41 90.49,-477.87 97.16,-480"/>
</g>
<!-- ((2, (&#45;1,)), (2, &#45;1)) -->
<g id="node12" class="node">
<title>((2, (&#45;1,)), (2, &#45;1))</title>
<polygon fill="#bfbfbf" stroke="black" points="103.22,-405 85.22,-387 103.22,-369 121.22,-387 103.22,-405"/>
<text text-anchor="middle" x="103.22" y="-383.3" font-family="Times,serif" font-size="14.00">←</text>
</g>
<!-- (2, (&#45;1,))&#45;&gt;((2, (&#45;1,)), (2, &#45;1)) -->
<g id="edge11" class="edge">
<title>(2, (&#45;1,))&#45;&gt;((2, (&#45;1,)), (2, &#45;1))</title>
<path fill="none" stroke="black" d="M103.22,-426.69C103.22,-423.1 103.22,-419.31 103.22,-415.57"/>
<polygon fill="black" stroke="black" points="106.72,-415.35 103.22,-405.35 99.72,-415.35 106.72,-415.35"/>
</g>
<!-- (8, (1, 2, 3, 4)) -->
<g id="node13" class="node">
<title>(8, (1, 2, 3, 4))</title>
<ellipse fill="white" stroke="black" cx="103.22" cy="-325.5" rx="21.5" ry="21.5"/>
<text text-anchor="middle" x="103.22" y="-321.7" font-family="Times,serif" font-size="16.00">8</text>
</g>
<!-- ((2, (&#45;1,)), (2, &#45;1))&#45;&gt;(8, (1, 2, 3, 4)) -->
<g id="edge12" class="edge">
<title>((2, (&#45;1,)), (2, &#45;1))&#45;&gt;(8, (1, 2, 3, 4))</title>
<path fill="none" stroke="black" d="M103.22,-368.79C103.22,-365.22 103.22,-361.35 103.22,-357.45"/>
<polygon fill="black" stroke="black" points="106.72,-357.26 103.22,-347.26 99.72,-357.26 106.72,-357.26"/>
</g>
<!-- ((8, (1, 2, 3, 4)), (8, 1)) -->
<g id="node14" class="node">
<title>((8, (1, 2, 3, 4)), (8, 1))</title>
<polygon fill="#bfbfbf" stroke="black" points="48.22,-282 30.22,-264 48.22,-246 66.22,-264 48.22,-282"/>
<text text-anchor="middle" x="48.22" y="-260.3" font-family="Times,serif" font-size="14.00">↓</text>
</g>
<!-- (8, (1, 2, 3, 4))&#45;&gt;((8, (1, 2, 3, 4)), (8, 1)) -->
<g id="edge13" class="edge">
<title>(8, (1, 2, 3, 4))&#45;&gt;((8, (1, 2, 3, 4)), (8, 1))</title>
<path fill="none" stroke="black" d="M89.06,-309.18C81.24,-300.72 71.53,-290.22 63.54,-281.57"/>
<polygon fill="black" stroke="black" points="65.88,-278.95 56.53,-273.98 60.74,-283.7 65.88,-278.95"/>
</g>
<!-- ((8, (1, 2, 3, 4)), (8, 2)) -->
<g id="node20" class="node">
<title>((8, (1, 2, 3, 4)), (8, 2))</title>
<polygon fill="#bfbfbf" stroke="black" points="95.22,-282 77.22,-264 95.22,-246 113.22,-264 95.22,-282"/>
<text text-anchor="middle" x="95.22" y="-260.3" font-family="Times,serif" font-size="14.00">↓↓</text>
</g>
<!-- (8, (1, 2, 3, 4))&#45;&gt;((8, (1, 2, 3, 4)), (8, 2)) -->
<g id="edge23" class="edge">
<title>(8, (1, 2, 3, 4))&#45;&gt;((8, (1, 2, 3, 4)), (8, 2))</title>
<path fill="none" stroke="black" d="M100.47,-304.02C99.88,-299.64 99.25,-294.95 98.64,-290.4"/>
<polygon fill="black" stroke="black" points="102.08,-289.69 97.27,-280.25 95.14,-290.63 102.08,-289.69"/>
</g>
<!-- ((8, (1, 2, 3, 4)), (8, 3)) -->
<g id="node21" class="node">
<title>((8, (1, 2, 3, 4)), (8, 3))</title>
<polygon fill="#bfbfbf" stroke="black" points="143.22,-282 125.22,-264 143.22,-246 161.22,-264 143.22,-282"/>
<text text-anchor="middle" x="143.22" y="-260.3" font-family="Times,serif" font-size="14.00">↓↓↓</text>
</g>
<!-- (8, (1, 2, 3, 4))&#45;&gt;((8, (1, 2, 3, 4)), (8, 3)) -->
<g id="edge25" class="edge">
<title>(8, (1, 2, 3, 4))&#45;&gt;((8, (1, 2, 3, 4)), (8, 3))</title>
<path fill="none" stroke="black" d="M114.79,-307.29C119.66,-300.05 125.34,-291.6 130.34,-284.16"/>
<polygon fill="black" stroke="black" points="133.52,-285.7 136.2,-275.45 127.71,-281.8 133.52,-285.7"/>
</g>
<!-- ((8, (1, 2, 3, 4)), (8, 4)) -->
<g id="node22" class="node">
<title>((8, (1, 2, 3, 4)), (8, 4))</title>
<polygon fill="#bfbfbf" stroke="black" points="195.22,-282 177.22,-264 195.22,-246 213.22,-264 195.22,-282"/>
<text text-anchor="middle" x="195.22" y="-260.3" font-family="Times,serif" font-size="14.00">↓↓↓↓</text>
</g>
<!-- (8, (1, 2, 3, 4))&#45;&gt;((8, (1, 2, 3, 4)), (8, 4)) -->
<g id="edge27" class="edge">
<title>(8, (1, 2, 3, 4))&#45;&gt;((8, (1, 2, 3, 4)), (8, 4))</title>
<path fill="none" stroke="black" d="M120.96,-313.03C136.76,-302.81 159.83,-287.89 176.05,-277.4"/>
<polygon fill="black" stroke="black" points="178.21,-280.17 184.7,-271.8 174.41,-274.3 178.21,-280.17"/>
</g>
<!-- (9, (1, 2, 3, 4)) -->
<g id="node15" class="node">
<title>(9, (1, 2, 3, 4))</title>
<ellipse fill="white" stroke="black" cx="106.22" cy="-202.5" rx="21.5" ry="21.5"/>
<text text-anchor="middle" x="106.22" y="-198.7" font-family="Times,serif" font-size="16.00">9</text>
</g>
<!-- ((8, (1, 2, 3, 4)), (8, 1))&#45;&gt;(9, (1, 2, 3, 4)) -->
<g id="edge14" class="edge">
<title>((8, (1, 2, 3, 4)), (8, 1))&#45;&gt;(9, (1, 2, 3, 4))</title>
<path fill="none" stroke="black" d="M56.78,-254.22C64.01,-246.8 74.7,-235.84 84.28,-226.01"/>
<polygon fill="black" stroke="black" points="86.85,-228.39 91.32,-218.78 81.84,-223.5 86.85,-228.39"/>
</g>
<!-- ((9, (1, 2, 3, 4)), (9, 1)) -->
<g id="node16" class="node">
<title>((9, (1, 2, 3, 4)), (9, 1))</title>
<polygon fill="#bfbfbf" stroke="black" points="37.22,-159 19.22,-141 37.22,-123 55.22,-141 37.22,-159"/>
<text text-anchor="middle" x="37.22" y="-137.3" font-family="Times,serif" font-size="14.00">→</text>
</g>
<!-- (9, (1, 2, 3, 4))&#45;&gt;((9, (1, 2, 3, 4)), (9, 1)) -->
<g id="edge15" class="edge">
<title>(9, (1, 2, 3, 4))&#45;&gt;((9, (1, 2, 3, 4)), (9, 1))</title>
<path fill="none" stroke="black" d="M90.22,-187.7C79.43,-178.4 65.22,-166.14 54.23,-156.67"/>
<polygon fill="black" stroke="black" points="56.42,-153.94 46.57,-150.06 51.85,-159.24 56.42,-153.94"/>
</g>
<!-- ((9, (1, 2, 3, 4)), (9, 2)) -->
<g id="node17" class="node">
<title>((9, (1, 2, 3, 4)), (9, 2))</title>
<polygon fill="#bfbfbf" stroke="black" points="89.22,-159 71.22,-141 89.22,-123 107.22,-141 89.22,-159"/>
<text text-anchor="middle" x="89.22" y="-137.3" font-family="Times,serif" font-size="14.00">→→</text>
</g>
<!-- (9, (1, 2, 3, 4))&#45;&gt;((9, (1, 2, 3, 4)), (9, 2)) -->
<g id="edge17" class="edge">
<title>(9, (1, 2, 3, 4))&#45;&gt;((9, (1, 2, 3, 4)), (9, 2))</title>
<path fill="none" stroke="black" d="M100.56,-181.69C99.06,-176.41 97.41,-170.67 95.86,-165.23"/>
<polygon fill="black" stroke="black" points="99.15,-164.01 93.04,-155.35 92.42,-165.93 99.15,-164.01"/>
</g>
<!-- ((9, (1, 2, 3, 4)), (9, 3)) -->
<g id="node18" class="node">
<title>((9, (1, 2, 3, 4)), (9, 3))</title>
<polygon fill="#bfbfbf" stroke="black" points="152.22,-159 134.22,-141 152.22,-123 170.22,-141 152.22,-159"/>
<text text-anchor="middle" x="152.22" y="-137.3" font-family="Times,serif" font-size="14.00">→→→</text>
</g>
<!-- (9, (1, 2, 3, 4))&#45;&gt;((9, (1, 2, 3, 4)), (9, 3)) -->
<g id="edge19" class="edge">
<title>(9, (1, 2, 3, 4))&#45;&gt;((9, (1, 2, 3, 4)), (9, 3))</title>
<path fill="none" stroke="black" d="M119.04,-184.93C125.13,-177.05 132.41,-167.62 138.6,-159.62"/>
<polygon fill="black" stroke="black" points="141.44,-161.67 144.78,-151.62 135.9,-157.39 141.44,-161.67"/>
</g>
<!-- ((9, (1, 2, 3, 4)), (9, 4)) -->
<g id="node19" class="node">
<title>((9, (1, 2, 3, 4)), (9, 4))</title>
<polygon fill="#bfbfbf" stroke="black" points="230.22,-159 212.22,-141 230.22,-123 248.22,-141 230.22,-159"/>
<text text-anchor="middle" x="230.22" y="-137.3" font-family="Times,serif" font-size="14.00">→→→→</text>
</g>
<!-- (9, (1, 2, 3, 4))&#45;&gt;((9, (1, 2, 3, 4)), (9, 4)) -->
<g id="edge21" class="edge">
<title>(9, (1, 2, 3, 4))&#45;&gt;((9, (1, 2, 3, 4)), (9, 4))</title>
<path fill="none" stroke="black" d="M125.33,-192.33C148.15,-181.38 186.2,-163.13 209.65,-151.87"/>
<polygon fill="black" stroke="black" points="211.22,-155 218.72,-147.52 208.19,-148.69 211.22,-155"/>
</g>
<!-- ((9, (1, 2, 3, 4)), (9, 1))&#45;&gt;(3, (1,)) -->
<g id="edge16" class="edge">
<title>((9, (1, 2, 3, 4)), (9, 1))&#45;&gt;(3, (1,))</title>
<path fill="none" stroke="black" d="M45.35,-130.7C51.6,-123.55 60.52,-113.35 68.68,-104.01"/>
<polygon fill="black" stroke="black" points="71.34,-106.28 75.29,-96.44 66.07,-101.67 71.34,-106.28"/>
</g>
<!-- ((9, (1, 2, 3, 4)), (9, 2))&#45;&gt;(3, (1,)) -->
<g id="edge18" class="edge">
<title>((9, (1, 2, 3, 4)), (9, 2))&#45;&gt;(3, (1,))</title>
<path fill="none" stroke="black" d="M89.22,-122.79C89.22,-119.22 89.22,-115.35 89.22,-111.45"/>
<polygon fill="black" stroke="black" points="92.72,-111.26 89.22,-101.26 85.72,-111.26 92.72,-111.26"/>
</g>
<!-- ((9, (1, 2, 3, 4)), (9, 3))&#45;&gt;(3, (1,)) -->
<g id="edge20" class="edge">
<title>((9, (1, 2, 3, 4)), (9, 3))&#45;&gt;(3, (1,))</title>
<path fill="none" stroke="black" d="M143.46,-131.73C135.41,-124.12 123.11,-112.51 112.26,-102.26"/>
<polygon fill="black" stroke="black" points="114.37,-99.43 104.7,-95.11 109.56,-104.52 114.37,-99.43"/>
</g>
<!-- ((9, (1, 2, 3, 4)), (9, 4))&#45;&gt;(3, (1,)) -->
<g id="edge22" class="edge">
<title>((9, (1, 2, 3, 4)), (9, 4))&#45;&gt;(3, (1,))</title>
<path fill="none" stroke="black" d="M218.2,-134.93C196.21,-125.65 148.92,-105.69 118.13,-92.7"/>
<polygon fill="black" stroke="black" points="119.33,-89.41 108.76,-88.74 116.61,-95.86 119.33,-89.41"/>
</g>
<!-- ((8, (1, 2, 3, 4)), (8, 2))&#45;&gt;(9, (1, 2, 3, 4)) -->
<g id="edge24" class="edge">
<title>((8, (1, 2, 3, 4)), (8, 2))&#45;&gt;(9, (1, 2, 3, 4))</title>
<path fill="none" stroke="black" d="M97.89,-248.6C98.72,-244.07 99.68,-238.89 100.64,-233.69"/>
<polygon fill="black" stroke="black" points="104.09,-234.31 102.46,-223.84 97.2,-233.04 104.09,-234.31"/>
</g>
<!-- ((8, (1, 2, 3, 4)), (8, 3))&#45;&gt;(9, (1, 2, 3, 4)) -->
<g id="edge26" class="edge">
<title>((8, (1, 2, 3, 4)), (8, 3))&#45;&gt;(9, (1, 2, 3, 4))</title>
<path fill="none" stroke="black" d="M136.61,-252.36C132.68,-246.05 127.52,-237.74 122.56,-229.77"/>
<polygon fill="black" stroke="black" points="125.39,-227.69 117.13,-221.04 119.44,-231.38 125.39,-227.69"/>
</g>
<!-- ((8, (1, 2, 3, 4)), (8, 4))&#45;&gt;(9, (1, 2, 3, 4)) -->
<g id="edge28" class="edge">
<title>((8, (1, 2, 3, 4)), (8, 4))&#45;&gt;(9, (1, 2, 3, 4))</title>
<path fill="none" stroke="black" d="M185.01,-256.17C172.26,-247.65 149.97,-232.75 132.35,-220.97"/>
<polygon fill="black" stroke="black" points="133.89,-217.79 123.63,-215.14 130,-223.61 133.89,-217.79"/>
</g>
<!-- ((5, (&#45;1, 2, 3)), (5, 3))&#45;&gt;(4, (&#45;3,)) -->
<g id="edge30" class="edge">
<title>((5, (&#45;1, 2, 3)), (5, 3))&#45;&gt;(4, (&#45;3,))</title>
<path fill="none" stroke="black" d="M83.65,-739.37C83.23,-735.23 82.76,-730.61 82.3,-725.97"/>
<polygon fill="black" stroke="black" points="85.77,-725.55 81.29,-715.96 78.81,-726.26 85.77,-725.55"/>
</g>
<!-- ((6, (&#45;1,)), (6, &#45;1)) -->
<g id="node25" class="node">
<title>((6, (&#45;1,)), (6, &#45;1))</title>
<polygon fill="#bfbfbf" stroke="black" points="133.22,-774 115.22,-756 133.22,-738 151.22,-756 133.22,-774"/>
<text text-anchor="middle" x="133.22" y="-752.3" font-family="Times,serif" font-size="14.00">↑</text>
</g>
<!-- (6, (&#45;1,))&#45;&gt;((6, (&#45;1,)), (6, &#45;1)) -->
<g id="edge32" class="edge">
<title>(6, (&#45;1,))&#45;&gt;((6, (&#45;1,)), (6, &#45;1))</title>
<path fill="none" stroke="black" d="M126.66,-796.02C127.44,-791.44 128.26,-786.52 129.06,-781.78"/>
<polygon fill="black" stroke="black" points="132.52,-782.32 130.72,-771.88 125.61,-781.16 132.52,-782.32"/>
</g>
<!-- (7, (&#45;1,)) -->
<g id="node26" class="node">
<title>(7, (&#45;1,))</title>
<ellipse fill="white" stroke="black" cx="133.22" cy="-694.5" rx="21.5" ry="21.5"/>
<text text-anchor="middle" x="133.22" y="-690.7" font-family="Times,serif" font-size="16.00">7</text>
</g>
<!-- ((6, (&#45;1,)), (6, &#45;1))&#45;&gt;(7, (&#45;1,)) -->
<g id="edge33" class="edge">
<title>((6, (&#45;1,)), (6, &#45;1))&#45;&gt;(7, (&#45;1,))</title>
<path fill="none" stroke="black" d="M133.22,-737.79C133.22,-734.22 133.22,-730.35 133.22,-726.45"/>
<polygon fill="black" stroke="black" points="136.72,-726.26 133.22,-716.26 129.72,-726.26 136.72,-726.26"/>
</g>
<!-- ((7, (&#45;1,)), (7, &#45;1)) -->
<g id="node27" class="node">
<title>((7, (&#45;1,)), (7, &#45;1))</title>
<polygon fill="#bfbfbf" stroke="black" points="132.22,-589.5 114.22,-571.5 132.22,-553.5 150.22,-571.5 132.22,-589.5"/>
<text text-anchor="middle" x="132.22" y="-567.8" font-family="Times,serif" font-size="14.00">←</text>
</g>
<!-- (7, (&#45;1,))&#45;&gt;((7, (&#45;1,)), (7, &#45;1)) -->
<g id="edge34" class="edge">
<title>(7, (&#45;1,))&#45;&gt;((7, (&#45;1,)), (7, &#45;1))</title>
<path fill="none" stroke="black" d="M133.05,-672.97C132.89,-652.81 132.63,-621.92 132.45,-599.72"/>
<polygon fill="black" stroke="black" points="135.95,-599.57 132.36,-589.6 128.95,-599.63 135.95,-599.57"/>
</g>
<!-- ((7, (&#45;1,)), (7, &#45;1))&#45;&gt;(2, (&#45;1,)) -->
<g id="edge35" class="edge">
<title>((7, (&#45;1,)), (7, &#45;1))&#45;&gt;(2, (&#45;1,))</title>
<path fill="none" stroke="black" d="M128.9,-556.62C124.42,-537.93 116.33,-504.2 110.43,-479.56"/>
<polygon fill="black" stroke="black" points="113.78,-478.54 108.05,-469.63 106.98,-480.17 113.78,-478.54"/>
</g>
</g>
</svg>
